<svg width="117" height="131" viewBox="0 0 117 131" fill="none" xmlns="http://www.w3.org/2000/svg">
<g opacity="0.2">
<path opacity="0.09" d="M2.12821 78.0858L4.5104 76.7721C4.62863 76.7064 9.04711 74.3111 9.14782 74.368L12.5285 72.7609C13.3561 72.2836 14.6129 72.1478 15.6682 72.1478C16.5734 72.1633 17.4613 72.3977 18.2562 72.8309L54.5192 93.8504L57.6677 95.6764L97.0791 118.531C97.452 118.734 97.7795 119.011 98.0416 119.346C98.3036 119.68 98.4947 120.064 98.6031 120.475C98.627 120.597 98.6445 120.719 98.6556 120.843C98.7213 121.881 98.1039 122.879 96.939 123.549L94.5568 124.863C94.443 124.933 90.0201 127.328 89.9194 127.267L86.5388 128.874C85.7111 129.356 84.4543 129.491 83.399 129.491C82.4946 129.476 81.6077 129.24 80.8154 128.804L44.5524 107.785L41.3995 105.958L1.98807 83.1086C1.61517 82.9052 1.28768 82.6279 1.02565 82.2935C0.763624 81.9592 0.572557 81.575 0.464159 81.1643C0.43991 81.0412 0.42237 80.917 0.411612 80.7921C0.345927 79.7586 0.963379 78.7602 2.12821 78.0858Z" fill="black"/>
<path opacity="0.18" d="M2.39523 78.3135L4.74678 76.9998C4.97887 76.8684 9.15211 74.7008 9.35355 74.8103L12.6772 73.5272C13.4261 73.0893 14.7967 73.1156 15.7426 73.1156C16.6389 73.1729 17.5104 73.4335 18.2912 73.8775L53.998 94.5904L57.1027 96.3902L95.9186 118.907C96.6442 119.319 97.1975 119.978 97.4775 120.764C97.5038 120.882 97.5345 120.996 97.552 121.114C97.6834 122.117 97.1141 123.111 95.9493 123.781L93.5977 125.095C93.3613 125.231 89.1924 127.394 88.991 127.284L85.6629 128.563C84.9184 129.001 83.5434 128.975 82.5975 128.975C81.7111 128.924 80.8476 128.674 80.0708 128.243L44.3597 107.531L41.2593 105.731L2.4434 83.218C1.7165 82.8057 1.16291 82.1449 0.884456 81.3569C0.858181 81.2431 0.827536 81.1248 0.810019 81.0066C0.678648 79.9819 1.24792 78.9835 2.39523 78.3135Z" fill="black"/>
<path opacity="0.27" d="M2.69746 78.5412L5.01835 77.2757C5.36868 77.0742 9.29231 75.1431 9.59447 75.3139L12.8656 74.3636C13.5312 73.9782 15.0157 74.149 15.8609 74.149C16.7269 74.2398 17.5655 74.5049 18.3263 74.9285L53.4813 95.3349L56.5466 97.1084L94.767 119.288C95.3713 119.639 96.2033 120.475 96.3566 121.062C96.3872 121.171 96.431 121.281 96.4529 121.395C96.6544 122.358 96.1289 123.348 94.9641 124.022L92.6432 125.288C92.2928 125.489 88.3692 127.425 88.0671 127.249L84.7828 128.178C84.1215 128.559 82.6326 128.388 81.7875 128.388C80.9227 128.298 80.0854 128.033 79.3265 127.608L44.1671 107.206L41.1017 105.455L2.88576 83.2793C2.27707 82.929 1.44506 82.0882 1.29179 81.5277C1.26114 81.4139 1.21734 81.3044 1.19545 81.1949C1.00715 80.2052 1.5195 79.2112 2.69746 78.5412Z" fill="black"/>
<path opacity="0.36" d="M2.9821 78.7645L5.27672 77.534C5.7409 77.2625 9.41493 75.5635 9.8178 75.7824L13.0364 75.1912C13.6144 74.8541 15.2259 75.1912 15.9572 75.1912C16.8021 75.3168 17.6168 75.5958 18.3613 76.0145L52.9558 96.1056L55.9642 97.8572L93.5803 119.696C94.1145 120.006 95.0516 120.882 95.2093 121.386C95.2443 121.495 95.2968 121.592 95.3275 121.701C95.599 122.629 95.1129 123.615 93.9525 124.285L91.6579 125.52C91.1937 125.791 87.5197 127.49 87.1168 127.271L83.8982 127.897C83.3202 128.235 81.7087 127.897 80.9774 127.897C80.1322 127.773 79.3172 127.494 78.5733 127.074L43.9788 106.983L40.9747 105.232L3.35432 83.3932C2.82446 83.0823 1.88296 82.2065 1.7297 81.7029C1.69466 81.5934 1.64211 81.4927 1.61145 81.3876C1.33557 80.4461 1.82165 79.4389 2.9821 78.7645Z" fill="black"/>
<path opacity="0.45" d="M3.27106 78.9922L5.53504 77.788C6.11307 77.4552 9.54186 75.9838 10.0455 76.2729L13.2071 75.9751C13.7063 75.6861 15.4229 76.1678 16.0579 76.1678C16.6053 76.1678 18.0022 76.8115 18.3963 77.0436L52.4478 96.8237L55.4037 98.5403L92.4242 120.046C92.8621 120.309 94.0181 121.202 94.0838 121.649C94.1385 121.744 94.1853 121.843 94.2239 121.946C94.5699 122.822 94.1276 123.821 92.9628 124.495L90.6988 125.695C90.1208 126.032 86.692 127.503 86.1927 127.21L83.0267 127.512C82.5275 127.801 80.8109 127.319 80.1759 127.319C79.6286 127.319 78.2317 126.676 77.8375 126.444L43.786 106.663L40.8258 104.969L3.80531 83.4589C3.3674 83.1961 2.21133 82.3072 2.14564 81.8561C2.09103 81.7623 2.04417 81.6642 2.00551 81.5627C1.65956 80.6475 2.10623 79.6622 3.27106 78.9922Z" fill="black"/>
<path opacity="0.55" d="M3.55132 79.22L5.78463 78.0464C6.4809 77.6435 9.66009 76.4042 10.2644 76.7546L13.3735 76.7808C13.7852 76.54 15.62 77.1749 16.1498 77.1749C16.5878 77.1749 18.0985 77.9019 18.4269 78.0946L51.9267 97.5638L54.8344 99.2541L91.2505 120.422C91.6315 120.641 92.8927 121.57 92.9496 121.942C93.011 122.029 93.0652 122.122 93.1116 122.218C93.5496 123.072 93.1116 124.053 91.9643 124.727L89.731 125.896C89.0348 126.299 85.8556 127.538 85.2513 127.21L82.1421 127.184C81.7042 127.425 79.8913 126.785 79.3658 126.785C78.9279 126.785 77.4128 126.058 77.0843 125.87L43.589 106.401L40.6813 104.71L4.26073 83.5114C3.87975 83.2925 2.62296 82.3685 2.56604 81.9963C2.503 81.9084 2.44872 81.8145 2.404 81.716C1.98799 80.884 2.39525 79.89 3.55132 79.22Z" fill="black"/>
<path opacity="0.64" d="M3.83597 79.4477L6.02549 78.3047C6.84 77.8362 9.76958 76.829 10.4702 77.2363L13.5356 77.5866C13.8684 77.3939 15.817 78.1821 16.2418 78.1821C16.6666 78.1821 18.1949 78.9966 18.4576 79.1499L51.4012 98.3082L54.2607 99.9723L90.0814 120.803C90.3835 120.979 91.7673 121.938 91.833 122.235C91.8997 122.317 91.9597 122.403 92.0125 122.494C92.5074 123.313 92.1395 124.294 90.9791 124.964L88.7895 126.106C87.975 126.575 85.0498 127.582 84.3448 127.175L81.2795 126.825C80.9467 127.013 78.998 126.225 78.5776 126.225C78.1572 126.225 76.6202 125.41 76.3574 125.261L43.4138 106.099L40.5543 104.439L4.73367 83.6034C4.43151 83.4282 3.04774 82.4692 3.00395 82.1714C2.93447 82.0914 2.87287 82.0049 2.82002 81.9131C2.31205 81.0942 2.67552 80.1177 3.83597 79.4477Z" fill="black"/>
<path opacity="0.73" d="M4.12065 79.671L6.31018 78.5587C7.24292 78.0245 9.91851 77.245 10.7243 77.7136L13.7283 78.3923C13.9735 78.2478 16.0404 79.1893 16.3557 79.1893C16.671 79.1893 18.3132 80.087 18.5102 80.2009L50.9152 99.0527L53.7265 100.686L88.921 121.171C89.1487 121.303 90.6507 122.292 90.6726 122.52C90.7483 122.594 90.8172 122.675 90.8784 122.761C91.4477 123.54 91.1193 124.512 89.9588 125.187L87.7693 126.299C86.8409 126.833 84.1609 127.613 83.3552 127.144L80.3556 126.466C80.106 126.61 78.039 125.669 77.7281 125.669C77.4172 125.669 75.7663 124.771 75.5692 124.657L43.1643 105.805L40.3529 104.172L5.17162 83.6866C4.94391 83.5552 3.42 82.5656 3.42 82.3378C3.3431 82.265 3.27411 82.1843 3.21419 82.097C2.63177 81.3219 2.96021 80.341 4.12065 79.671Z" fill="black"/>
<path opacity="0.82" d="M4.4053 79.8987L6.55103 78.8171C7.59324 78.2128 10.0236 77.6698 10.9301 78.1953L13.8772 79.1981C14.0436 79.1017 16.2244 80.2009 16.4345 80.2009C17.1534 80.5121 17.8538 80.8645 18.5321 81.2562L50.3722 99.7971L53.131 101.404L87.7518 121.548C87.905 121.635 89.5297 122.66 89.5559 122.809C89.6372 122.878 89.7133 122.952 89.7837 123.032C90.4274 123.772 90.134 124.749 88.9735 125.419L86.8322 126.501C85.7856 127.101 83.3552 127.648 82.4531 127.122L79.506 126.12C79.3396 126.216 77.1589 125.117 76.9487 125.117C76.2289 124.806 75.5285 124.452 74.8511 124.057L43.0154 105.521L40.2522 103.913L5.63144 83.7698C5.47817 83.6822 3.85353 82.6575 3.82726 82.5086C3.74744 82.4398 3.6728 82.3651 3.60394 82.2853C2.95146 81.5452 3.24485 80.5687 4.4053 79.8987Z" fill="black"/>
<path opacity="0.91" d="M4.68989 80.1264L6.80497 79.0754C7.96542 78.4055 10.1462 78.0945 11.1534 78.6726L14.0479 79.9863C14.1311 79.9381 16.4257 81.1905 16.5308 81.1905C16.6359 81.1905 18.5014 82.2546 18.5671 82.2941L49.851 100.524L52.5661 102.105L86.5869 121.929C86.6613 121.973 88.413 123.028 88.4217 123.102C88.5103 123.164 88.5938 123.233 88.6713 123.308C89.3939 124.005 89.1399 124.985 87.9794 125.655L85.8643 126.706C84.7039 127.376 82.5187 127.687 81.5159 127.105L78.6214 125.791C78.5382 125.839 76.2392 124.587 76.1341 124.587C76.029 124.587 74.1635 123.518 74.0978 123.479L42.8139 105.258L40.1033 103.677L6.08243 83.853C6.00361 83.8092 4.25636 82.7495 4.24323 82.675C4.15613 82.6147 4.07412 82.5473 3.998 82.4736C3.27108 81.7598 3.52944 80.7964 4.68989 80.1264Z" fill="black"/>
<path d="M80.5788 127.109L42.6212 104.969L4.66362 82.8327C3.56009 82.1977 3.69585 81.0811 4.97454 80.341L7.05896 79.325C8.33764 78.585 10.2688 78.5062 11.3767 79.1455L49.3343 101.277L87.2919 123.409C88.3998 124.048 88.2597 125.161 86.981 125.901L84.8966 126.921C83.6179 127.665 81.6867 127.74 80.5788 127.109Z" fill="black"/>
</g>
<path d="M83.1144 124.841L9.69964 82.3028C6.82699 80.6432 4.49733 76.1721 4.49733 72.3536V4.47834C4.49733 2.52967 2.8946 2.10052 3.86237 1.41301C3.90179 1.38673 6.13948 0.366416 6.18327 0.353278C6.73941 0.0988627 7.34931 -0.0157807 7.95988 0.019327C8.57045 0.0544347 9.16319 0.238229 9.68651 0.554714L83.1013 43.0972C85.9739 44.7569 88.3036 49.2279 88.3036 53.042V120.917C88.3036 122.954 87.6467 124.421 86.6001 125.069C86.5388 125.108 83.8414 126.382 83.7713 126.413C82.8561 126.715 84.3712 125.55 83.1144 124.841Z" fill="url(#paint0_linear_374_100)"/>
<path d="M85.8863 57.1189L88.3167 56.4007V53.0289C88.3167 49.1972 85.9871 44.7437 83.1144 43.0841L9.69963 0.541577C9.17631 0.225091 8.58357 0.0412969 7.973 0.00618917C7.36243 -0.0289185 6.75254 0.0857249 6.19639 0.340141C6.1526 0.340141 3.91491 1.3736 3.8755 1.39987C2.90773 2.10052 4.51045 2.52966 4.51045 4.46521V9.9434L85.8863 57.1189Z" fill="url(#paint1_linear_374_100)"/>
<path d="M80.6796 125.988L7.2692 83.4501C4.39216 81.7905 2.0625 77.3195 2.0625 73.5053V5.63003C2.0625 1.79399 4.39216 0.0336066 7.2692 1.68889L80.6796 44.2314C83.5523 45.891 85.8863 50.362 85.8863 54.1762V122.047C85.8863 125.892 83.5523 127.652 80.6796 125.988Z" fill="url(#paint2_linear_374_100)"/>
<path d="M80.6796 44.2357L7.2692 1.69327C4.39216 0.0336094 2.0625 1.79399 2.0625 5.63441V8.54648L85.8863 57.1189V54.1718C85.8863 50.3489 83.5523 45.8954 80.6796 44.2357Z" fill="url(#paint3_linear_374_100)"/>
<path style="mix-blend-mode:color-dodge" d="M81.1306 43.9905L7.72025 1.44804C6.34085 0.651051 5.09282 0.651053 4.1557 1.28602C5.03151 0.918175 6.10001 1.01889 7.26921 1.69327L80.6796 44.2357C83.5523 45.8954 85.8863 50.3664 85.8863 54.1806V122.047C85.8863 124.04 85.2513 125.463 84.2441 126.15C85.5141 125.616 86.3373 124.079 86.3373 121.802V53.9266C86.3373 50.1037 84.0077 45.6502 81.1306 43.9905Z" fill="url(#paint4_radial_374_100)"/>
<path d="M14.5078 10.6747C14.5078 11.3184 14.0699 11.5768 13.4918 11.2527C13.1967 11.0612 12.9509 10.8028 12.7744 10.4984C12.5979 10.1941 12.4956 9.85239 12.4759 9.50111C12.4759 8.85739 12.9138 8.59903 13.4918 8.92308C13.787 9.11462 14.0328 9.37305 14.2093 9.6774C14.3858 9.98174 14.4881 10.3234 14.5078 10.6747Z" fill="white"/>
<path d="M11.4424 8.89681C11.4424 9.54053 11.0045 9.79889 10.4265 9.47484C10.1313 9.2833 9.88555 9.02486 9.70903 8.72052C9.53251 8.41618 9.43024 8.0745 9.41052 7.72322C9.41052 7.0795 9.84843 6.82113 10.4265 7.1408C10.7217 7.3333 10.9675 7.59254 11.144 7.89759C11.3204 8.20264 11.4227 8.54493 11.4424 8.89681Z" fill="white"/>
<path d="M8.3771 7.11453C8.3771 7.75825 7.93919 8.01662 7.36116 7.69257C7.06604 7.50102 6.82024 7.24259 6.64372 6.93825C6.4672 6.6339 6.36493 6.29222 6.34521 5.94095C6.34521 5.29723 6.78312 5.03886 7.36116 5.36291C7.65628 5.55445 7.90207 5.81289 8.07859 6.11723C8.25511 6.42158 8.35739 6.76325 8.3771 7.11453Z" fill="white"/>
<g style="mix-blend-mode:multiply" opacity="0.3">
<path opacity="0.09" d="M46.107 48.8031C43.6022 47.358 41.5703 48.5141 41.5703 51.3867V86.9315C41.5703 89.8042 43.6022 93.3074 46.107 94.7525L68.0023 107.408C70.5071 108.853 73.4454 107.552 73.4454 104.675V69.135C73.4454 66.2624 70.5071 62.9037 68.0023 61.4542L46.107 48.8031Z" fill="url(#paint5_linear_374_100)"/>
<path opacity="0.18" d="M45.5509 48.8732C43.0241 47.4149 40.9791 48.5842 40.9791 51.5006V87.1855C40.9791 90.0844 43.0241 93.6139 45.5509 95.0678L67.5556 107.789C70.0779 109.247 72.9418 107.951 72.9418 105.056V69.3671C72.9418 66.4726 70.0779 63.0701 67.5556 61.6118L45.5509 48.8732Z" fill="url(#paint6_linear_374_100)"/>
<path opacity="0.27" d="M44.9948 48.9476C42.4506 47.4763 40.3881 48.6542 40.3881 51.575V87.4044C40.3881 90.3253 42.4506 93.8854 44.9948 95.3568L67.1222 108.148C69.6664 109.619 72.4558 108.328 72.4558 105.407V69.5729C72.4558 66.6521 69.6664 63.2102 67.1222 61.7388L44.9948 48.9476Z" fill="url(#paint7_linear_374_100)"/>
<path opacity="0.36" d="M44.4342 49.0177C41.8681 47.5376 39.7837 48.7243 39.7837 51.667V87.6409C39.7837 90.588 41.8681 94.1744 44.4342 95.6546L66.6798 108.52C69.2459 110 71.9609 108.713 71.9609 105.77V69.7963C71.9609 66.8492 69.2459 63.3634 66.6798 61.8789L44.4342 49.0177Z" fill="url(#paint8_linear_374_100)"/>
<path opacity="0.45" d="M43.8869 49.0921C41.2989 47.5945 39.2013 48.79 39.2013 51.759V87.8905C39.2013 90.8595 41.2989 94.4591 43.8869 95.9699L66.2551 108.91C68.8431 110.403 71.4837 109.125 71.4837 106.156V70.0152C71.4837 67.0462 68.8562 63.5167 66.2551 62.0235L43.8869 49.0921Z" fill="url(#paint9_linear_374_100)"/>
<path opacity="0.55" d="M43.3307 49.1622C40.7033 47.6558 38.6101 48.86 38.6101 51.8553V88.1138C38.6101 91.1091 40.7252 94.7525 43.3307 96.2589L65.8215 109.26C68.4489 110.767 70.9932 109.488 70.9932 106.497V70.2342C70.9932 67.2433 68.4271 63.6656 65.8215 62.1636L43.3307 49.1622Z" fill="url(#paint10_linear_374_100)"/>
<path opacity="0.64" d="M42.7789 49.2323C40.1515 47.7171 38.0189 48.9301 38.0189 51.9473V88.3503C38.0189 91.3675 40.1471 95.0415 42.7789 96.561L65.388 109.632C68.0154 111.148 70.5071 109.878 70.5071 106.861V70.4575C70.5071 67.4403 68.0154 63.8233 65.388 62.3037L42.7789 49.2323Z" fill="url(#paint11_linear_374_100)"/>
<path opacity="0.73" d="M42.2447 49.3067C39.5954 47.774 37.4496 49.0002 37.4496 52.0392V88.5868C37.4496 91.6258 39.5954 95.3305 42.2447 96.8588L64.9764 109.996C67.6257 111.524 70.0429 110.254 70.0429 107.215V70.6765C70.0429 67.6374 67.6257 63.9765 64.9764 62.4482L42.2447 49.3067Z" fill="url(#paint12_linear_374_100)"/>
<path opacity="0.82" d="M41.6667 49.3768C38.9998 47.8353 36.8497 49.0702 36.8497 52.1312V88.8233C36.8497 91.8886 39.013 95.6195 41.6667 97.1435L64.521 110.355C67.1922 111.896 69.535 110.635 69.535 107.57V70.8954C69.535 67.8301 67.1922 64.1298 64.521 62.5752L41.6667 49.3768Z" fill="url(#paint13_linear_374_100)"/>
<path opacity="0.91" d="M41.115 49.4468C38.4219 47.8966 36.2411 49.1403 36.2411 52.2275V89.0641C36.2411 92.1294 38.4306 95.9085 41.115 97.4631L64.0919 110.745C66.7806 112.299 69.0489 111.038 69.0489 107.955V71.1187C69.0489 68.0534 66.7806 64.283 64.0919 62.7285L41.115 49.4468Z" fill="url(#paint14_linear_374_100)"/>
<path d="M40.5588 49.5213C37.8481 47.9536 35.6498 49.2104 35.6498 52.3195V89.3006C35.6498 92.4097 37.8394 96.1976 40.5588 97.7653L63.6582 111.099C66.3689 112.663 68.5628 111.41 68.5628 108.301V71.3377C68.5628 68.2286 66.3733 64.4363 63.6582 62.873L40.5588 49.5213Z" fill="url(#paint15_linear_374_100)"/>
</g>
<path opacity="0.8" d="M35.7155 44.8663V90.264C35.7155 93.3862 37.905 97.1916 40.6376 98.7593L63.8465 112.177C66.5659 113.749 68.773 112.492 68.773 109.37V63.9677L35.7155 44.8663Z" fill="url(#paint16_linear_374_100)"/>
<path style="mix-blend-mode:multiply" opacity="0.2" d="M35.7155 70.0459V82.2503L68.7773 101.356V89.1473L35.7155 70.0459Z" fill="url(#paint17_linear_374_100)"/>
<g style="mix-blend-mode:color-dodge" opacity="0.25">
<path d="M101.068 31.9525V37.3344L98.1608 32.9641L101.068 31.9525Z" fill="#7C1DC9"/>
</g>
<path d="M68.7773 63.924L8.26324 28.9966V18.8416L68.7773 53.7689V63.924Z" fill="white"/>
<path d="M8.84566 28.5587V19.1788L8.26324 18.8416V28.9966L68.7773 63.924V63.1489L8.84566 28.5587Z" fill="#A7A7D6"/>
<path d="M10.2776 21.8281L11.1535 22.3405L11.5651 27.7618L12.003 22.8309L13.0102 23.4134L13.4481 28.8478L13.8597 23.9038L14.6611 24.3636L14.0612 30.7614L12.9138 30.1002L12.4759 25.3095L12.038 29.6141L10.8119 28.9047L10.2776 21.8281Z" fill="#45108A"/>
<path d="M15.0026 24.5519L15.8784 25.0643L16.2901 30.4855L16.728 25.5547L17.7351 26.1371L18.1731 31.5715L18.5847 26.6276L19.3817 27.0874L18.7861 33.4896L17.6344 32.8239L17.1965 28.0333L16.7586 32.3379L15.5325 31.6285L15.0026 24.5519Z" fill="#45108A"/>
<path d="M19.7189 27.2757L20.5947 27.788L21.0063 33.2093L21.4442 28.2785L22.4514 28.8609L22.8893 34.2953L23.3009 29.3514L24.0979 29.7893L23.5462 36.2177L22.3988 35.5521L21.9609 30.7614L21.523 35.066L20.2969 34.3566L19.7189 27.2757Z" fill="#45108A"/>
<path d="M47.644 61.0338L48.5199 61.5461V62.5665L47.644 62.0541V61.0338Z" fill="white"/>
<path d="M49.4614 62.7679C49.2267 62.3291 49.1076 61.8378 49.1154 61.3403V57.7188C49.1154 57.1934 49.2293 56.843 49.4614 56.6985C49.6934 56.554 50.0306 56.5934 50.4729 56.8474C50.8978 57.0857 51.248 57.4375 51.4845 57.8633C51.721 58.3016 51.8416 58.793 51.8348 59.2909V60.0003L50.959 59.4967V58.7173C50.9719 58.5453 50.938 58.3731 50.8609 58.2189C50.7838 58.0647 50.6664 57.9343 50.5211 57.8415C50.2145 57.6663 50.0613 57.7845 50.0613 58.2005V61.9709C50.0486 62.1452 50.085 62.3196 50.1662 62.4744C50.2475 62.6292 50.3704 62.7581 50.5211 62.8467C50.8276 63.0263 50.959 62.908 50.959 62.4964V61.4673L51.8348 61.9709V62.9299C51.8348 63.4554 51.7166 63.8057 51.4845 63.9502C51.2524 64.0947 50.9152 64.0553 50.4729 63.8013C50.0457 63.5583 49.6952 63.2002 49.4614 62.7679Z" fill="white"/>
<path d="M52.6975 64.6246C52.4535 64.1762 52.3298 63.6723 52.3384 63.162V59.6193C52.3384 59.0807 52.4567 58.7435 52.6975 58.5727C52.9384 58.402 53.2843 58.472 53.7397 58.7304C54.177 58.9764 54.5378 59.3386 54.7819 59.777C55.0259 60.2253 55.1496 60.7292 55.141 61.2396V64.7822C55.141 65.3209 55.0228 65.658 54.7819 65.8288C54.5411 65.9996 54.1952 65.9295 53.7397 65.6668C53.3017 65.4236 52.9407 65.0626 52.6975 64.6246ZM54.217 64.3181V60.6353C54.2334 60.4494 54.1974 60.2627 54.113 60.0963C54.0286 59.9299 53.8993 59.7904 53.7397 59.6938C53.4201 59.5099 53.2624 59.6412 53.2624 60.0835V63.7663C53.2459 63.9516 53.2819 64.1378 53.3663 64.3035C53.4507 64.4693 53.5801 64.6079 53.7397 64.7034C54.0682 64.8917 54.217 64.7603 54.217 64.3181Z" fill="white"/>
<path d="M55.7628 59.9959L57.0765 60.7579L57.6633 65.9252L58.2501 61.4366L59.5638 62.1986V68.9423L58.688 68.4388V63.3415L58.018 68.0578L57.2429 67.6199L56.5729 62.1285V67.2345L55.7672 66.7703L55.7628 59.9959Z" fill="white"/>
<path d="M47.644 73.2951L48.5199 73.8075V74.8278L47.644 74.3154V73.2951Z" fill="white"/>
<path d="M49.4658 75.0205C49.2222 74.572 49.0985 74.0682 49.1067 73.5579V70.0152C49.1067 69.4722 49.2249 69.1394 49.4658 68.9686C49.7066 68.7978 50.0526 68.8679 50.508 69.1263C50.9443 69.3736 51.3047 69.7355 51.5502 70.1729C51.7936 70.6198 51.9173 71.1222 51.9093 71.6311V75.1912C51.9093 75.7299 51.7911 76.0671 51.5502 76.2335C51.3094 76.3999 50.959 76.3386 50.508 76.0758C50.0682 75.8291 49.707 75.4633 49.4658 75.0205ZM50.9853 74.7139V71.0312C51.0017 70.8453 50.9656 70.6586 50.8812 70.4922C50.7969 70.3258 50.6676 70.1863 50.508 70.0897C50.1883 69.9057 50.0307 70.0371 50.0307 70.4794V74.1578C50.0138 74.3437 50.0496 74.5306 50.134 74.6971C50.2185 74.8636 50.3481 75.003 50.508 75.0993C50.8277 75.2832 51.0028 75.1562 51.0028 74.7139H50.9853Z" fill="white"/>
<path d="M52.5311 70.3743L53.8973 71.1669C54.3267 71.3941 54.6868 71.733 54.9395 72.1478C55.1679 72.563 55.2812 73.0317 55.268 73.5053V73.9213C55.268 74.622 55.0665 74.946 54.6637 74.9022C54.8842 75.1043 55.0474 75.3611 55.1366 75.6467C55.2354 75.9821 55.2827 76.3305 55.2767 76.6801V77.8668C55.2767 78.0595 55.2767 78.2172 55.2767 78.3442C55.2889 78.4798 55.3168 78.6135 55.3599 78.7427L54.436 78.2566C54.4034 78.1436 54.3814 78.0277 54.3703 77.9106C54.3608 77.7341 54.3608 77.5573 54.3703 77.3808V76.1459C54.3823 75.8996 54.3374 75.6538 54.2389 75.4277C54.1373 75.2432 53.9855 75.0914 53.801 74.9898L53.4813 74.8059V77.6961L52.5573 77.1618L52.5311 70.3743ZM53.7879 73.9914C53.9762 74.0965 54.1119 74.1228 54.2039 74.0702C54.2958 74.0177 54.344 73.8556 54.344 73.5973V73.0805C54.3513 72.876 54.3124 72.6724 54.2301 72.485C54.1518 72.3282 54.0283 72.1986 53.8754 72.1128L53.4375 71.8719V73.7987L53.7879 73.9914Z" fill="white"/>
<path d="M56.2007 78.9134C55.9592 78.4643 55.8371 77.9607 55.846 77.4508V73.9038C55.846 73.3608 55.9643 73.0105 56.2007 72.8528C56.4328 72.6952 56.7744 72.7477 57.2254 73.0061C57.6559 73.2474 58.0107 73.6037 58.2501 74.0352C58.4883 74.4854 58.6088 74.9885 58.6005 75.4978V76.067L57.7247 75.5591V74.9154C57.7406 74.7291 57.7039 74.542 57.6187 74.3756C57.5335 74.2091 57.4034 74.0699 57.243 73.9739C56.9277 73.7899 56.7656 73.9213 56.7656 74.3636V78.0551C56.7513 78.2389 56.7883 78.4231 56.8726 78.587C56.9569 78.7509 57.0851 78.8882 57.243 78.9835C57.5626 79.1674 57.7247 79.0404 57.7247 78.6069V77.2932L57.2605 77.0261V76.067L58.5961 76.8378V79.0273C58.5961 79.5747 58.4779 79.9031 58.2458 80.0826C58.0137 80.2622 57.6677 80.1877 57.2211 79.9294C56.793 79.6923 56.4396 79.3405 56.2007 78.9134Z" fill="white"/>
<path d="M47.644 85.5565L48.5199 86.0688V87.0891L47.644 86.5768V85.5565Z" fill="white"/>
<path d="M49.2249 80.7439L50.381 81.4139L51.2787 85.9681V81.9306L52.102 82.4079V89.1516L51.1517 88.6043L50.0438 83.0385V87.9605L49.2249 87.4876V80.7439Z" fill="white"/>
<path d="M52.8069 82.8152L55.3249 84.269V85.2324L53.7309 84.3084V86.0907L55.0009 86.822V87.7854L53.7309 87.0541V89.1254L55.3249 90.0494V91.0128L52.8069 89.5589V82.8152Z" fill="white"/>
<path d="M56.5773 85.9549L55.6096 85.3944V84.431L58.4647 86.0819V87.0453L57.5013 86.4848V92.2695L56.5773 91.7397V85.9549Z" fill="white"/>
<path d="M47.644 97.8178L48.5199 98.3301V99.3505L47.644 98.8381V97.8178Z" fill="white"/>
<path d="M49.2249 93.0052L50.6174 93.811C51.0486 94.0249 51.4077 94.3602 51.6504 94.7758C51.8932 95.1913 52.0091 95.6688 51.9837 96.1494V96.4209C52.0013 96.6831 51.9515 96.9453 51.8392 97.1829C51.7957 97.258 51.7309 97.3185 51.6529 97.3567C51.5749 97.3949 51.4873 97.4091 51.4013 97.3974C51.6348 97.634 51.8165 97.9166 51.9349 98.2272C52.0532 98.5378 52.1057 98.8696 52.0888 99.2016V99.7796C52.0888 100.302 51.9706 100.631 51.7341 100.765C51.4976 100.901 51.1473 100.835 50.6875 100.568L49.2381 99.7315L49.2249 93.0052ZM50.508 96.5085C50.6919 96.618 50.832 96.6442 50.924 96.5873C51.0159 96.5304 51.0597 96.3727 51.0597 96.1187V95.7421C51.0683 95.5379 51.0308 95.3344 50.9503 95.1466C50.8688 94.9906 50.7442 94.8613 50.5912 94.7744L50.1533 94.5204V96.3027L50.508 96.5085ZM50.6744 99.6395C50.8364 99.7358 50.959 99.7534 51.0378 99.7008C51.1167 99.6483 51.1561 99.4994 51.1561 99.2629V98.6761C51.1684 98.4275 51.1203 98.1796 51.0159 97.9536C50.9127 97.7704 50.7613 97.6189 50.578 97.5157L50.1664 97.2792V99.3505L50.6744 99.6395Z" fill="white"/>
<path d="M52.6143 94.9626L53.5382 95.4969V102.241L52.6143 101.706V94.9626Z" fill="white"/>
<path d="M54.0419 101.588L55.7541 97.739L54.1251 96.7975V95.8341L56.7525 97.3493V98.2907L55.0403 102.14L56.7525 103.13V104.093L54.0506 102.53L54.0419 101.588Z" fill="white"/>
<g style="mix-blend-mode:multiply">
<path d="M76.7735 55.6519C73.2221 53.6025 70.3363 55.249 70.3363 59.3216C70.3363 63.3941 73.2221 68.3687 76.7735 70.4181C80.3249 72.4675 83.2063 70.8209 83.2063 66.7484C83.2063 62.6759 80.3424 57.7013 76.7735 55.6519Z" fill="#C7BCD6"/>
</g>
<path style="mix-blend-mode:screen" d="M83.1626 66.801C83.1626 62.7328 80.2768 57.7539 76.7254 55.7045C75.2934 54.8768 73.9666 54.6535 72.8937 54.9513C72.504 55.0607 64.2144 59.072 63.9035 59.2515C62.765 59.9259 62.0599 61.3447 62.0599 63.3547C62.0599 67.4272 64.9457 72.4062 68.4928 74.4556C70.078 75.3708 71.5318 75.5459 72.6529 75.0949C72.92 74.9898 81.0475 71.0749 81.3715 70.8735C82.4794 70.186 83.1626 68.7803 83.1626 66.801Z" fill="url(#paint18_linear_374_100)"/>
<path opacity="0.73" d="M75.8539 70.3261C75.8539 66.2536 72.9681 61.2746 69.4167 59.2252C67.9803 58.3976 66.6579 58.1743 65.585 58.472C64.8742 58.7306 64.1809 59.0349 63.5093 59.3829C62.3664 60.0573 61.6614 61.4761 61.6614 63.4861C61.6614 67.5586 64.5472 72.5375 68.0986 74.5869C69.6838 75.5022 71.1333 75.6773 72.2587 75.2307C72.5214 75.1212 73.7388 74.5957 74.0629 74.3943C75.1708 73.7067 75.8539 72.3011 75.8539 70.3261Z" fill="url(#paint19_linear_374_100)"/>
<path opacity="0.75" d="M63.3429 59.7551C62.3839 60.5696 61.6745 61.8658 61.7183 63.797C61.7971 67.7863 64.6347 72.5901 68.0986 74.5869C69.767 75.5503 71.304 75.7036 72.4032 75.0993C72.9897 74.7914 73.5584 74.4508 74.1066 74.079C75.0525 73.2776 75.7181 71.9727 75.6787 70.0721C75.5999 66.0828 72.7579 61.279 69.2984 59.2778C67.7789 58.402 66.382 58.2093 65.3135 58.6297C64.6251 58.9468 63.9658 59.3234 63.3429 59.7551Z" fill="url(#paint20_linear_374_100)"/>
<path opacity="0.78" d="M63.1722 60.1317C62.6807 60.6645 62.3029 61.2918 62.062 61.9755C61.8211 62.6591 61.722 63.3847 61.7709 64.1079C61.9329 68.0096 64.7223 72.6383 68.0986 74.5869C69.8502 75.6029 71.4705 75.7123 72.5477 74.9723C73.1095 74.6093 73.6438 74.2054 74.1461 73.7637C74.63 73.2344 75.0005 72.6118 75.2347 71.934C75.4689 71.2562 75.5619 70.5376 75.508 69.8225C75.3459 65.9164 72.5521 61.2878 69.1758 59.3391C67.5775 58.4151 66.1105 58.2531 65.0376 58.7961C64.3665 59.1681 63.7406 59.6163 63.1722 60.1317Z" fill="url(#paint21_linear_374_100)"/>
<path opacity="0.8" d="M63.0057 60.5039C62.1737 61.2922 61.692 62.6409 61.8234 64.4188C62.073 68.2373 64.8099 72.6908 68.0986 74.5869C69.9378 75.6511 71.6325 75.7167 72.6966 74.8409C73.2437 74.4215 73.7509 73.9524 74.2117 73.4396C75.0574 72.3293 75.4657 70.947 75.359 69.5554C75.1094 65.7369 72.3681 61.279 69.0795 59.3785C67.3979 58.4064 65.8565 58.2837 64.788 58.9406C64.3151 59.2252 63.2291 59.9916 63.0057 60.5039Z" fill="url(#paint22_linear_374_100)"/>
<path opacity="0.83" d="M62.8262 60.8761C62.0993 61.7038 61.7096 63.0306 61.8628 64.7297C62.2 68.4607 64.8844 72.739 68.0855 74.5869C70.0122 75.6992 71.777 75.708 72.828 74.7139C73.3498 74.2391 73.8169 73.7074 74.2205 73.1287C74.9406 71.9922 75.2668 70.6504 75.1489 69.3102C74.8161 65.5749 72.1273 61.2921 68.9262 59.4398C67.1746 58.4239 65.55 58.3407 64.4815 59.107C64.0217 59.4267 63.032 60.2543 62.8262 60.8761Z" fill="url(#paint23_linear_374_100)"/>
<path opacity="0.85" d="M62.6686 61.2484C62.0468 62.1242 61.7402 63.4379 61.9285 65.0406C62.3664 68.6884 64.9939 72.7915 68.0986 74.5869C70.1086 75.7474 71.9434 75.6992 72.9856 74.5869C73.4908 74.0619 73.925 73.473 74.2774 72.8353C74.8768 71.6794 75.1249 70.3733 74.9912 69.0781C74.5533 65.426 71.9259 61.3184 68.8168 59.5186C66.9732 58.4501 65.2916 58.4151 64.2188 59.2865C63.7327 59.6631 62.8262 60.5171 62.6686 61.2484Z" fill="url(#paint24_linear_374_100)"/>
<path opacity="0.88" d="M62.5022 61.6162C61.9225 62.7686 61.7393 64.08 61.9811 65.3471C62.4978 68.9117 65.0727 72.8353 68.1117 74.5826C70.2093 75.7956 72.1054 75.6861 73.1476 74.4512C73.6386 73.8624 74.0373 73.2024 74.33 72.4938C74.818 71.327 74.9917 70.0526 74.8336 68.7978C74.3212 65.2289 71.742 61.2965 68.7029 59.5449C66.7761 58.4326 65.0289 58.4414 63.9516 59.4223C63.4393 59.8865 62.6423 60.7842 62.5022 61.6162Z" fill="url(#paint25_linear_374_100)"/>
<path opacity="0.9" d="M62.3358 61.9972C61.9542 63.1794 61.8507 64.4337 62.0336 65.6624C62.6423 69.1394 65.1603 72.8879 68.0986 74.5869C70.2881 75.8481 72.2412 75.6773 73.279 74.3242C73.7617 73.679 74.1278 72.9543 74.3606 72.1829C74.7382 71.0102 74.8357 69.7654 74.6453 68.5482C74.041 65.045 71.523 61.3053 68.5759 59.6018C66.5659 58.4414 64.7618 58.5027 63.6758 59.6018C63.0463 60.2833 62.5871 61.1042 62.3358 61.9972Z" fill="url(#paint26_linear_374_100)"/>
<path opacity="0.93" d="M62.165 62.3694C61.8922 63.5528 61.8668 64.7797 62.0905 65.9733C62.7956 69.3671 65.2435 72.9404 68.0986 74.5869C70.367 75.9007 72.3857 75.6686 73.4279 74.1928C73.9023 73.4891 74.2341 72.699 74.4044 71.8676C74.6732 70.6939 74.697 69.4775 74.4745 68.2942C73.7739 64.8961 71.3172 61.3097 68.4577 59.6588C66.3645 58.4501 64.4946 58.5552 63.3999 59.742C62.7699 60.4975 62.3447 61.4022 62.165 62.3694Z" fill="url(#paint27_linear_374_100)"/>
<path opacity="0.95" d="M61.9986 62.7416C61.8282 63.9213 61.8772 65.1224 62.1431 66.2843C62.9488 69.5904 65.331 72.9886 68.0986 74.6045C70.4502 75.962 72.5302 75.6729 73.5724 74.0834C74.0439 73.3193 74.3428 72.4614 74.4482 71.5698C74.6154 70.4031 74.5665 69.2155 74.3037 68.0665C73.498 64.7516 71.1114 61.3403 68.3394 59.7463C66.1499 58.4895 64.2319 58.6472 63.1284 59.9346C62.498 60.747 62.1067 61.7191 61.9986 62.7416Z" fill="url(#paint28_linear_374_100)"/>
<path opacity="0.98" d="M61.8322 63.1138C61.7524 64.2938 61.8753 65.4786 62.1956 66.6171C63.1065 69.8357 65.4186 73.063 68.0986 74.6089C70.5377 76.0189 72.6703 75.6642 73.7169 73.9564C74.1891 73.1316 74.4537 72.2043 74.4876 71.2545C74.562 70.0952 74.4406 68.9316 74.1285 67.8126C73.2221 64.5808 70.9056 61.3403 68.2168 59.7858C65.9616 58.472 63.9691 58.691 62.8569 60.0792C62.2182 60.9648 61.8611 62.0223 61.8322 63.1138Z" fill="url(#paint29_linear_374_100)"/>
<path d="M68.0811 59.8208C64.5297 57.7714 61.6439 59.4179 61.6439 63.4861C61.6439 67.5542 64.5297 72.5376 68.0811 74.5869C71.6325 76.6363 74.514 74.9898 74.514 70.9173C74.514 66.8448 71.6457 61.8658 68.0811 59.8208Z" fill="url(#paint30_linear_374_100)"/>
<path style="mix-blend-mode:color-dodge" opacity="0.7" d="M68.4621 59.5405C67.0914 60.6003 67.7833 63.797 70.0122 66.6828C72.2412 69.5686 75.1576 71.0618 76.5326 69.9889C77.9077 68.9161 77.2114 65.7281 74.9825 62.8423C72.7535 59.9565 69.8327 58.4808 68.4621 59.5405Z" fill="url(#paint31_radial_374_100)"/>
<path d="M71.0807 71.688L70.2049 70.1947C70.1423 70.0552 70.0443 69.9345 69.9207 69.8447C69.797 69.7548 69.6519 69.6988 69.4999 69.6824L68.9569 68.7409C69.7583 67.9877 69.6794 66.2011 68.7117 64.537C67.6563 62.7153 65.9441 61.7257 64.8887 62.3475C63.8334 62.9693 63.8334 64.918 64.8887 66.7265C65.8565 68.3906 67.3673 69.354 68.4314 69.0474L68.9656 69.9714C68.9023 70.1125 68.8774 70.2679 68.8935 70.4217C68.9097 70.5756 68.9663 70.7224 69.0576 70.8472L69.9334 72.3449C70.1655 72.739 70.5333 72.9535 70.7654 72.8222L71.0763 72.6426C71.3128 72.4894 71.3128 72.0646 71.0807 71.688ZM68.0504 67.8169C67.3541 68.211 66.2287 67.5629 65.5325 66.3631C64.8362 65.1632 64.8362 63.867 65.5325 63.4685C66.2287 63.07 67.3541 63.7225 68.0504 64.9267C68.7467 66.131 68.7467 67.4009 68.0504 67.7994V67.8169Z" fill="white"/>
<g opacity="0.05">
<path d="M83.8762 99.5125L62.1649 87.4307L71.3478 110.399L74.3781 105.372L85.1593 117.598L89.2888 114.007L78.5119 101.781L83.8762 99.5125Z" fill="#25054D"/>
</g>
<g opacity="0.09">
<path d="M74.2905 105.026L71.3653 109.878L62.5722 87.8905L83.3596 99.4556L78.1835 101.641L88.7064 113.574L84.809 116.959L74.2905 105.026Z" fill="#25054D"/>
</g>
<g opacity="0.13">
<path d="M74.203 104.684L71.3872 109.352L62.9838 88.3459L82.8428 99.3943L77.8595 101.501L88.1196 113.14L84.4631 116.319L74.203 104.684Z" fill="#25054D"/>
</g>
<g opacity="0.17">
<path d="M74.111 104.338L71.4048 108.831L63.3911 88.8013L82.3261 99.3373L77.5311 101.36L87.5328 112.707L84.1128 115.68L74.111 104.338Z" fill="#25054D"/>
</g>
<g opacity="0.21">
<path d="M74.0234 103.992L71.4223 108.31L63.8027 89.2611L81.805 99.276L77.207 101.22L86.9504 112.273L83.7624 115.041L74.0234 103.992Z" fill="#25054D"/>
</g>
<g opacity="0.25">
<path d="M73.9315 103.646L71.4398 107.785L64.2144 89.7166L81.2883 99.2191L76.8786 101.08L86.3637 111.84L83.4122 114.401L73.9315 103.646Z" fill="#25054D"/>
</g>
<g opacity="0.3">
<path d="M73.8439 103.3L71.4573 107.263L64.6216 90.1764L80.7715 99.1578L76.5545 100.94L85.7768 111.402L83.0661 113.762L73.8439 103.3Z" fill="#25054D"/>
</g>
<g opacity="0.34">
<path d="M73.7563 102.959L71.4748 106.738L65.0333 90.6318L80.2548 99.1009L76.2305 100.8L85.1944 110.968L82.7159 113.123L73.7563 102.959Z" fill="#25054D"/>
</g>
<g opacity="0.38">
<path d="M73.6644 102.613L71.4924 106.217L65.4449 91.0872L79.7381 99.0396L75.9021 100.66L84.6076 110.535L82.3655 112.483L73.6644 102.613Z" fill="#25054D"/>
</g>
<g opacity="0.42">
<path d="M73.5768 102.267L71.5099 105.691L65.8522 91.547L79.217 98.9826L75.578 100.52L84.0252 110.101L82.0196 111.844L73.5768 102.267Z" fill="#25054D"/>
</g>
<g opacity="0.46">
<path d="M73.4892 101.921L71.5318 105.17L66.2638 92.0024L78.7003 98.9213L75.2496 100.38L83.4384 109.668L81.6693 111.205L73.4892 101.921Z" fill="#25054D"/>
</g>
<g opacity="0.5">
<path d="M73.3973 101.579L71.5493 104.645L66.6754 92.4579L78.1836 98.8644L74.9255 100.239L82.8516 109.234L81.319 110.565L73.3973 101.579Z" fill="#25054D"/>
</g>
<path d="M70.2269 107.066L66.8813 110.732C66.8422 110.774 66.7921 110.805 66.7366 110.82C66.681 110.836 66.6223 110.836 66.5669 110.82C66.5114 110.804 66.4615 110.773 66.4227 110.73C66.3839 110.688 66.3577 110.635 66.347 110.578L62.3358 88.9502L79.1557 103.257C79.2006 103.294 79.2339 103.344 79.2518 103.4C79.2696 103.456 79.2713 103.515 79.2567 103.572C79.242 103.629 79.2116 103.68 79.169 103.721C79.1263 103.761 79.0731 103.788 79.0156 103.8L74.1987 104.785L82.4576 119.03L78.4639 121.307L70.2269 107.066Z" fill="url(#paint32_linear_374_100)"/>
<path style="mix-blend-mode:color-dodge" d="M74.2118 104.785L79.0287 103.8C79.0863 103.788 79.1394 103.761 79.1821 103.721C79.2247 103.68 79.2551 103.629 79.2698 103.572C79.2844 103.515 79.2827 103.456 79.2649 103.4C79.247 103.344 79.2137 103.294 79.1689 103.257L62.3489 88.9502L62.6029 90.3165L78.0741 103.454C78.119 103.491 78.1523 103.541 78.1701 103.597C78.188 103.653 78.1897 103.712 78.175 103.769C78.1604 103.826 78.13 103.878 78.0873 103.918C78.0447 103.958 77.9915 103.985 77.934 103.997L74.2118 104.78C74.0877 104.806 73.9713 104.86 73.8725 104.939C73.7736 105.018 73.695 105.12 73.6432 105.236C73.5914 105.351 73.5679 105.477 73.5746 105.604C73.5814 105.73 73.6181 105.853 73.6819 105.963L81.3847 119.249L78.3193 121L78.4945 121.307L82.4882 119.03L74.2118 104.785Z" fill="url(#paint33_radial_374_100)"/>
<path d="M63.3167 90.6493L78.2054 103.296L74.7022 104.019C74.5323 104.054 74.3732 104.128 74.238 104.237C74.1027 104.345 73.9952 104.484 73.9242 104.643C73.8532 104.801 73.8208 104.974 73.8297 105.147C73.8386 105.32 73.8885 105.489 73.9753 105.639L81.5992 118.776L78.744 120.401L71.1157 107.237C71.0241 107.092 70.9002 106.97 70.7536 106.88C70.607 106.79 70.4417 106.736 70.2706 106.72H70.1567C70.0045 106.72 69.8538 106.751 69.7143 106.812C69.5748 106.873 69.4496 106.963 69.3466 107.075L66.8637 109.786L63.3167 90.6624V90.6493ZM61.6789 87.816L65.8915 110.635C65.9175 110.775 65.982 110.904 66.0776 111.009C66.1733 111.114 66.2963 111.19 66.4329 111.229C66.5695 111.268 66.7142 111.267 66.8506 111.228C66.9871 111.189 67.1099 111.113 67.2053 111.008L70.1305 107.802L78.3018 121.903L83.0574 119.192L74.8817 105.091L79.0593 104.216C79.1965 104.185 79.3226 104.118 79.4237 104.02C79.5248 103.923 79.597 103.799 79.6324 103.663C79.6677 103.527 79.6648 103.384 79.624 103.25C79.5831 103.116 79.5059 102.995 79.4009 102.902L61.6614 87.8117L61.6789 87.816Z" fill="url(#paint34_linear_374_100)"/>
<path d="M44.6532 90.1545L38.5225 86.4498V93.4563L44.6532 96.9595V90.1545Z" fill="white"/>
<path d="M44.6532 96.3421L38.794 92.9877V86.6074L38.5225 86.4498V93.4563L44.6532 96.9595V96.3421Z" fill="#A7A7D6"/>
<path d="M44.6532 78.1602L38.5225 74.4556V81.462L44.6532 84.9653V78.1602Z" fill="white"/>
<path d="M44.6532 84.3478L38.794 80.9891V74.6132L38.5225 74.4556V81.462L44.6532 84.9653V84.3478Z" fill="#A7A7D6"/>
<path d="M39.6173 78.6945L41.1587 82.0532L44.027 79.0404C44.1277 78.9353 44.0576 78.6682 43.8912 78.5193L43.0154 77.718C42.8972 77.6085 42.7745 77.5997 42.7176 77.6917L41.1631 80.3191L40.4668 78.6945C40.4428 78.6273 40.404 78.5664 40.3532 78.5164C40.3024 78.4663 40.2409 78.4284 40.1734 78.4055L39.7355 78.3179C39.5603 78.2872 39.499 78.4712 39.6173 78.6945Z" fill="#45108A"/>
<path d="M44.6532 65.7281L38.5225 62.0234V69.0299L44.6532 72.5332V65.7281Z" fill="white"/>
<path d="M44.6532 71.9157L38.794 68.557V62.1811L38.5225 62.0234V69.0299L44.6532 72.5332V71.9157Z" fill="#A7A7D6"/>
<path d="M44.6532 53.3617L38.5225 49.657V56.6635L44.6532 60.1667V53.3617Z" fill="white"/>
<path d="M44.6532 59.5493L38.794 56.1949V49.819L38.5225 49.657V56.6635L44.6532 60.1667V59.5493Z" fill="#A7A7D6"/>
<defs>
<linearGradient id="paint0_linear_374_100" x1="55.5308" y1="63.2277" x2="140.296" y2="63.2277" gradientUnits="userSpaceOnUse">
<stop stop-color="#6B24D6"/>
<stop offset="0.74" stop-color="#200657"/>
<stop offset="1" stop-color="#12054E"/>
</linearGradient>
<linearGradient id="paint1_linear_374_100" x1="51.6728" y1="49.5388" x2="56.1526" y2="65.5048" gradientUnits="userSpaceOnUse">
<stop stop-color="#671AB9"/>
<stop offset="0.39" stop-color="#AD34F1"/>
<stop offset="1" stop-color="#5513AB"/>
</linearGradient>
<linearGradient id="paint2_linear_374_100" x1="151.69" y1="5.722" x2="-46.2253" y2="112.51" gradientUnits="userSpaceOnUse">
<stop offset="0.01" stop-color="#9F19AB"/>
<stop offset="0.43" stop-color="#5F27BD"/>
<stop offset="0.9" stop-color="#3D065F"/>
</linearGradient>
<linearGradient id="paint3_linear_374_100" x1="-32.3568" y1="-37.508" x2="99.6978" y2="76.794" gradientUnits="userSpaceOnUse">
<stop offset="0.04" stop-color="#6B24D6"/>
<stop offset="0.32" stop-color="#7A1CD0"/>
<stop offset="0.86" stop-color="#A306C1"/>
<stop offset="0.98" stop-color="#AD00BD"/>
</linearGradient>
<radialGradient id="paint4_radial_374_100" cx="0" cy="0" r="1" gradientUnits="userSpaceOnUse" gradientTransform="translate(51.5283 36.3535) scale(82.659 82.659)">
<stop stop-color="#711F56"/>
<stop offset="0.16" stop-color="#6C1E52"/>
<stop offset="0.36" stop-color="#5C1946"/>
<stop offset="0.58" stop-color="#431233"/>
<stop offset="0.82" stop-color="#200918"/>
<stop offset="1"/>
</radialGradient>
<linearGradient id="paint5_linear_374_100" x1="29.9658" y1="25.8394" x2="64.3808" y2="91.4682" gradientUnits="userSpaceOnUse">
<stop offset="0.01" stop-color="#9F19AB"/>
<stop offset="0.43" stop-color="#5F27BD"/>
<stop offset="0.9" stop-color="#3D065F"/>
</linearGradient>
<linearGradient id="paint6_linear_374_100" x1="29.2958" y1="25.7999" x2="63.8903" y2="91.766" gradientUnits="userSpaceOnUse">
<stop offset="0.01" stop-color="#9F19AB"/>
<stop offset="0.43" stop-color="#5F27BD"/>
<stop offset="0.9" stop-color="#3D065F"/>
</linearGradient>
<linearGradient id="paint7_linear_374_100" x1="28.6347" y1="25.7649" x2="63.4" y2="92.0637" gradientUnits="userSpaceOnUse">
<stop offset="0.01" stop-color="#9F19AB"/>
<stop offset="0.43" stop-color="#5F27BD"/>
<stop offset="0.9" stop-color="#3D065F"/>
</linearGradient>
<linearGradient id="paint8_linear_374_100" x1="27.969" y1="25.7255" x2="62.9138" y2="92.3615" gradientUnits="userSpaceOnUse">
<stop offset="0.01" stop-color="#9F19AB"/>
<stop offset="0.43" stop-color="#5F27BD"/>
<stop offset="0.9" stop-color="#3D065F"/>
</linearGradient>
<linearGradient id="paint9_linear_374_100" x1="27.3034" y1="25.6905" x2="62.4234" y2="92.6593" gradientUnits="userSpaceOnUse">
<stop offset="0.01" stop-color="#9F19AB"/>
<stop offset="0.43" stop-color="#5F27BD"/>
<stop offset="0.9" stop-color="#3D065F"/>
</linearGradient>
<linearGradient id="paint10_linear_374_100" x1="26.6422" y1="25.6511" x2="61.9373" y2="92.9571" gradientUnits="userSpaceOnUse">
<stop offset="0.01" stop-color="#9F19AB"/>
<stop offset="0.43" stop-color="#5F27BD"/>
<stop offset="0.9" stop-color="#3D065F"/>
</linearGradient>
<linearGradient id="paint11_linear_374_100" x1="25.9765" y1="25.6117" x2="61.4512" y2="93.2505" gradientUnits="userSpaceOnUse">
<stop offset="0.01" stop-color="#9F19AB"/>
<stop offset="0.43" stop-color="#5F27BD"/>
<stop offset="0.9" stop-color="#3D065F"/>
</linearGradient>
<linearGradient id="paint12_linear_374_100" x1="25.3153" y1="25.5722" x2="60.9651" y2="93.5483" gradientUnits="userSpaceOnUse">
<stop offset="0.01" stop-color="#9F19AB"/>
<stop offset="0.43" stop-color="#5F27BD"/>
<stop offset="0.9" stop-color="#3D065F"/>
</linearGradient>
<linearGradient id="paint13_linear_374_100" x1="24.6541" y1="25.5328" x2="60.4791" y2="93.846" gradientUnits="userSpaceOnUse">
<stop offset="0.01" stop-color="#9F19AB"/>
<stop offset="0.43" stop-color="#5F27BD"/>
<stop offset="0.9" stop-color="#3D065F"/>
</linearGradient>
<linearGradient id="paint14_linear_374_100" x1="23.9929" y1="25.4934" x2="59.9974" y2="94.1394" gradientUnits="userSpaceOnUse">
<stop offset="0.01" stop-color="#9F19AB"/>
<stop offset="0.43" stop-color="#5F27BD"/>
<stop offset="0.9" stop-color="#3D065F"/>
</linearGradient>
<linearGradient id="paint15_linear_374_100" x1="23.336" y1="25.454" x2="59.5113" y2="94.4372" gradientUnits="userSpaceOnUse">
<stop offset="0.01" stop-color="#9F19AB"/>
<stop offset="0.43" stop-color="#5F27BD"/>
<stop offset="0.9" stop-color="#3D065F"/>
</linearGradient>
<linearGradient id="paint16_linear_374_100" x1="77.1238" y1="126.746" x2="17.2228" y2="9.72008" gradientUnits="userSpaceOnUse">
<stop offset="0.03" stop-color="#7C1DC9"/>
<stop offset="0.21" stop-color="#6E41D2"/>
<stop offset="0.62" stop-color="#4C9BE8"/>
<stop offset="1" stop-color="#2AF6FF"/>
</linearGradient>
<linearGradient id="paint17_linear_374_100" x1="61.1972" y1="103.191" x2="26.7428" y2="35.8718" gradientUnits="userSpaceOnUse">
<stop offset="0.03" stop-color="#7C1DC9"/>
<stop offset="0.21" stop-color="#6E41D2"/>
<stop offset="0.62" stop-color="#4C9BE8"/>
<stop offset="1" stop-color="#2AF6FF"/>
</linearGradient>
<linearGradient id="paint18_linear_374_100" x1="64.1006" y1="69.6167" x2="80.0272" y2="61.1214" gradientUnits="userSpaceOnUse">
<stop stop-color="#DC3DAA"/>
<stop offset="0.07" stop-color="#BD3492"/>
<stop offset="0.2" stop-color="#8B276B"/>
<stop offset="0.33" stop-color="#601B4A"/>
<stop offset="0.46" stop-color="#3E1130"/>
<stop offset="0.59" stop-color="#230A1B"/>
<stop offset="0.72" stop-color="#0F040C"/>
<stop offset="0.86" stop-color="#040103"/>
<stop offset="1"/>
</linearGradient>
<linearGradient id="paint19_linear_374_100" x1="61.6614" y1="66.9061" x2="75.8539" y2="66.9061" gradientUnits="userSpaceOnUse">
<stop offset="0.04" stop-color="#7428D3"/>
<stop offset="0.32" stop-color="#8322CE"/>
<stop offset="0.87" stop-color="#AC13C3"/>
<stop offset="0.98" stop-color="#B510C0"/>
<stop offset="1" stop-color="#B510C0"/>
</linearGradient>
<linearGradient id="paint20_linear_374_100" x1="61.7139" y1="66.9367" x2="75.6831" y2="66.9367" gradientUnits="userSpaceOnUse">
<stop offset="0.04" stop-color="#7827CF"/>
<stop offset="0.31" stop-color="#8723CC"/>
<stop offset="0.84" stop-color="#B01AC4"/>
<stop offset="0.98" stop-color="#BC17C1"/>
<stop offset="1" stop-color="#BC18C1"/>
</linearGradient>
<linearGradient id="paint21_linear_374_100" x1="61.7621" y1="66.9674" x2="75.5123" y2="66.9674" gradientUnits="userSpaceOnUse">
<stop offset="0.04" stop-color="#7C25CC"/>
<stop offset="0.3" stop-color="#8B24CA"/>
<stop offset="0.82" stop-color="#B420C4"/>
<stop offset="0.98" stop-color="#C21FC2"/>
<stop offset="1" stop-color="#C21FC3"/>
</linearGradient>
<linearGradient id="paint22_linear_374_100" x1="61.8059" y1="66.9937" x2="75.3503" y2="66.9937" gradientUnits="userSpaceOnUse">
<stop offset="0.04" stop-color="#8024C8"/>
<stop offset="0.29" stop-color="#8F24C7"/>
<stop offset="0.79" stop-color="#B826C5"/>
<stop offset="0.98" stop-color="#C926C4"/>
<stop offset="1" stop-color="#C927C4"/>
</linearGradient>
<linearGradient id="paint23_linear_374_100" x1="61.8409" y1="67.0199" x2="75.1883" y2="67.0199" gradientUnits="userSpaceOnUse">
<stop offset="0.04" stop-color="#8423C4"/>
<stop offset="0.29" stop-color="#9325C4"/>
<stop offset="0.77" stop-color="#BC2BC5"/>
<stop offset="0.98" stop-color="#CF2EC5"/>
<stop offset="1" stop-color="#D02EC5"/>
</linearGradient>
<linearGradient id="paint24_linear_374_100" x1="61.876" y1="67.0462" x2="75.035" y2="67.0462" gradientUnits="userSpaceOnUse">
<stop offset="0.04" stop-color="#8821C1"/>
<stop offset="0.28" stop-color="#9725C2"/>
<stop offset="0.75" stop-color="#C02FC5"/>
<stop offset="0.98" stop-color="#D635C6"/>
<stop offset="1" stop-color="#D736C6"/>
</linearGradient>
<linearGradient id="paint25_linear_374_100" x1="61.8979" y1="67.0725" x2="74.8861" y2="67.0725" gradientUnits="userSpaceOnUse">
<stop offset="0.04" stop-color="#8B20BD"/>
<stop offset="0.27" stop-color="#9A26BF"/>
<stop offset="0.73" stop-color="#C334C4"/>
<stop offset="0.98" stop-color="#DC3DC7"/>
<stop offset="1" stop-color="#DD3DC8"/>
</linearGradient>
<linearGradient id="paint26_linear_374_100" x1="61.9373" y1="67.0988" x2="74.746" y2="67.0988" gradientUnits="userSpaceOnUse">
<stop offset="0.04" stop-color="#8F1EBA"/>
<stop offset="0.26" stop-color="#9E25BD"/>
<stop offset="0.71" stop-color="#C737C3"/>
<stop offset="0.98" stop-color="#E344C8"/>
<stop offset="1" stop-color="#E445C9"/>
</linearGradient>
<linearGradient id="paint27_linear_374_100" x1="61.9329" y1="67.125" x2="74.6278" y2="67.125" gradientUnits="userSpaceOnUse">
<stop offset="0.04" stop-color="#931DB6"/>
<stop offset="0.26" stop-color="#A225B9"/>
<stop offset="0.69" stop-color="#CB3BC2"/>
<stop offset="0.98" stop-color="#E94CC9"/>
<stop offset="1" stop-color="#EB4CCA"/>
</linearGradient>
<linearGradient id="paint28_linear_374_100" x1="61.9022" y1="67.1513" x2="74.5446" y2="67.1513" gradientUnits="userSpaceOnUse">
<stop offset="0.04" stop-color="#971CB2"/>
<stop offset="0.25" stop-color="#A626B6"/>
<stop offset="0.68" stop-color="#CF3EC2"/>
<stop offset="0.98" stop-color="#F053CB"/>
<stop offset="1" stop-color="#F254CB"/>
</linearGradient>
<linearGradient id="paint29_linear_374_100" x1="61.8103" y1="67.1776" x2="74.5095" y2="67.1776" gradientUnits="userSpaceOnUse">
<stop offset="0.04" stop-color="#9B1AAF"/>
<stop offset="0.25" stop-color="#AA25B4"/>
<stop offset="0.66" stop-color="#D342C1"/>
<stop offset="0.98" stop-color="#F65BCC"/>
<stop offset="1" stop-color="#F85BCD"/>
</linearGradient>
<linearGradient id="paint30_linear_374_100" x1="61.6614" y1="67.2039" x2="74.5315" y2="67.2039" gradientUnits="userSpaceOnUse">
<stop offset="0.04" stop-color="#9F19AB"/>
<stop offset="0.24" stop-color="#AE25B1"/>
<stop offset="0.65" stop-color="#D744BF"/>
<stop offset="1" stop-color="#FF63CE"/>
</linearGradient>
<radialGradient id="paint31_radial_374_100" cx="0" cy="0" r="1" gradientUnits="userSpaceOnUse" gradientTransform="translate(71.1605 67.9521) rotate(-127.493) scale(6.59139 3.16682)">
<stop stop-color="white"/>
<stop offset="0.01" stop-color="#F7F7F7"/>
<stop offset="0.1" stop-color="#BEBEBE"/>
<stop offset="0.19" stop-color="#8B8B8B"/>
<stop offset="0.29" stop-color="#606060"/>
<stop offset="0.38" stop-color="#3E3E3E"/>
<stop offset="0.48" stop-color="#232323"/>
<stop offset="0.57" stop-color="#0F0F0F"/>
<stop offset="0.67" stop-color="#040404"/>
<stop offset="0.77"/>
</radialGradient>
<linearGradient id="paint32_linear_374_100" x1="82.8429" y1="122.034" x2="62.8438" y2="92.1075" gradientUnits="userSpaceOnUse">
<stop stop-color="#D1B4E3"/>
<stop offset="0.27" stop-color="#DBC4E9"/>
<stop offset="0.79" stop-color="#F4EDF8"/>
<stop offset="1" stop-color="white"/>
</linearGradient>
<radialGradient id="paint33_radial_374_100" cx="0" cy="0" r="1" gradientUnits="userSpaceOnUse" gradientTransform="translate(72.4076 105.126) scale(13.4743 13.4743)">
<stop stop-color="white"/>
<stop offset="1"/>
</radialGradient>
<linearGradient id="paint34_linear_374_100" x1="63.5838" y1="70.51" x2="74.9693" y2="115.614" gradientUnits="userSpaceOnUse">
<stop stop-color="#25054D"/>
<stop offset="1" stop-color="#45108A"/>
</linearGradient>
</defs>
</svg>
