<svg width="127" height="127" viewBox="0 0 127 127" fill="none" xmlns="http://www.w3.org/2000/svg">
<path d="M106.824 110.609L88.5142 121.241V66.3124L106.824 55.6812V110.609Z" fill="#7F4D31"/>
<path d="M106.824 55.6811L88.5142 66.3124L19.2142 26.3468L37.7204 15.7155L106.824 55.6811Z" fill="#C99666"/>
<path d="M88.5142 121.241L19.2142 81.2749V26.3468L88.5142 66.3124V121.241Z" fill="#996B3E"/>
<path d="M88.5142 88.3624L19.2142 48.5937V45.4437L88.5142 85.2124V88.3624Z" fill="#7F4D31"/>
<path d="M56.2267 74.5811L51.5017 71.8249C50.5173 71.2343 49.7298 69.6593 49.7298 68.2811V60.603C49.7298 59.2249 50.5173 58.6343 51.5017 59.2249L56.2267 61.9811C57.2111 62.5718 57.9985 64.1468 57.9985 65.5249V73.203C57.9985 74.5811 57.2111 75.1718 56.2267 74.5811Z" fill="#F3AE00"/>
<path d="M55.0454 70.053L52.8798 68.6749V63.9499L55.0454 65.1311V70.053Z" fill="#F08700"/>
<path d="M54.2579 28.5124L57.6048 26.5437C55.8329 27.528 54.6517 29.8905 54.6517 33.0405L51.3048 35.0093C51.3048 31.8593 52.4861 29.4968 54.2579 28.5124ZM52.0923 24.7718L55.4392 22.803C57.8017 21.4249 61.1486 21.6218 64.8892 23.7874L61.5423 25.7562C57.8017 23.5905 54.4548 23.3937 52.0923 24.7718Z" fill="#F6D13A"/>
<path d="M61.5423 25.7561C68.8267 29.8905 74.733 40.128 74.733 48.3968L71.583 46.8218C71.583 40.3249 67.0548 32.4499 61.3455 29.2999C55.6361 26.1499 51.108 28.7093 51.108 35.2061L48.1548 33.4343C48.3517 24.9686 54.258 21.6218 61.5423 25.7561Z" fill="#F3AE00"/>
<path d="M61.5423 25.7562L64.8892 23.7874C72.1735 27.9218 78.0798 38.1593 78.0798 46.428L74.7329 48.3968C74.7329 40.128 68.8267 29.8905 61.5423 25.7562Z" fill="#F6D13A"/>
<path d="M51.108 90.1343L54.4548 88.1655C54.6517 88.3624 54.8486 88.3624 55.0455 88.5593L51.6986 90.528C51.5017 90.3312 51.3048 90.3312 51.108 90.1343ZM63.9048 88.1655L60.558 90.1343C57.9986 91.5124 54.8486 92.4968 51.5017 90.7249L54.8486 88.7562C58.1955 90.528 61.5423 89.5437 63.9048 88.1655ZM65.283 86.1968L68.6298 84.228C69.0236 85.0155 75.5205 100.372 82.2142 104.112L78.8673 106.081C72.1736 102.341 65.6767 86.9843 65.283 86.1968Z" fill="#69C3FA"/>
<path d="M79.2611 106.475C79.2611 107.262 77.2923 122.422 65.0861 123.406C63.3142 121.044 61.7392 118.681 60.3611 116.516C58.7861 113.956 57.6048 111.397 56.4236 109.034C52.0923 99.1906 51.3048 90.9218 51.108 90.3312C51.3048 90.5281 51.5017 90.5281 51.6986 90.7249C58.3923 94.4656 64.8892 86.7874 65.283 86.3937C65.4798 86.7874 67.2517 90.9218 69.8111 95.4499C71.1892 97.8124 72.7642 100.175 74.5361 102.341C75.9142 103.916 77.2923 105.491 78.8673 106.278C78.8673 106.278 79.0642 106.278 79.2611 106.475Z" fill="#419AE8"/>
<path d="M75.7173 105.884C75.9142 105.884 75.9142 106.081 76.1111 106.081C76.1111 106.672 74.5361 118.287 65.0861 119.272C55.8329 107.656 54.2579 94.2686 54.2579 93.678C54.4548 93.678 54.4548 93.8749 54.6517 93.8749C59.7704 96.828 64.8892 90.9218 65.0861 90.528C65.4798 91.1186 70.5986 102.931 75.7173 105.884Z" fill="#3376BF"/>
<path d="M73.9454 105.687C74.1423 105.687 74.1423 105.884 74.3392 105.884C74.3392 106.475 72.9611 116.122 65.2829 116.712C57.6048 107.065 56.4236 95.8436 56.2267 95.4499C56.4236 95.4499 56.4236 95.6467 56.6204 95.6467C60.9517 98.0092 65.0861 93.0874 65.2829 92.8905C65.4798 93.4811 69.6142 103.128 73.9454 105.687Z" fill="#419AE8"/>
<path d="M78.8673 106.081L82.2142 104.112C82.4111 104.309 82.6079 104.309 82.8048 104.309L79.4579 106.278C79.0642 106.278 78.8673 106.278 78.8673 106.081ZM73.9454 119.862L70.5986 121.831C77.8829 117.697 79.2611 107.262 79.2611 106.475L82.6079 104.506C82.4111 105.097 81.0329 115.531 73.9454 119.862Z" fill="#69C3FA"/>
<path opacity="0.4" d="M74.5361 102.144L60.3611 116.319C58.7861 113.759 57.6048 111.2 56.4236 108.837L69.8111 95.4499C71.1892 97.8124 72.7642 100.175 74.5361 102.144Z" fill="white"/>
</svg>
