<svg width="219" height="84" viewBox="0 0 219 84" fill="none" xmlns="http://www.w3.org/2000/svg">
<path d="M27.9818 11.7146L3 54.9971H52.6732" stroke="white" stroke-width="3" stroke-linecap="round"/>
<path d="M17.0884 62.2918L67.0631 62.2855L42.2265 19.2672" stroke="white" stroke-width="3" stroke-linecap="round"/>
<path d="M66.7728 46.2761L41.78 3.00001L16.9434 46.0182" stroke="white" stroke-width="3" stroke-linecap="round"/>
<path d="M89.0329 46.0071C88.6035 40.7058 88.3889 36.6365 88.3889 33.7991C88.3889 32.8658 88.3982 32.1938 88.4169 31.7831C88.4542 30.7191 88.7902 29.8511 89.4249 29.1791C90.0595 28.4885 90.8622 28.1431 91.8329 28.1431C91.9822 28.1431 92.2062 28.1618 92.5049 28.1991C93.2515 26.6125 94.1195 25.3525 95.1089 24.4191C96.0982 23.4858 97.1155 23.0191 98.1609 23.0191C99.3182 23.0191 100.252 23.3925 100.961 24.1391C101.689 24.8858 102.305 25.9778 102.809 27.4151C103.238 28.7031 103.602 29.5991 103.901 30.1031C104.2 30.6071 104.554 30.8591 104.965 30.8591H105.133L105.357 32.9591L105.133 35.0311H104.965C104.386 35.0311 103.845 34.8818 103.341 34.5831C102.856 34.2658 102.436 33.8271 102.081 33.2671C101.95 33.5845 101.764 33.8831 101.521 34.1631C101.297 34.4245 101.045 34.6298 100.765 34.7791C100.336 35.0405 99.8502 35.1711 99.3089 35.1711C98.5995 35.1711 97.6755 34.9565 96.5369 34.5271C95.3982 34.0791 93.9049 33.3698 92.0569 32.3991C91.9822 32.3618 91.9262 32.3431 91.8889 32.3431C91.7582 32.3431 91.6929 32.4271 91.6929 32.5951C91.6555 34.8165 91.8702 38.4471 92.3369 43.4871C92.3555 43.8605 92.3835 44.1965 92.4209 44.4951C92.4582 44.7938 92.4769 45.0365 92.4769 45.2231L89.0329 46.0071ZM95.3049 29.5991C96.1822 30.1778 96.9942 30.6165 97.7409 30.9151C98.4875 31.2138 99.0942 31.4005 99.5609 31.4751C100.046 31.5498 100.345 31.5685 100.457 31.5311C100.476 31.4191 100.485 31.2418 100.485 30.9991C100.485 30.4205 100.392 29.8045 100.205 29.1511C100.018 28.4791 99.7382 27.9191 99.3649 27.4711C98.9915 27.0045 98.5529 26.7711 98.0489 26.7711C97.6382 26.7711 97.2089 27.0045 96.7609 27.4711C96.3129 27.9378 95.8275 28.6471 95.3049 29.5991ZM104.848 30.8591H105.044C106.724 30.8591 107.975 30.7751 108.796 30.6071C109.618 30.4205 110.159 30.1498 110.42 29.7951C110.682 29.4405 110.812 28.9271 110.812 28.2551C110.812 27.7138 110.719 26.8271 110.532 25.5951L113.416 25.0351C113.678 26.3978 113.808 27.9378 113.808 29.6551C113.883 29.9725 114.088 30.2525 114.424 30.4951C114.76 30.7378 115.246 30.8591 115.88 30.8591H116.048L116.272 32.9591L116.048 35.0311H115.88C115.134 35.0311 114.443 34.8538 113.808 34.4991C113.174 34.1445 112.632 33.6778 112.184 33.0991C111.643 33.7898 110.822 34.2845 109.72 34.5831C108.619 34.8818 107.06 35.0311 105.044 35.0311H104.848V30.8591ZM107.06 18.3431L109.412 20.6951L107.06 23.0751L104.68 20.6951L107.06 18.3431ZM111.988 18.3431L114.34 20.6951L111.988 23.0751L109.608 20.6951L111.988 18.3431ZM138.718 35.0311C137.225 35.0311 136.002 34.4151 135.05 33.1831C134.602 33.7618 134.07 34.2098 133.454 34.5271C132.838 34.8445 132.185 35.0125 131.494 35.0311H131.41H131.326C130.468 35.0125 129.73 34.7978 129.114 34.3871C128.498 33.9765 128.022 33.3978 127.686 32.6511C126.641 34.2191 125.4 35.0125 123.962 35.0311H123.822C123.02 35.0311 122.32 34.8165 121.722 34.3871C121.125 33.9578 120.705 33.3885 120.462 32.6791C119.865 33.4445 119.174 34.0325 118.39 34.4431C117.625 34.8351 116.804 35.0311 115.926 35.0311H115.842L115.618 32.9591L115.842 30.8591H115.982C116.561 30.8591 117.13 30.7378 117.69 30.4951C118.25 30.2338 118.67 29.9165 118.95 29.5431C119.342 29.0951 119.641 28.5911 119.846 28.0311C120.052 27.4711 120.238 26.8738 120.406 26.2391L123.318 26.5471C123.3 26.6405 123.197 27.0138 123.01 27.6671C122.824 28.3018 122.73 28.8805 122.73 29.4031C122.73 30.3738 123.122 30.8591 123.906 30.8591H123.962C124.933 30.8591 125.68 30.3458 126.202 29.3191C126.632 28.4605 126.94 27.3685 127.126 26.0431L130.038 26.1831C129.964 26.4818 129.889 26.9111 129.814 27.4711C129.758 28.0125 129.73 28.4605 129.73 28.8151C129.73 30.1778 130.29 30.8591 131.41 30.8591C131.858 30.8591 132.278 30.7751 132.67 30.6071C133.081 30.4391 133.398 30.2245 133.622 29.9631C133.454 29.2725 133.202 28.0125 132.866 26.1831L135.75 25.3991C135.974 26.5938 136.152 27.5085 136.282 28.1431C136.413 28.7778 136.534 29.2538 136.646 29.5711C136.796 30.0005 137.029 30.3271 137.346 30.5511C137.682 30.7565 138.14 30.8591 138.718 30.8591H138.886L139.11 32.9591L138.886 35.0311H138.718ZM138.59 30.8591H138.786C140.466 30.8591 141.717 30.7751 142.538 30.6071C143.36 30.4205 143.901 30.1498 144.162 29.7951C144.424 29.4405 144.554 28.9271 144.554 28.2551C144.554 27.7138 144.461 26.8271 144.274 25.5951L147.158 25.0351C147.42 26.3978 147.55 27.9378 147.55 29.6551C147.625 29.9725 147.83 30.2525 148.166 30.4951C148.502 30.7378 148.988 30.8591 149.622 30.8591H149.79L150.014 32.9591L149.79 35.0311H149.622C148.876 35.0311 148.185 34.8538 147.55 34.4991C146.916 34.1445 146.374 33.6778 145.926 33.0991C145.385 33.7898 144.564 34.2845 143.462 34.5831C142.361 34.8818 140.802 35.0311 138.786 35.0311H138.59V30.8591ZM138.562 37.3831L139.346 38.1671L140.942 39.7631L138.562 42.1151L136.21 39.7631L138.562 37.3831ZM143.49 37.3831L144.274 38.1671L145.87 39.7631L143.49 42.1151L141.138 39.7631L143.49 37.3831ZM165.097 35.0311C164.238 35.0125 163.491 34.7978 162.857 34.3871C162.241 33.9765 161.765 33.3978 161.429 32.6511C160.383 34.2191 159.142 35.0125 157.705 35.0311H157.565C156.762 35.0311 156.062 34.8165 155.465 34.3871C154.867 33.9578 154.447 33.3885 154.205 32.6791C153.607 33.4445 152.917 34.0325 152.133 34.4431C151.367 34.8351 150.546 35.0311 149.669 35.0311H149.585L149.361 32.9591L149.585 30.8591H149.725C150.303 30.8591 150.873 30.7378 151.433 30.4951C151.993 30.2338 152.413 29.9165 152.693 29.5431C153.085 29.0951 153.383 28.5911 153.589 28.0311C153.794 27.4711 153.981 26.8738 154.149 26.2391L157.061 26.5471C157.042 26.6405 156.939 27.0138 156.753 27.6671C156.566 28.3018 156.473 28.8805 156.473 29.4031C156.473 30.3738 156.865 30.8591 157.649 30.8591H157.705C158.675 30.8591 159.422 30.3458 159.945 29.3191C160.374 28.4605 160.682 27.3685 160.869 26.0431L163.781 26.1831C163.706 26.4818 163.631 26.9111 163.557 27.4711C163.501 28.0125 163.473 28.4605 163.473 28.8151C163.473 30.1778 164.033 30.8591 165.153 30.8591H165.181C165.741 30.8591 166.17 30.7005 166.469 30.3831C166.786 30.0658 166.945 29.6551 166.945 29.1511C166.945 28.6471 166.749 27.8445 166.357 26.7431C165.983 25.6418 165.666 24.8018 165.405 24.2231L168.289 22.6551C168.643 23.4205 169.017 24.4751 169.409 25.8191C169.801 27.1445 169.997 28.3111 169.997 29.3191C169.997 30.3458 169.791 31.2978 169.381 32.1751C168.989 33.0338 168.429 33.7245 167.701 34.2471C166.973 34.7698 166.151 35.0311 165.237 35.0311H165.097ZM184.523 35.0311C182.47 35.0311 180.986 34.4431 180.071 33.2671C179.175 32.0911 178.727 30.2991 178.727 27.8911C178.708 25.5951 178.634 23.2711 178.503 20.9191C178.391 18.5485 178.223 16.5978 177.999 15.0671L181.471 14.3111C181.658 15.6738 181.807 17.5218 181.919 19.8551C182.031 22.1698 182.087 24.3165 182.087 26.2951V27.3591C182.068 28.3111 182.115 29.0298 182.227 29.5151C182.339 30.0005 182.563 30.3458 182.899 30.5511C183.254 30.7565 183.795 30.8591 184.523 30.8591H184.663L184.887 32.9591L184.663 35.0311H184.523ZM184.391 30.8591H184.587C186.267 30.8591 187.518 30.7751 188.339 30.6071C189.161 30.4205 189.702 30.1498 189.963 29.7951C190.225 29.4405 190.355 28.9271 190.355 28.2551C190.355 27.7138 190.262 26.8271 190.075 25.5951L192.959 25.0351C193.221 26.3978 193.351 27.9378 193.351 29.6551C193.426 29.9725 193.631 30.2525 193.967 30.4951C194.303 30.7378 194.789 30.8591 195.423 30.8591H195.591L195.815 32.9591L195.591 35.0311H195.423C194.677 35.0311 193.986 34.8538 193.351 34.4991C192.717 34.1445 192.175 33.6778 191.727 33.0991C191.186 33.7898 190.365 34.2845 189.263 34.5831C188.162 34.8818 186.603 35.0311 184.587 35.0311H184.391V30.8591ZM186.603 18.3431L188.955 20.6951L186.603 23.0751L184.223 20.6951L186.603 18.3431ZM191.531 18.3431L193.883 20.6951L191.531 23.0751L189.151 20.6951L191.531 18.3431ZM195.301 30.8591H196.169C197.14 30.8591 197.84 30.6631 198.269 30.2711C198.717 29.8791 198.941 29.2725 198.941 28.4511C198.923 27.1631 198.811 24.8951 198.605 21.6471C198.419 18.3805 198.251 16.1871 198.101 15.0671L201.601 14.3111C201.732 15.4125 201.872 17.6805 202.021 21.1151C202.189 24.5311 202.273 26.9018 202.273 28.2271C202.273 29.4965 202.012 30.6538 201.489 31.6991C200.985 32.7258 200.276 33.5378 199.361 34.1351C198.447 34.7325 197.411 35.0311 196.253 35.0311H195.301V30.8591ZM210.65 35.1711C209.026 35.1711 207.673 34.9285 206.59 34.4431C205.508 33.9391 204.668 33.4351 204.07 32.9311L205.582 29.9911C206.254 30.3271 206.945 30.6165 207.654 30.8591C208.364 31.1018 209.232 31.2231 210.258 31.2231C211.266 31.2045 212.088 31.0925 212.722 30.8871C213.376 30.6631 213.805 30.4205 214.01 30.1591C214.029 30.1218 214.038 30.0471 214.038 29.9351C214.038 29.5431 213.861 29.0298 213.506 28.3951C213.17 27.7418 212.564 26.9765 211.686 26.0991C210.828 25.2031 209.67 24.2605 208.214 23.2711L210.23 19.6031C212.396 21.1338 214.104 22.8045 215.354 24.6151C216.624 26.4258 217.258 28.1525 217.258 29.7951C217.258 30.5791 217.109 31.2978 216.81 31.9511C216.362 32.9965 215.569 33.7991 214.43 34.3591C213.292 34.9005 212.032 35.1711 210.65 35.1711Z" fill="white"/>
</svg>
