<svg width="38" height="44" viewBox="0 0 38 44" fill="none" xmlns="http://www.w3.org/2000/svg">
<g clip-path="url(#clip0_374_4643)">
<path d="M37.1763 40.2601C33.6495 43.1053 31.997 43.179 28.522 40.6461C22.0158 35.9738 17.5665 29.4769 14.1432 22.3381C14.0717 22.2299 13.9286 22.1782 13.7511 22.0184C11.778 24.1357 9.80492 26.2382 7.91078 28.4121C6.40631 33.3844 5.62695 38.8411 4.37405 43.9241C4.08249 43.9423 3.79007 43.9423 3.4985 43.9241C-0.341588 43.0856 -0.324322 43.0856 0.889116 39.3821C3.72047 30.7507 9.42758 5.31118 10.054 3.38815C10.054 3.35372 10.1576 3.07093 10.2686 2.67993C10.3179 2.50779 10.3574 2.35534 10.3919 2.22992C10.4264 2.10451 10.4659 1.9963 10.5128 1.87335C10.5744 1.71105 10.6385 1.56104 10.7051 1.42579C10.7407 1.34375 10.7872 1.26683 10.8433 1.19709C10.9127 1.10895 10.996 1.03255 11.0899 0.970843C11.1596 0.954475 11.2305 0.943798 11.302 0.938888C11.5942 0.931737 11.8811 1.0179 12.1208 1.1848C11.1022 8.0949 10.1009 14.9878 8.9935 22.5791C14.3578 16.8862 17.4777 10.2392 19.944 2.9701C20.1586 2.29385 21.0687 1.31513 21.5348 1.36923C23.2119 1.60039 22.3906 2.89879 22.0873 3.68325C20.3609 8.10965 18.6221 12.5705 16.6934 16.9157C16.0867 18.2338 15.9954 19.1781 16.6564 20.4421C19.3176 25.5546 22.5756 30.2023 26.946 33.9942C27.5182 34.5107 28.1249 34.9385 29.0004 35.6345C29.0177 35.6345 29.0177 35.6517 29.035 35.6517C29.3926 35.9542 30.0708 36.3894 30.5 36.6845L30.4827 36.7017L30.537 36.7558C30.5739 36.7687 30.6053 36.7939 30.6257 36.8271C30.643 36.8271 30.6603 36.8271 30.6603 36.8443C30.6973 36.8616 30.7318 36.8985 30.7688 36.9157C30.7948 36.9307 30.8188 36.9489 30.8403 36.9698C30.8854 36.986 30.9272 37.0101 30.9636 37.0411C30.9834 37.0411 31.0006 37.0583 31.0179 37.0755C31.0745 37.1067 31.1281 37.1429 31.1782 37.1837C33.3264 38.2829 35.2378 39.2789 37.1763 40.2601Z" fill="#D72638"/>
</g>
<defs>
<clipPath id="clip0_374_4643">
<rect width="37" height="43" fill="white" transform="translate(0.168945 0.943848)"/>
</clipPath>
</defs>
</svg>
