<svg width="450" height="345" viewBox="0 0 450 345" fill="none" xmlns="http://www.w3.org/2000/svg">
<g clip-path="url(#clip0_156_2)">
<path d="M132.526 116L180.511 88.8279C180.896 88.669 181.23 88.4091 181.476 88.0766C181.722 87.7442 181.869 87.3519 181.903 86.9426V82.1885C181.863 82.5961 181.713 82.9857 181.468 83.3172C181.224 83.6487 180.893 83.9099 180.511 84.0738L132.498 111.26C131.482 111.765 130.359 112.028 129.219 112.028C128.08 112.028 126.956 111.765 125.94 111.26L78.2618 84.0738C77.8837 83.9192 77.555 83.6677 77.31 83.3456C77.065 83.0236 76.9128 82.6428 76.8694 82.2432V86.9836C76.9099 87.3841 77.0609 87.7662 77.3063 88.0888C77.5517 88.4113 77.882 88.6621 78.2618 88.8142L125.954 116C126.97 116.514 128.097 116.782 129.24 116.782C130.383 116.782 131.51 116.514 132.526 116Z" fill="#F38FE4"/>
<path d="M132.498 111.26C131.482 111.765 130.358 112.028 129.219 112.028C128.079 112.028 126.956 111.765 125.94 111.26L78.2617 84.0738C76.4654 83.0492 76.4793 81.3415 78.2617 80.3579L126.246 53.1722C127.26 52.667 128.381 52.4037 129.518 52.4037C130.655 52.4037 131.777 52.667 132.791 53.1722L180.469 80.3579C182.279 81.3825 182.251 83.0902 180.469 84.0875L132.498 111.26Z" fill="url(#paint0_linear_156_2)"/>
<path d="M133.306 87.1202C132.072 86.4921 130.974 85.6336 130.075 84.5929C129.542 83.9644 129.212 83.1937 129.128 82.3798C129.14 81.464 129.223 80.5505 129.379 79.6476C129.602 78.5138 129.554 77.3449 129.24 76.2323C128.731 75.103 127.82 74.1946 126.678 73.6776C124.912 72.7075 122.907 72.2347 120.885 72.3115C118.94 72.2897 117.021 72.7602 115.315 73.6776C114.65 73.9604 114.063 74.3959 113.605 74.9475C113.147 75.499 112.831 76.1505 112.683 76.847C112.652 77.5096 112.759 78.1716 112.999 78.7919C113.238 79.4123 113.605 79.9778 114.076 80.4536L108.242 81.6557C107.452 80.7593 106.901 79.6843 106.64 78.5273C106.372 77.2036 106.589 75.8295 107.253 74.6476C108.244 73.014 109.695 71.6955 111.43 70.8497C114.49 69.1511 117.928 68.213 121.442 68.1175C124.92 67.9784 128.366 68.8072 131.384 70.5082C132.659 71.165 133.793 72.0554 134.726 73.1312C135.343 73.8591 135.747 74.7371 135.896 75.6721C136.011 76.6616 136.011 77.6608 135.896 78.6503C135.8 79.462 135.754 80.2785 135.757 81.0956C135.823 81.774 136.105 82.4146 136.564 82.9262C137.327 83.7792 138.242 84.4876 139.266 85.0164L141.424 86.2322L136.606 88.9645L133.306 87.1202ZM145.309 93.6366C144.302 93.7001 143.298 93.4822 142.413 93.0082C142.085 92.8748 141.807 92.6462 141.615 92.3532C141.423 92.0602 141.327 91.7167 141.34 91.3689C141.42 90.999 141.588 90.6528 141.83 90.3585C142.072 90.0641 142.381 89.8299 142.733 89.6749C143.63 89.1779 144.641 88.9145 145.671 88.9098C146.641 88.8758 147.603 89.0976 148.456 89.5519C149.282 90.0164 149.672 90.5492 149.626 91.1503C149.626 91.7514 149.124 92.3115 148.233 92.817C147.339 93.3155 146.336 93.5966 145.309 93.6366Z" fill="white"/>
</g>
<g clip-path="url(#clip1_156_2)">
<path d="M205.599 306.98L250.76 280.973C251.124 280.821 251.438 280.572 251.669 280.254C251.9 279.935 252.039 279.56 252.071 279.168V274.618C252.034 275.008 251.892 275.381 251.662 275.698C251.432 276.016 251.12 276.266 250.76 276.422L205.572 302.443C204.616 302.927 203.559 303.179 202.486 303.179C201.414 303.179 200.356 302.927 199.4 302.443L154.526 276.422C154.171 276.274 153.861 276.034 153.63 275.725C153.4 275.417 153.257 275.053 153.216 274.67V279.207C153.254 279.591 153.396 279.957 153.627 280.265C153.858 280.574 154.169 280.814 154.526 280.96L199.413 306.98C200.369 307.472 201.43 307.729 202.506 307.729C203.582 307.729 204.642 307.472 205.599 306.98Z" fill="#D60000"/>
<path d="M205.572 302.443C204.616 302.927 203.558 303.179 202.486 303.179C201.414 303.179 200.356 302.927 199.4 302.443L154.526 276.422C152.836 275.442 152.849 273.807 154.526 272.866L199.688 246.845C200.642 246.362 201.697 246.109 202.768 246.109C203.838 246.109 204.893 246.362 205.848 246.845L250.721 272.866C252.425 273.846 252.398 275.481 250.721 276.435L205.572 302.443Z" fill="url(#paint1_linear_156_2)"/>
<path d="M206.333 279.338C205.171 278.737 204.138 277.915 203.292 276.919C202.79 276.318 202.479 275.58 202.401 274.801C202.411 273.924 202.49 273.05 202.637 272.186C202.846 271.101 202.801 269.982 202.506 268.917C202.027 267.836 201.17 266.967 200.094 266.472C198.432 265.543 196.546 265.091 194.642 265.164C192.811 265.143 191.006 265.594 189.4 266.472C188.774 266.742 188.222 267.159 187.791 267.687C187.36 268.215 187.062 268.839 186.923 269.505C186.893 270.139 186.994 270.773 187.22 271.367C187.445 271.961 187.79 272.502 188.234 272.957L182.743 274.108C181.999 273.25 181.481 272.221 181.235 271.114C180.983 269.847 181.187 268.531 181.812 267.4C182.745 265.837 184.11 264.575 185.744 263.765C188.624 262.139 191.859 261.241 195.167 261.15C198.44 261.017 201.684 261.81 204.524 263.438C205.724 264.067 206.791 264.919 207.669 265.949C208.249 266.645 208.63 267.486 208.77 268.381C208.879 269.328 208.879 270.284 208.77 271.231C208.68 272.008 208.636 272.79 208.639 273.572C208.701 274.221 208.967 274.834 209.399 275.324C210.117 276.14 210.979 276.818 211.942 277.325L213.973 278.488L209.439 281.103L206.333 279.338ZM217.63 285.575C216.682 285.636 215.737 285.427 214.904 284.974C214.595 284.846 214.333 284.627 214.153 284.347C213.972 284.066 213.882 283.738 213.894 283.405C213.97 283.051 214.128 282.719 214.355 282.438C214.583 282.156 214.874 281.932 215.205 281.783C216.049 281.308 217.001 281.056 217.97 281.051C218.883 281.019 219.788 281.231 220.591 281.666C221.369 282.11 221.736 282.62 221.692 283.196C221.692 283.771 221.22 284.307 220.382 284.791C219.54 285.268 218.597 285.537 217.63 285.575Z" fill="white"/>
</g>
<g clip-path="url(#clip2_156_2)">
<path d="M336.488 281.476L367.537 264.008C367.787 263.906 368.003 263.739 368.162 263.525C368.321 263.311 368.416 263.059 368.438 262.796V259.74C368.412 260.002 368.315 260.252 368.157 260.465C367.998 260.678 367.784 260.846 367.537 260.952L336.47 278.428C335.813 278.753 335.086 278.922 334.348 278.922C333.611 278.922 332.884 278.753 332.227 278.428L301.376 260.952C301.131 260.852 300.919 260.691 300.76 260.483C300.602 260.276 300.503 260.032 300.475 259.775V262.822C300.501 263.08 300.599 263.325 300.758 263.533C300.917 263.74 301.13 263.901 301.376 263.999L332.236 281.476C332.893 281.806 333.622 281.978 334.362 281.978C335.102 281.978 335.831 281.806 336.488 281.476Z" fill="#FFD900"/>
<path d="M336.47 278.428C335.812 278.753 335.086 278.922 334.348 278.922C333.611 278.922 332.884 278.753 332.226 278.428L301.376 260.952C300.214 260.293 300.223 259.195 301.376 258.563L332.425 241.086C333.081 240.761 333.806 240.592 334.542 240.592C335.278 240.592 336.003 240.761 336.659 241.086L367.51 258.563C368.681 259.221 368.663 260.319 367.51 260.96L336.47 278.428Z" fill="url(#paint2_linear_156_2)"/>
<path d="M336.993 262.91C336.194 262.506 335.484 261.954 334.902 261.285C334.557 260.881 334.344 260.386 334.29 259.863C334.297 259.274 334.351 258.687 334.452 258.106C334.596 257.377 334.565 256.626 334.362 255.911C334.033 255.185 333.443 254.601 332.704 254.268C331.561 253.645 330.264 253.341 328.956 253.39C327.697 253.376 326.456 253.679 325.352 254.268C324.921 254.45 324.542 254.73 324.245 255.085C323.949 255.439 323.745 255.858 323.649 256.306C323.628 256.732 323.698 257.157 323.853 257.556C324.008 257.955 324.245 258.318 324.55 258.624L320.775 259.397C320.264 258.821 319.908 258.13 319.739 257.386C319.565 256.535 319.705 255.652 320.135 254.892C320.777 253.842 321.715 252.994 322.838 252.45C324.818 251.358 327.042 250.755 329.316 250.694C331.566 250.605 333.797 251.137 335.749 252.231C336.574 252.653 337.308 253.225 337.912 253.917C338.311 254.385 338.572 254.949 338.669 255.55C338.743 256.187 338.743 256.829 338.669 257.465C338.607 257.987 338.577 258.512 338.579 259.037C338.621 259.473 338.804 259.885 339.101 260.214C339.595 260.762 340.187 261.218 340.849 261.557L342.246 262.339L339.128 264.096L336.993 262.91ZM344.76 267.099C344.108 267.14 343.458 267 342.885 266.695C342.673 266.609 342.493 266.462 342.369 266.274C342.245 266.086 342.183 265.865 342.192 265.641C342.243 265.403 342.352 265.181 342.509 264.992C342.665 264.802 342.865 264.652 343.093 264.552C343.673 264.233 344.327 264.063 344.994 264.06C345.621 264.039 346.244 264.181 346.796 264.473C347.33 264.772 347.583 265.114 347.553 265.501C347.553 265.887 347.228 266.247 346.652 266.572C346.073 266.893 345.424 267.073 344.76 267.099Z" fill="white"/>
</g>
<g clip-path="url(#clip3_156_2)">
<path d="M397.471 217.961L441.423 193.118C441.777 192.972 442.083 192.735 442.308 192.431C442.532 192.127 442.668 191.768 442.699 191.394V187.047C442.662 187.42 442.525 187.776 442.301 188.079C442.076 188.382 441.773 188.621 441.423 188.771L397.446 213.627C396.515 214.089 395.486 214.329 394.442 214.329C393.398 214.329 392.369 214.089 391.438 213.627L347.767 188.771C347.421 188.63 347.119 188.4 346.895 188.105C346.671 187.811 346.531 187.463 346.491 187.097V191.431C346.529 191.798 346.667 192.147 346.892 192.442C347.116 192.737 347.419 192.966 347.767 193.105L391.451 217.961C392.382 218.431 393.414 218.676 394.461 218.676C395.508 218.676 396.54 218.431 397.471 217.961Z" fill="#089970"/>
<path d="M397.446 213.627C396.515 214.089 395.486 214.329 394.442 214.329C393.398 214.329 392.369 214.089 391.438 213.627L347.767 188.771C346.122 187.834 346.134 186.273 347.767 185.374L391.719 160.518C392.648 160.056 393.675 159.815 394.716 159.815C395.758 159.815 396.785 160.056 397.714 160.518L441.385 185.374C443.043 186.31 443.018 187.872 441.385 188.784L397.446 213.627Z" fill="url(#paint3_linear_156_2)"/>
<path d="M398.186 191.556C397.055 190.982 396.05 190.197 395.226 189.246C394.738 188.671 394.436 187.966 394.359 187.222C394.369 186.385 394.446 185.55 394.589 184.724C394.793 183.688 394.749 182.619 394.461 181.602C393.996 180.569 393.161 179.739 392.114 179.266C390.497 178.379 388.661 177.947 386.809 178.017C385.027 177.997 383.269 178.427 381.707 179.266C381.097 179.524 380.56 179.923 380.141 180.427C379.721 180.931 379.431 181.527 379.296 182.164C379.267 182.77 379.365 183.375 379.585 183.942C379.804 184.509 380.14 185.026 380.572 185.461L375.227 186.56C374.504 185.741 374 184.758 373.761 183.7C373.515 182.49 373.714 181.233 374.322 180.153C375.23 178.659 376.558 177.454 378.148 176.68C380.951 175.127 384.099 174.27 387.319 174.182C390.504 174.055 393.661 174.813 396.425 176.368C397.593 176.969 398.632 177.783 399.486 178.766C400.051 179.432 400.421 180.235 400.558 181.09C400.663 181.994 400.663 182.908 400.558 183.812C400.47 184.555 400.428 185.301 400.43 186.048C400.491 186.668 400.75 187.254 401.17 187.722C401.869 188.502 402.707 189.149 403.644 189.633L405.621 190.744L401.208 193.243L398.186 191.556ZM409.18 197.514C408.258 197.572 407.338 197.373 406.527 196.94C406.227 196.818 405.972 196.609 405.796 196.341C405.621 196.073 405.533 195.759 405.545 195.441C405.618 195.103 405.772 194.786 405.993 194.517C406.215 194.248 406.498 194.034 406.82 193.892C407.642 193.438 408.568 193.197 409.512 193.193C410.4 193.161 411.281 193.364 412.062 193.78C412.819 194.204 413.176 194.691 413.134 195.241C413.134 195.791 412.675 196.303 411.858 196.765C411.04 197.221 410.121 197.478 409.18 197.514Z" fill="white"/>
</g>
<line x1="320.199" y1="84.4532" x2="408.209" y2="33.3166" stroke="#00A8E8" stroke-width="3"/>
<line y1="-1.5" x2="61.4003" y2="-1.5" transform="matrix(-0.863188 -0.504883 -0.504883 0.863188 407.783 34.4039)" stroke="#00A8E8" stroke-width="3"/>
<line y1="-1.5" x2="101.788" y2="-1.5" transform="matrix(-0.864645 -0.502383 -0.502383 0.864645 88.8872 344.352)" stroke="#00A8E8" stroke-width="3"/>
<line x1="1.29907" y1="291.711" x2="54.2991" y2="260.711" stroke="#00A8E8" stroke-width="3"/>
<g clip-path="url(#clip4_156_2)">
<path d="M177.276 122.393L177.233 138.069L159.767 148.257L159.81 132.582L177.276 122.393Z" fill="#00559C"/>
<path d="M202.65 137.102L202.606 152.777L177.233 138.069L177.276 122.393L202.65 137.102Z" fill="#0081ED"/>
<path d="M209.706 132.987L209.662 148.656L202.606 152.777L202.65 137.102L209.706 132.987Z" fill="#00559C"/>
<path d="M182.053 145.476L182.009 161.151L174.941 165.273L174.991 149.597L182.053 145.476Z" fill="#00559C"/>
<path d="M174.991 149.597L174.941 165.272L152.698 152.378L152.741 136.703L174.991 149.597Z" fill="#0081ED"/>
<path d="M152.742 136.703L152.698 152.378L129.393 165.977L129.437 150.302L152.742 136.703Z" fill="#00559C"/>
<path d="M129.437 150.302L129.393 165.977L121.983 161.681L122.026 146.006L129.437 150.302Z" fill="#0081ED"/>
<path d="M209.706 132.987L202.65 137.102L177.276 122.393L159.81 132.582L182.053 145.476L174.991 149.597L152.742 136.703L129.437 150.302L122.026 146.006L176.922 113.982L209.706 132.987Z" fill="#80C5FF"/>
<path d="M221.352 156.063L221.309 171.738L193.078 178.691L193.122 163.015L221.352 156.063Z" fill="#FFA600"/>
<path d="M184.066 165.185L184.022 180.86L163.711 185.867L163.754 170.192L184.066 165.185Z" fill="#FFA600"/>
<path d="M163.754 170.192L163.711 185.867L156.375 181.615L156.419 165.94L163.754 170.192Z" fill="#FFD500"/>
<path d="M205.321 177.506L205.277 193.175L184.022 180.86L184.065 165.185L205.321 177.506Z" fill="#FFD500"/>
<path d="M205.184 194.204L205.141 209.872L196.575 204.916L196.619 189.24L205.184 194.204Z" fill="#FFD500"/>
<path d="M238.204 146.848L238.16 162.523L205.141 209.872L205.184 194.204L238.204 146.848Z" fill="#FFA600"/>
<path d="M238.204 146.848L205.184 194.235L196.625 189.247L205.321 177.512L184.078 165.185L163.767 170.173L156.431 165.921L237.763 146.592L238.204 146.848ZM193.122 163.015L209.172 172.318L221.346 156.063L193.115 163.015H193.122Z" fill="#FFED66"/>
<path d="M294.485 196.903L294.441 212.572C294.434 211.092 294.115 209.63 293.503 208.282C292.211 205.373 289.681 202.818 285.913 200.619C281.821 198.324 277.327 196.842 272.677 196.255C267.67 195.531 262.583 195.575 257.589 196.386C252.982 197.068 248.538 198.592 244.477 200.881C240.75 203.068 238.199 205.624 236.825 208.551C236.158 209.936 235.804 211.452 235.787 212.99L235.831 197.315C235.852 195.777 236.206 194.262 236.868 192.875C238.222 189.966 240.773 187.411 244.521 185.212C248.579 182.918 253.024 181.394 257.633 180.717C262.626 179.901 267.713 179.855 272.72 180.58C277.371 181.167 281.865 182.649 285.956 184.944C289.733 187.131 292.263 189.685 293.547 192.607C294.161 193.956 294.481 195.421 294.485 196.903Z" fill="#00559C"/>
<path d="M225.247 212.61L225.29 196.935C225.3 199.06 225.788 201.155 226.719 203.064C228.566 207.017 232.038 210.471 237.135 213.427C239.188 214.605 241.334 215.612 243.551 216.438L243.508 232.113C241.291 231.287 239.145 230.28 237.092 229.102C231.998 226.146 228.524 222.692 226.669 218.739C225.744 216.828 225.258 214.734 225.247 212.61Z" fill="#0081ED"/>
<path d="M304.826 197.196L304.783 212.872C304.761 214.901 304.326 216.904 303.503 218.758C301.773 222.76 298.4 226.223 293.385 229.145C289.209 231.525 284.698 233.257 280.006 234.283C274.913 235.443 269.699 235.979 264.478 235.879L264.521 220.204C269.742 220.304 274.957 219.768 280.049 218.608C284.743 217.588 289.255 215.855 293.429 213.47C298.439 210.56 301.812 207.1 303.547 203.089C304.369 201.233 304.805 199.228 304.826 197.196Z" fill="#00559C"/>
<path d="M268.391 230.835L268.347 246.51L243.508 232.113L243.552 216.438L268.391 230.835Z" fill="#0081ED"/>
<path d="M275.602 226.633L275.559 242.301L268.347 246.51L268.391 230.835L275.602 226.633Z" fill="#00559C"/>
<path d="M264.521 220.204L275.602 226.633L268.397 230.835L243.551 216.438C241.334 215.612 239.188 214.605 237.135 213.426C232.042 210.475 228.57 207.021 226.719 203.064C225.809 201.227 225.323 199.208 225.297 197.157C225.271 195.106 225.706 193.076 226.57 191.217C228.325 187.26 231.785 183.776 236.949 180.767C241.963 177.857 247.895 175.878 254.744 174.831C261.561 173.792 268.494 173.775 275.316 174.781C281.615 175.599 287.701 177.614 293.248 180.717C298.292 183.627 301.702 187.089 303.478 191.105C304.354 192.982 304.813 195.028 304.825 197.102C304.837 199.175 304.401 201.226 303.547 203.114C301.82 207.108 298.447 210.569 293.429 213.495C289.255 215.88 284.743 217.613 280.049 218.633C274.955 219.785 269.741 220.312 264.521 220.204ZM257.552 213.738C262.533 214.474 267.597 214.43 272.565 213.607C277.213 212.908 281.694 211.361 285.789 209.043C289.515 206.857 292.066 204.302 293.441 201.38C294.111 200.019 294.468 198.524 294.486 197.006C294.504 195.488 294.183 193.985 293.547 192.607C292.255 189.698 289.724 187.143 285.956 184.944C281.865 182.649 277.37 181.167 272.72 180.58C267.713 179.855 262.625 179.901 257.632 180.717C253.023 181.396 248.578 182.922 244.52 185.219C240.794 187.401 238.243 189.955 236.868 192.882C236.199 194.248 235.846 195.748 235.834 197.27C235.823 198.792 236.152 200.297 236.8 201.673C238.116 204.608 240.659 207.168 244.427 209.355C248.487 211.633 252.941 213.114 257.552 213.72V213.738Z" fill="#80C5FF"/>
</g>
<g clip-path="url(#clip5_156_2)">
<path d="M52.5743 137.686L9.29844 110.833C8.62716 110.436 7.88401 110.179 7.11278 110.077C6.34155 109.975 5.55784 110.029 4.80782 110.237C4.0578 110.445 3.35664 110.803 2.74566 111.288C2.13467 111.774 1.62622 112.378 1.25026 113.065C0.862945 113.769 0.622894 114.545 0.544968 115.346C0.467043 116.147 0.552901 116.956 0.797228 117.722C1.04155 118.488 1.43915 119.196 1.9654 119.801C2.49165 120.405 3.13536 120.895 3.85667 121.239L46.3929 141.666L52.5743 137.686Z" fill="#DADADA"/>
<path d="M94.3298 165.421C100.576 161.767 103.693 157.029 103.681 152.238V147.322C103.681 152.09 100.576 156.863 94.3298 160.506C81.9082 167.737 61.8436 167.737 49.5101 160.506C43.3815 156.911 40.3113 152.214 40.2996 147.505V152.421C40.2996 157.13 43.3756 161.826 49.5042 165.421C61.8436 172.653 81.9082 172.659 94.3298 165.421Z" fill="#DADADA"/>
<path d="M94.3239 160.5C106.734 153.28 106.787 141.547 94.4589 134.316C82.1313 127.084 62.0607 127.084 49.6509 134.316C37.2411 141.547 37.1648 153.268 49.4924 160.506C61.82 167.743 81.8965 167.743 94.3239 160.5ZM52.4569 135.956C63.3111 129.637 80.8457 129.631 91.6353 135.956C102.425 142.282 102.366 152.54 91.512 158.847C80.6578 165.155 63.1056 165.173 52.3102 158.847C41.5147 152.522 41.591 142.288 52.4569 135.956Z" fill="#999999"/>
<path d="M91.5119 158.859C80.6519 165.185 63.1055 165.185 52.3159 158.859C41.5263 152.534 41.5909 142.276 52.451 135.956C63.311 129.637 80.8515 129.637 91.6352 135.956C102.419 142.276 102.372 152.54 91.5119 158.859Z" fill="url(#paint4_linear_156_2)"/>
<path d="M53.1436 138.876C63.9978 132.551 81.5383 132.551 92.3279 138.876C96.0438 141.056 98.4389 143.703 99.5836 146.493C99.249 142.649 96.6073 138.864 91.5941 135.927C80.8103 129.601 63.2699 129.601 52.4157 135.927C45.295 140.073 42.8471 145.906 45.025 151.213C44.6376 146.783 47.3262 142.264 53.1436 138.876Z" fill="#333333"/>
<g style="mix-blend-mode:screen">
<path d="M86.1994 153.286C78.568 157.716 66.2932 157.716 58.7381 153.286C51.1831 148.856 51.2183 141.672 58.8321 137.236C66.4458 132.8 78.7324 132.806 86.2875 137.236C93.8425 141.666 93.8073 148.856 86.1994 153.286Z" fill="#7AA8F0"/>
</g>
</g>
<g clip-path="url(#clip6_156_2)">
<path d="M290.825 144.648L352.116 110.101C352.608 109.899 353.035 109.569 353.349 109.146C353.662 108.723 353.851 108.224 353.894 107.704V101.66C353.844 102.178 353.652 102.673 353.339 103.095C353.026 103.516 352.604 103.848 352.116 104.057L290.789 138.621C289.491 139.264 288.056 139.599 286.6 139.599C285.145 139.599 283.71 139.264 282.412 138.621L221.512 104.057C221.029 103.86 220.609 103.54 220.296 103.131C219.983 102.721 219.789 102.237 219.734 101.729V107.756C219.785 108.265 219.978 108.751 220.292 109.161C220.605 109.571 221.027 109.89 221.512 110.084L282.43 144.648C283.728 145.302 285.167 145.643 286.627 145.643C288.088 145.643 289.527 145.302 290.825 144.648Z" fill="#007AA8"/>
<path d="M290.789 138.621C289.491 139.264 288.056 139.599 286.6 139.599C285.145 139.599 283.71 139.264 282.412 138.621L221.512 104.057C219.218 102.754 219.236 100.583 221.512 99.3321L282.803 64.7673C284.098 64.125 285.53 63.7903 286.983 63.7903C288.435 63.7903 289.867 64.125 291.163 64.7673L352.062 99.3321C354.374 100.635 354.339 102.806 352.062 104.074L290.789 138.621Z" fill="url(#paint5_linear_156_2)"/>
<path d="M291.821 107.93C290.244 107.131 288.843 106.04 287.694 104.717C287.013 103.918 286.592 102.938 286.485 101.903C286.499 100.738 286.606 99.577 286.805 98.4289C287.089 96.9875 287.029 95.5013 286.627 94.0866C285.978 92.6508 284.814 91.4959 283.355 90.8385C281.099 89.6051 278.539 89.004 275.956 89.1016C273.471 89.074 271.02 89.6722 268.841 90.8385C267.991 91.1981 267.242 91.7518 266.657 92.4531C266.072 93.1544 265.668 93.9827 265.48 94.8682C265.439 95.7107 265.576 96.5523 265.882 97.341C266.188 98.1298 266.656 98.8488 267.258 99.4537L259.806 100.982C258.797 99.8425 258.094 98.4756 257.76 97.0046C257.418 95.3217 257.695 93.5745 258.543 92.0718C259.809 89.9949 261.662 88.3184 263.879 87.2431C267.787 85.0834 272.178 83.8907 276.667 83.7693C281.109 83.5925 285.512 84.6462 289.366 86.8089C290.994 87.6439 292.443 88.776 293.635 90.1438C294.422 91.0694 294.938 92.1857 295.129 93.3745C295.276 94.6325 295.276 95.9029 295.129 97.161C295.007 98.193 294.947 99.2312 294.951 100.27C295.036 101.133 295.397 101.947 295.983 102.598C296.957 103.682 298.126 104.583 299.433 105.255L302.19 106.801L296.036 110.275L291.821 107.93ZM307.152 116.215C305.867 116.296 304.584 116.019 303.453 115.416C303.034 115.246 302.679 114.956 302.434 114.583C302.189 114.211 302.067 113.774 302.083 113.332C302.186 112.861 302.4 112.421 302.709 112.047C303.018 111.673 303.413 111.375 303.862 111.178C305.007 110.546 306.299 110.211 307.615 110.205C308.854 110.162 310.082 110.444 311.172 111.022C312.227 111.612 312.725 112.29 312.666 113.054C312.666 113.818 312.026 114.53 310.887 115.173C309.746 115.807 308.465 116.164 307.152 116.215Z" fill="white"/>
</g>
<g clip-path="url(#clip7_156_2)">
<path d="M88.2225 278.65L146.288 245.655C146.754 245.462 147.159 245.147 147.456 244.743C147.753 244.339 147.932 243.863 147.973 243.366V237.593C147.925 238.088 147.743 238.561 147.447 238.964C147.15 239.366 146.75 239.683 146.288 239.882L88.1888 272.894C86.9588 273.507 85.5994 273.827 84.2206 273.827C82.8418 273.827 81.4823 273.507 80.2524 272.894L22.558 239.882C22.1005 239.695 21.7027 239.389 21.4062 238.998C21.1097 238.607 20.9256 238.145 20.873 237.659V243.416C20.9221 243.902 21.1048 244.366 21.4017 244.758C21.6986 245.149 22.0984 245.454 22.558 245.639L80.2693 278.65C81.4989 279.274 82.8624 279.6 84.2459 279.6C85.6293 279.6 86.9928 279.274 88.2225 278.65Z" fill="#B8512B"/>
<path d="M88.1887 272.894C86.9588 273.507 85.5994 273.827 84.2205 273.827C82.8417 273.827 81.4823 273.507 80.2524 272.894L22.558 239.882C20.3844 238.638 20.4012 236.565 22.558 235.37L80.6231 202.359C81.85 201.745 83.2067 201.426 84.5828 201.426C85.9589 201.426 87.3156 201.745 88.5426 202.359L146.237 235.37C148.427 236.614 148.394 238.688 146.237 239.899L88.1887 272.894Z" fill="url(#paint6_linear_156_2)"/>
<path d="M89.1661 243.582C87.6725 242.819 86.3446 241.776 85.2569 240.513C84.6111 239.75 84.2121 238.814 84.1111 237.825C84.1245 236.713 84.2259 235.604 84.4144 234.508C84.6838 233.131 84.6261 231.712 84.2459 230.361C83.6307 228.989 82.5282 227.886 81.1455 227.258C79.0088 226.08 76.583 225.506 74.1359 225.6C71.7818 225.573 69.4605 226.144 67.3959 227.258C66.5907 227.602 65.8811 228.131 65.3269 228.8C64.7727 229.47 64.3901 230.261 64.2113 231.107C64.173 231.912 64.3027 232.715 64.5926 233.469C64.8824 234.222 65.3261 234.909 65.8963 235.486L58.8361 236.946C57.8802 235.858 57.2143 234.552 56.8984 233.147C56.5736 231.54 56.8362 229.871 57.6398 228.436C58.8395 226.453 60.5946 224.852 62.6948 223.825C66.3976 221.762 70.557 220.623 74.8099 220.507C79.018 220.338 83.1889 221.344 86.8408 223.41C88.3831 224.207 89.7559 225.289 90.8848 226.595C91.6307 227.479 92.1197 228.545 92.3002 229.68C92.4395 230.882 92.4395 232.095 92.3002 233.297C92.1844 234.282 92.1281 235.274 92.1317 236.266C92.2117 237.09 92.5537 237.868 93.109 238.489C94.0318 239.525 95.1398 240.385 96.3779 241.027L98.9896 242.503L93.1595 245.821L89.1661 243.582ZM103.691 251.494C102.473 251.571 101.257 251.307 100.186 250.731C99.7894 250.569 99.4526 250.292 99.2207 249.936C98.9888 249.58 98.8729 249.163 98.8885 248.741C98.9853 248.292 99.1883 247.871 99.4811 247.514C99.7739 247.156 100.148 246.872 100.574 246.684C101.659 246.08 102.883 245.76 104.129 245.755C105.303 245.713 106.467 245.983 107.499 246.534C108.499 247.098 108.97 247.745 108.914 248.475C108.914 249.205 108.308 249.885 107.229 250.499C106.148 251.105 104.934 251.446 103.691 251.494Z" fill="white"/>
</g>
<defs>
<linearGradient id="paint0_linear_156_2" x1="108.268" y1="63.5347" x2="164.363" y2="95.1596" gradientUnits="userSpaceOnUse">
<stop stop-color="#D8B7F7"/>
<stop offset="1" stop-color="#90D0FD"/>
</linearGradient>
<linearGradient id="paint1_linear_156_2" x1="182.768" y1="256.763" x2="235.987" y2="286.267" gradientUnits="userSpaceOnUse">
<stop stop-color="#FF9712"/>
<stop offset="1" stop-color="#FF9999"/>
</linearGradient>
<linearGradient id="paint2_linear_156_2" x1="320.792" y1="247.748" x2="356.974" y2="268.28" gradientUnits="userSpaceOnUse">
<stop stop-color="#F3AE00"/>
<stop offset="1" stop-color="#F08700"/>
</linearGradient>
<linearGradient id="paint3_linear_156_2" x1="375.252" y1="169.992" x2="426.587" y2="198.987" gradientUnits="userSpaceOnUse">
<stop stop-color="#73BD1E"/>
<stop offset="1" stop-color="#ABDA32"/>
</linearGradient>
<linearGradient id="paint4_linear_156_2" x1="44.2678" y1="147.411" x2="99.6893" y2="147.411" gradientUnits="userSpaceOnUse">
<stop stop-color="#95C9FF"/>
<stop offset="1" stop-color="#4D8BFF"/>
</linearGradient>
<linearGradient id="paint5_linear_156_2" x1="259.84" y1="77.9426" x2="331.33" y2="118.434" gradientUnits="userSpaceOnUse">
<stop stop-color="#1CC0F3"/>
<stop offset="1" stop-color="#1A92CD"/>
</linearGradient>
<linearGradient id="paint6_linear_156_2" x1="58.8688" y1="214.942" x2="126.861" y2="253.142" gradientUnits="userSpaceOnUse">
<stop stop-color="#F38FE4"/>
<stop offset="1" stop-color="#F4656A"/>
</linearGradient>
<clipPath id="clip0_156_2">
<rect width="119" height="70" fill="white" transform="translate(69.8931 52.3934)"/>
</clipPath>
<clipPath id="clip1_156_2">
<rect width="112" height="67" fill="white" transform="translate(146.65 246.1)"/>
</clipPath>
<clipPath id="clip2_156_2">
<rect width="77" height="45" fill="white" transform="translate(295.961 240.586)"/>
</clipPath>
<clipPath id="clip3_156_2">
<rect width="109" height="64" fill="white" transform="translate(340.102 159.806)"/>
</clipPath>
<clipPath id="clip4_156_2">
<rect width="222" height="139" fill="white" transform="translate(112.461 113.982)"/>
</clipPath>
<clipPath id="clip5_156_2">
<rect width="106" height="64" fill="white" transform="translate(0.52832 110.039)"/>
</clipPath>
<clipPath id="clip6_156_2">
<rect width="152" height="89" fill="white" transform="translate(210.823 63.7773)"/>
</clipPath>
<clipPath id="clip7_156_2">
<rect width="144" height="85" fill="white" transform="translate(12.4312 201.413)"/>
</clipPath>
</defs>
</svg>
