<svg width="31" height="31" viewBox="0 0 31 31" fill="none" xmlns="http://www.w3.org/2000/svg">
<path d="M16.2629 27.8122C15.836 27.5882 15.4092 27.3612 14.9823 27.1371C13.956 26.5952 12.9328 26.0533 11.9065 25.5115C10.6623 24.8545 9.41502 24.1976 8.17078 23.5376C7.0991 22.9715 6.02439 22.4054 4.95272 21.8393C4.43201 21.5638 3.91434 21.2792 3.38758 21.0128C3.38152 21.0098 3.37244 21.0037 3.36639 21.0007C3.61766 21.4367 3.8659 21.8726 4.11717 22.3085C4.11717 21.8544 4.11717 21.4033 4.11717 20.9492C4.11717 19.8685 4.11717 18.7847 4.11717 17.7039C4.11717 16.3961 4.11717 15.0883 4.11717 13.7775C4.11717 12.6422 4.11717 11.507 4.11717 10.3687C4.11717 9.8177 4.12625 9.26673 4.11717 8.71575C4.11717 8.7097 4.11717 8.70062 4.11717 8.69456C3.35731 9.1305 2.59744 9.56643 1.84061 10.0024C2.26746 10.2294 2.69432 10.4534 3.12117 10.6805C4.14744 11.2224 5.17068 11.7643 6.19695 12.3062C7.44119 12.9631 8.68846 13.6231 9.9327 14.28C11.0044 14.8461 12.0791 15.4153 13.1508 15.9814C13.6715 16.2569 14.1891 16.5414 14.7159 16.8078C14.722 16.8109 14.731 16.8169 14.7371 16.82C14.4858 16.384 14.2376 15.9481 13.9863 15.5121C13.9863 15.9632 13.9863 16.4173 13.9863 16.8684C13.9863 17.9492 13.9863 19.0299 13.9863 20.1107C13.9863 21.4185 13.9863 22.7263 13.9863 24.0341C13.9863 25.1694 13.9863 26.3046 13.9863 27.4399C13.9863 27.9908 13.9803 28.5418 13.9863 29.0928C13.9863 29.0989 13.9863 29.1079 13.9863 29.114C13.9863 29.5015 14.1558 29.9102 14.4283 30.1857C14.6917 30.4491 15.1216 30.6458 15.5 30.6277C15.8905 30.6095 16.2962 30.4824 16.5717 30.1857C16.8441 29.889 17.0137 29.5257 17.0137 29.114C17.0137 28.6629 17.0137 28.2088 17.0137 27.7577C17.0137 26.677 17.0137 25.5962 17.0137 24.5155C17.0137 23.2076 17.0137 21.8998 17.0137 20.592C17.0137 19.4568 17.0137 18.3215 17.0137 17.1863C17.0137 16.6353 17.0197 16.0843 17.0137 15.5333C17.0137 15.5273 17.0137 15.5182 17.0137 15.5121C17.0137 14.9975 16.7291 14.4526 16.2629 14.2043C15.836 13.9773 15.4092 13.7533 14.9823 13.5262C13.956 12.9843 12.9328 12.4424 11.9065 11.9005C10.6623 11.2436 9.41502 10.5836 8.17078 9.92669C7.0991 9.36058 6.02439 8.79144 4.95272 8.22532C4.43201 7.94983 3.91131 7.66829 3.38758 7.39886C3.38152 7.39583 3.37244 7.38977 3.36639 7.38675C2.88201 7.12942 2.32195 7.1052 1.83758 7.38675C1.37742 7.65618 1.0868 8.15872 1.0868 8.69456C1.0868 9.14866 1.0868 9.59974 1.0868 10.0538C1.0868 11.1346 1.0868 12.2184 1.0868 13.2991C1.0868 14.607 1.0868 15.9148 1.0868 17.2256C1.0868 18.3609 1.0868 19.4961 1.0868 20.6344C1.0868 21.1854 1.08074 21.7364 1.0868 22.2873C1.0868 22.2934 1.0868 22.3025 1.0868 22.3085C1.0868 22.8232 1.37137 23.3711 1.83758 23.6163C2.26443 23.8404 2.69129 24.0674 3.11814 24.2914C4.14441 24.8333 5.16766 25.3752 6.19393 25.9171C7.43816 26.5741 8.68543 27.231 9.92967 27.8909C11.0013 28.4571 12.0761 29.0232 13.1477 29.5893C13.6684 29.8648 14.1891 30.1463 14.7129 30.4158C14.7189 30.4188 14.728 30.4248 14.7341 30.4279C15.0913 30.6156 15.506 30.6882 15.8996 30.5792C16.2508 30.4824 16.6322 30.2099 16.8048 29.8829C16.9894 29.5318 17.0833 29.1049 16.9561 28.7174C16.8411 28.3511 16.614 27.9969 16.2629 27.8122Z" fill="white"/>
<path d="M27.6366 21.0007C27.2098 21.2247 26.7829 21.4518 26.3561 21.6758C25.3298 22.2177 24.3065 22.7596 23.2803 23.3015C22.036 23.9584 20.7888 24.6154 19.5445 25.2753C18.4729 25.8414 17.3981 26.4075 16.3265 26.9736C15.8058 27.2491 15.279 27.5155 14.7613 27.8001C14.7553 27.8031 14.7462 27.8092 14.7401 27.8122C15.5 28.2482 16.2599 28.6841 17.0167 29.12C17.0167 28.669 17.0167 28.2149 17.0167 27.7638C17.0167 26.683 17.0167 25.6023 17.0167 24.5215C17.0167 23.2137 17.0167 21.9059 17.0167 20.5981C17.0167 19.4628 17.0167 18.3276 17.0167 17.1923C17.0167 16.6413 17.0258 16.0903 17.0167 15.5394C17.0167 15.5333 17.0167 15.5242 17.0167 15.5182C16.7654 15.9541 16.5172 16.3901 16.2659 16.826C16.6928 16.5989 17.1196 16.3749 17.5465 16.1479C18.5728 15.606 19.596 15.0641 20.6223 14.5222C21.8665 13.8653 23.1138 13.2053 24.358 12.5484C25.4297 11.9822 26.5044 11.4131 27.5761 10.847C28.0968 10.5715 28.6235 10.3021 29.1412 10.0205C29.1473 10.0175 29.1564 10.0114 29.1624 10.0084C28.4025 9.57248 27.6427 9.13654 26.8858 8.7006C26.8858 9.1547 26.8858 9.60578 26.8858 10.0599C26.8858 11.1406 26.8858 12.2244 26.8858 13.3052C26.8858 14.613 26.8858 15.9208 26.8858 17.2317C26.8858 18.3669 26.8858 19.5022 26.8858 20.6404C26.8858 21.1914 26.8798 21.7424 26.8858 22.2934C26.8858 22.2994 26.8858 22.3085 26.8858 22.3146C26.8858 22.7021 27.0554 23.1108 27.3278 23.3862C27.5912 23.6496 28.0211 23.8464 28.3995 23.8282C28.79 23.8101 29.1957 23.6829 29.4712 23.3862C29.7437 23.0896 29.9132 22.7263 29.9132 22.3146C29.9132 21.8605 29.9132 21.4094 29.9132 20.9553C29.9132 19.8745 29.9132 18.7907 29.9132 17.71C29.9132 16.4022 29.9132 15.0944 29.9132 13.7835C29.9132 12.6483 29.9132 11.513 29.9132 10.3747C29.9132 9.82375 29.9192 9.27277 29.9132 8.72179C29.9132 8.71574 29.9132 8.70666 29.9132 8.7006C29.9132 8.16779 29.6226 7.66222 29.1624 7.39279C28.6811 7.11125 28.118 7.13547 27.6336 7.39279C27.2067 7.61984 26.7799 7.84386 26.353 8.07092C25.3268 8.61281 24.3035 9.1547 23.2773 9.6966C22.033 10.3535 20.7857 11.0135 19.5415 11.6704C18.4698 12.2365 17.3951 12.8057 16.3234 13.3718C15.8027 13.6473 15.273 13.9137 14.7583 14.1983C14.7523 14.2013 14.7432 14.2073 14.7371 14.2104C14.2709 14.4556 13.9863 15.0005 13.9863 15.5182C13.9863 15.9693 13.9863 16.4234 13.9863 16.8744C13.9863 17.9552 13.9863 19.036 13.9863 20.1167C13.9863 21.4245 13.9863 22.7323 13.9863 24.0402C13.9863 25.1754 13.9863 26.3107 13.9863 27.4459C13.9863 27.9969 13.9803 28.5479 13.9863 29.0988C13.9863 29.1049 13.9863 29.114 13.9863 29.12C13.9863 29.6528 14.277 30.1584 14.7371 30.4278C15.2185 30.7094 15.7815 30.6821 16.2659 30.4278C16.6928 30.2038 17.1196 29.9768 17.5465 29.7528C18.5728 29.2109 19.596 28.669 20.6223 28.1271C21.8665 27.4701 23.1138 26.8132 24.358 26.1532C25.4297 25.5871 26.5044 25.021 27.5761 24.4549C28.0968 24.1794 28.6266 23.913 29.1412 23.6284C29.1473 23.6254 29.1564 23.6194 29.1624 23.6163C29.4894 23.4438 29.7618 23.0623 29.8587 22.7112C29.9586 22.3479 29.9132 21.8665 29.7073 21.5456C29.2472 20.8312 28.3874 20.6041 27.6366 21.0007Z" fill="white"/>
<path d="M27.6366 7.38973C27.2097 7.61678 26.7829 7.8408 26.356 8.06785C25.3298 8.60975 24.3065 9.15164 23.2802 9.69354C22.036 10.3505 20.7887 11.0104 19.5445 11.6674C18.4728 12.2335 17.3981 12.8026 16.3264 13.3687C15.8057 13.6442 15.279 13.9137 14.7613 14.1952C14.7552 14.1982 14.7462 14.2043 14.7401 14.2073C15.2487 14.2073 15.7573 14.2073 16.2689 14.2073C15.8421 13.9803 15.4152 13.7562 14.9884 13.5292C13.9621 12.9873 12.9388 12.4454 11.9126 11.9035C10.6683 11.2466 9.42107 10.5866 8.17683 9.92967C7.10515 9.36356 6.03044 8.79441 4.95876 8.2283C4.43806 7.95281 3.92039 7.66824 3.39363 7.40184C3.38757 7.39881 3.37849 7.39276 3.37244 7.38973C3.37244 8.2616 3.37244 9.13348 3.37244 10.0023C3.79929 9.7783 4.22615 9.55125 4.653 9.32723C5.67927 8.78533 6.70251 8.24344 7.72878 7.70154C8.97302 7.04461 10.2203 6.38465 11.4645 5.72772C12.5362 5.1616 13.6109 4.59549 14.6826 4.02635C15.2033 3.75086 15.7301 3.48143 16.2477 3.19988C16.2538 3.19686 16.2629 3.1908 16.2689 3.18777C15.7603 3.18777 15.2517 3.18777 14.7401 3.18777C15.167 3.4118 15.5938 3.63885 16.0207 3.86287C17.0469 4.40477 18.0702 4.94666 19.0965 5.48856C20.3407 6.14549 21.588 6.80545 22.8322 7.46238C23.9039 8.0285 24.9786 8.59461 26.0503 9.16375C26.571 9.43924 27.0917 9.72078 27.6154 9.99022C27.6215 9.99324 27.6305 9.9993 27.6366 10.0023C27.9938 10.19 28.4086 10.2627 28.8021 10.1537C29.1533 10.0568 29.5347 9.78436 29.7073 9.4574C29.892 9.10623 29.9858 8.67938 29.8587 8.29188C29.7406 7.92557 29.5135 7.57137 29.1624 7.3867C28.7295 7.15965 28.2966 6.92957 27.8636 6.70252C26.8344 6.16063 25.8081 5.6157 24.7788 5.07381C23.5285 4.41385 22.2782 3.75389 21.0279 3.09393C19.9593 2.52781 18.8906 1.96473 17.8219 1.39861C17.3073 1.12615 16.7957 0.844611 16.278 0.584259C15.9632 0.42381 15.6513 0.348126 15.2971 0.396564C15.0883 0.42381 14.9066 0.487384 14.7159 0.587286C14.6584 0.61756 14.6039 0.647833 14.5464 0.675079C14.28 0.814337 14.0135 0.956622 13.7471 1.09588C12.7754 1.61053 11.8006 2.12518 10.8288 2.6368C9.5906 3.2907 8.34939 3.94764 7.11121 4.60154C5.99109 5.19188 4.874 5.78524 3.75388 6.37557C3.14236 6.69949 2.53084 7.02342 1.91931 7.34432C1.89207 7.35945 1.86179 7.37459 1.83455 7.38973C0.847632 7.91043 0.847632 9.48162 1.83455 10.0023C2.26746 10.2324 2.70037 10.4595 3.13328 10.6895C4.16257 11.2345 5.18884 11.7763 6.21814 12.3213C7.46843 12.9812 8.71873 13.6442 9.96902 14.3042C11.0377 14.8703 12.1063 15.4334 13.175 15.9995C13.6896 16.272 14.2012 16.5535 14.7189 16.8169C15.0338 16.9773 15.3456 17.053 15.6998 17.0046C15.9087 16.9773 16.0903 16.9138 16.281 16.8138C16.3385 16.7836 16.393 16.7533 16.4506 16.7261C16.717 16.5868 16.9834 16.4445 17.2498 16.3053C18.2216 15.7906 19.1964 15.276 20.1681 14.7613C21.4063 14.1074 22.6475 13.4505 23.8857 12.7966C25.0058 12.2062 26.1229 11.6129 27.243 11.0225C27.8546 10.6986 28.4661 10.3747 29.0776 10.0508C29.1049 10.0356 29.1351 10.0205 29.1624 10.0054C29.4893 9.83279 29.7618 9.45135 29.8587 9.10018C29.9586 8.7369 29.9132 8.25555 29.7073 7.93465C29.2471 7.2202 28.3874 6.99315 27.6366 7.38973Z" fill="white"/>
</svg>
