<svg width="173" height="173" viewBox="0 0 173 173" fill="none" xmlns="http://www.w3.org/2000/svg">
<g opacity="0.2">
<path opacity="0.09" d="M73.5987 118.279L77.9965 115.829C78.1722 115.726 86.4198 111.23 86.5749 111.318L89.4068 109.928C90.6884 109.189 92.5643 108.946 94.1921 108.946C95.5683 108.96 96.9194 109.315 98.1247 109.979L117.953 121.271L122.181 123.679L146.236 137.379C147.003 137.816 147.646 138.442 148.102 139.198C148.402 139.729 148.57 140.324 148.593 140.934C148.644 142.526 147.663 144.035 145.906 145.068L141.508 147.523C141.332 147.626 133.084 152.122 132.929 152.034L130.087 153.378C128.806 154.117 126.93 154.365 125.307 154.365C123.929 154.349 122.577 153.994 121.369 153.332L101.551 142.05L97.3237 139.642L73.268 125.937C72.5 125.502 71.8574 124.875 71.4024 124.118C71.1019 123.587 70.9335 122.992 70.9115 122.382C70.8598 120.79 71.8417 119.281 73.5987 118.279Z" fill="black"/>
<path opacity="0.18" d="M74.0379 118.615L78.3168 116.253C78.6734 116.046 86.394 111.985 86.704 112.16L89.4533 111.029C90.6005 110.362 92.6004 110.321 94.0629 110.321C95.3927 110.381 96.6908 110.747 97.856 111.39L117.101 122.361L121.204 124.702L144.557 138.014C145.296 138.442 145.928 139.035 146.402 139.746C146.701 140.249 146.878 140.815 146.918 141.399C147.011 142.924 146.081 144.397 144.335 145.394L140.092 147.735C139.735 147.942 132.015 152.003 131.705 151.823L128.955 152.959C127.808 153.621 125.808 153.667 124.346 153.667C123.016 153.607 121.718 153.241 120.553 152.598L101.308 141.627L97.2049 139.286L73.8571 125.974C73.1175 125.546 72.4862 124.953 72.0122 124.242C71.7136 123.739 71.5367 123.173 71.4954 122.589C71.3817 121.085 72.3119 119.612 74.0379 118.615Z" fill="black"/>
<path opacity="0.27" d="M74.4773 118.961L78.6373 116.687C79.154 116.377 86.363 112.755 86.8281 113.023L89.4947 112.14C90.5282 111.55 92.6366 111.711 93.9337 111.711C95.2165 111.818 96.4618 112.197 97.5873 112.822L116.248 123.472L120.227 125.746L142.872 138.666C143.581 139.085 144.2 139.642 144.691 140.304C144.997 140.771 145.195 141.301 145.27 141.854C145.409 143.316 144.531 144.753 142.836 145.73L138.702 148.009C138.185 148.319 130.95 151.941 130.506 151.673L127.844 152.551C126.811 153.145 124.702 152.985 123.4 152.985C122.119 152.877 120.876 152.498 119.752 151.874L101.086 141.218L97.1067 138.95L74.4669 126.03C73.7567 125.61 73.1381 125.051 72.6479 124.387C72.3411 123.92 72.1416 123.39 72.0639 122.837C71.9037 121.379 72.7822 119.943 74.4773 118.961Z" fill="black"/>
<path opacity="0.36" d="M74.9166 119.312L78.9578 117.126C79.6709 116.713 86.3373 113.509 86.9574 113.881L89.5413 113.256C90.4353 112.739 92.6729 113.101 93.8098 113.101C94.7969 113.101 96.6107 113.845 97.3187 114.258L115.406 124.594L119.261 126.795L141.193 139.327C141.876 139.736 142.483 140.261 142.986 140.877C143.303 141.319 143.518 141.826 143.616 142.36C143.802 143.761 142.97 145.161 141.306 146.123L137.265 148.309C136.547 148.722 129.886 151.926 129.266 151.549L126.682 152.179C125.788 152.696 123.55 152.334 122.413 152.334C121.426 152.334 119.612 151.585 118.899 151.177L100.812 140.841L96.957 138.64L75.0252 126.108C74.3423 125.699 73.7355 125.174 73.232 124.558C72.9129 124.117 72.6974 123.61 72.6015 123.075C72.4206 121.674 73.2423 120.274 74.9166 119.312Z" fill="black"/>
<path opacity="0.45" d="M75.3558 119.659L79.2781 117.561C80.1721 117.044 86.3113 114.295 87.0865 114.744L89.5825 114.372C90.3473 113.928 92.6831 114.491 93.6805 114.491C94.528 114.491 96.4453 115.338 97.0499 115.69L114.548 125.7L118.279 127.834L139.508 139.983C140.163 140.385 140.758 140.877 141.275 141.446C141.595 141.862 141.824 142.341 141.947 142.851C142.18 144.18 141.399 145.549 139.766 146.469L135.844 148.567C134.95 149.084 128.811 151.833 128.036 151.383L125.54 151.755C124.77 152.2 122.413 151.637 121.436 151.637C120.589 151.637 118.677 150.789 118.067 150.438L100.574 140.448L96.8432 138.314L75.6141 126.17C74.9581 125.77 74.3629 125.277 73.8468 124.708C73.5232 124.293 73.2924 123.813 73.1698 123.302C72.9372 121.969 73.7176 120.604 75.3558 119.659Z" fill="black"/>
<path opacity="0.55" d="M75.795 120.01L79.5984 118C80.6733 117.38 86.2855 115.07 87.2157 115.602L89.6238 115.483C90.2646 115.116 92.7245 115.881 93.5513 115.881C94.2593 115.881 96.2747 116.832 96.7811 117.121L113.695 126.811L117.313 128.878L137.839 140.629C138.471 141.02 139.055 141.483 139.58 142.009C139.909 142.394 140.155 142.843 140.304 143.327C140.583 144.593 139.849 145.911 138.237 146.851L134.438 148.861C133.363 149.482 127.751 151.792 126.821 151.259L124.408 151.378C123.767 151.745 121.307 150.98 120.48 150.98C119.772 150.98 117.757 150.029 117.25 149.74L100.337 140.05L96.7191 137.983L76.1981 126.232C75.5672 125.839 74.983 125.377 74.4566 124.852C74.1313 124.465 73.887 124.017 73.7382 123.534C73.4592 122.268 74.1878 120.935 75.795 120.01Z" fill="black"/>
<path opacity="0.64" d="M76.2344 120.346L79.919 118.424C81.1696 117.7 86.2546 115.84 87.3398 116.455L89.6705 116.589C90.1872 116.294 92.7711 117.261 93.4274 117.261C93.9907 117.261 96.1094 118.294 96.528 118.542L112.863 127.911L116.341 129.911L136.154 141.28C136.753 141.658 137.317 142.088 137.839 142.567C138.17 142.927 138.429 143.346 138.604 143.802C138.929 145.006 138.247 146.303 136.671 147.213L132.992 149.135C131.736 149.859 126.651 151.719 125.565 151.104L123.24 150.97C122.723 151.264 120.139 150.298 119.478 150.298C118.915 150.298 116.796 149.265 116.377 149.016L100.047 139.647L96.5642 137.647L76.7511 126.278C76.1391 125.903 75.5631 125.473 75.0303 124.992C74.701 124.631 74.4417 124.212 74.2655 123.757C73.9761 122.563 74.6582 121.266 76.2344 120.346Z" fill="black"/>
<path opacity="0.73" d="M76.6736 120.708L80.2394 118.873C81.6708 118.046 86.2288 116.61 87.4742 117.323L89.717 117.716C90.0994 117.493 92.8176 118.661 93.3034 118.661C93.7891 118.661 95.9492 119.814 96.249 119.989L112 129.033L115.359 130.966L134.48 141.937C135.081 142.284 135.649 142.687 136.175 143.141C136.547 143.442 136.828 143.841 136.986 144.293C137.358 145.43 136.723 146.691 135.177 147.58L131.612 149.414C130.18 150.241 125.622 151.678 124.377 150.965L122.134 150.577C121.752 150.794 119.033 149.626 118.548 149.626C118.062 149.626 115.907 148.474 115.602 148.298L99.8509 139.255L96.497 137.327L77.3764 126.351C76.7748 126.004 76.2073 125.601 75.6814 125.147C75.3088 124.848 75.0276 124.45 74.8701 124C74.4928 122.857 75.1285 121.597 76.6736 120.708Z" fill="black"/>
<path opacity="0.82" d="M77.1129 121.054L80.5598 119.307C82.1669 118.377 86.2029 117.38 87.5982 118.186L89.7532 118.827C90.0115 118.682 92.8538 120.051 93.1742 120.051C94.1367 120.446 95.0724 120.904 95.9751 121.421L111.142 130.165L114.377 132.025L132.774 142.609C133.354 142.943 133.911 143.314 134.444 143.72C134.823 143.989 135.121 144.36 135.302 144.789C135.725 145.864 135.136 147.089 133.622 147.962L130.175 149.709C128.568 150.639 124.532 151.637 123.137 150.83L120.982 150.19C120.723 150.339 117.881 148.965 117.561 148.965C116.597 148.572 115.661 148.115 114.76 147.595L99.5977 138.857L96.3627 136.996L77.9656 126.408C77.3844 126.076 76.8267 125.705 76.2964 125.297C75.9154 125.028 75.6181 124.657 75.4385 124.227C75.0096 123.152 75.5987 121.927 77.1129 121.054Z" fill="black"/>
<path opacity="0.91" d="M77.5521 121.405L80.8801 119.747C82.6681 118.713 86.1718 118.15 87.7221 119.049L89.7892 119.943C89.9133 119.871 92.8899 121.442 93.0346 121.442C93.1793 121.442 95.6184 122.795 95.696 122.852L110.279 131.26L113.38 133.048L131.121 143.249C131.198 143.291 132.728 144.2 132.764 144.283C133.151 144.52 133.464 144.86 133.668 145.265C134.139 146.298 133.596 147.466 132.118 148.324L128.79 149.983C127.002 151.016 123.493 151.575 121.943 150.681L119.876 149.787C119.747 149.859 116.775 148.283 116.63 148.283C116.486 148.283 114.047 146.929 113.964 146.872L99.3805 138.469L96.2799 136.676L78.5856 126.48C78.5081 126.434 76.9784 125.524 76.9423 125.447C76.5564 125.206 76.2436 124.865 76.0379 124.459C75.5211 123.447 76.0637 122.258 77.5521 121.405Z" fill="black"/>
<path d="M120.692 150.52L99.0808 138.056L77.4901 125.591C75.7847 124.609 75.9966 122.888 77.9655 121.752L81.1798 120.201C83.1487 119.064 86.1253 118.945 87.8307 119.927L109.421 132.392L131.012 144.856C132.718 145.844 132.501 147.559 130.532 148.696L127.322 150.246C125.374 151.383 122.398 151.507 120.692 150.52Z" fill="black"/>
</g>
<path d="M122.914 147.43L84.1823 125.069C79.8156 122.547 76.2705 115.767 76.2705 109.954V6.81106C76.2705 3.84995 73.8365 3.19365 75.3145 2.1291C75.3713 2.08776 78.7717 0.542609 78.8337 0.51677C80.4202 -0.0878537 82.1204 -0.361743 84.1823 0.832002L122.914 23.1928C127.281 25.7146 130.826 32.4947 130.826 38.3032V141.451C130.826 144.552 129.824 146.753 128.242 147.761C128.149 147.823 124.051 149.771 123.943 149.828C122.522 150.277 124.826 148.536 122.914 147.43Z" fill="url(#paint0_linear_374_2969)"/>
<path style="mix-blend-mode:color-dodge" d="M122.558 23.3116L83.8256 0.971503C81.7585 -0.222242 120.418 24.0454 120.418 24.0454C124.785 26.5673 128.325 33.3473 128.325 39.161C128.325 39.161 130.47 144.686 130.47 141.591V38.4272C130.47 32.598 126.924 25.8334 122.558 23.3116Z" fill="url(#paint1_radial_374_2969)"/>
<path style="mix-blend-mode:screen" opacity="0.6" d="M119.907 148.805L81.1747 126.444C76.808 123.922 73.2629 117.142 73.2629 111.328V8.20632C73.2629 2.38229 76.808 -0.29459 81.1747 2.22726L119.907 24.5673C124.274 27.0892 127.819 33.8693 127.819 39.683V142.826C127.819 148.65 124.274 151.352 119.907 148.805Z" fill="url(#paint2_radial_374_2969)"/>
<path d="M119.235 149.177L80.4771 126.816C76.1052 124.294 72.5653 117.514 72.5653 111.706V8.55773C72.5653 2.7337 76.1052 0.0568205 80.4771 2.57867L119.235 24.9394C123.607 27.4613 127.147 34.2413 127.147 40.055V143.198C127.126 149.022 123.586 151.704 119.235 149.177Z" fill="url(#paint3_linear_374_2969)"/>
<path d="M73.6556 112.388V9.11584C73.6556 4.01012 76.7563 1.66397 80.5907 3.87576L119.116 26.097C122.945 28.3088 126.046 34.2413 126.046 39.347V142.64C126.046 147.745 122.945 150.091 119.116 147.88L80.5907 125.658C76.7615 123.447 73.6556 117.493 73.6556 112.388Z" fill="url(#paint4_linear_374_2969)"/>
<path d="M75.1957 113.018V10.2734C75.1957 5.99973 77.7795 4.03599 80.999 5.88604L118.723 27.6525C121.927 29.5026 124.527 34.4687 124.527 38.7424V141.487C124.527 145.761 121.943 147.725 118.723 145.875L80.999 124.108C77.7951 122.258 75.1957 117.292 75.1957 113.018Z" fill="url(#paint5_linear_374_2969)"/>
<path d="M81.4382 7.01775C78.4151 5.27106 75.9656 6.67151 75.9656 10.1184V114.041C75.9656 117.509 78.4151 121.731 81.4382 123.478L118.269 144.738C121.287 146.484 123.736 145.089 123.736 141.637V37.7192C123.736 34.2517 121.287 30.0245 118.269 28.283L81.4382 7.01775Z" fill="url(#paint6_linear_374_2969)"/>
<path d="M128.165 63.9196V56.9586C128.171 56.5058 128.284 56.0607 128.494 55.6595C128.704 55.2582 129.005 54.9119 129.374 54.6487C130.046 54.2611 130.583 54.6487 130.583 55.5582V62.5243C130.577 62.9772 130.464 63.4222 130.254 63.8235C130.044 64.2247 129.743 64.571 129.374 64.8343C128.707 65.2167 128.165 64.8084 128.165 63.9196Z" fill="url(#paint7_linear_374_2969)"/>
<path d="M128.899 64.7154C128.553 64.7154 128.428 64.2865 128.428 63.9196V56.9587C128.44 56.5547 128.543 56.1587 128.73 55.8005C128.917 55.4423 129.183 55.1315 129.509 54.8916C129.612 54.8257 129.732 54.7883 129.855 54.7831C130.201 54.7831 130.325 55.212 130.325 55.5789V62.545C130.315 62.9491 130.212 63.3454 130.025 63.7037C129.837 64.0619 129.571 64.3727 129.245 64.6121C129.141 64.6761 129.021 64.7117 128.899 64.7154Z" fill="url(#paint8_linear_374_2969)"/>
<path style="mix-blend-mode:color-dodge" d="M128.785 64.0953V57.1344C128.796 56.7303 128.898 56.334 129.086 55.9757C129.273 55.6174 129.539 55.3067 129.865 55.0673C129.959 55.0091 130.065 54.9737 130.175 54.9639C130.143 54.9076 130.096 54.8608 130.04 54.8282C129.984 54.7956 129.92 54.7782 129.855 54.7779C129.732 54.7831 129.612 54.8206 129.509 54.8864C129.183 55.1264 128.917 55.4372 128.73 55.7954C128.543 56.1535 128.44 56.5496 128.428 56.9535V63.9144C128.428 64.2813 128.553 64.7103 128.899 64.7103H128.935C128.831 64.5225 128.779 64.31 128.785 64.0953Z" fill="url(#paint9_radial_374_2969)"/>
<g style="mix-blend-mode:multiply">
<path d="M75.9656 73.0975L123.736 100.678V57.2119L75.9656 29.6317V73.0975Z" fill="#B086CC"/>
</g>
<g style="mix-blend-mode:multiply">
<path d="M75.9656 88.4095L123.736 115.99V115.375L75.9656 87.7945V88.4095Z" fill="#B086CC"/>
</g>
<g style="mix-blend-mode:multiply">
<path d="M75.9656 104.512L123.736 132.092V131.477L75.9656 103.897V104.512Z" fill="#B086CC"/>
</g>
<path d="M89.195 40.9077L76.0121 33.3783V50.8866L89.195 58.4159C90.5127 59.1756 91.5824 58.3694 91.5824 56.6124V45.4656C91.5824 43.7086 90.5127 41.6673 89.195 40.9077Z" fill="#6559D8"/>
<path style="mix-blend-mode:multiply" d="M89.195 40.9077L76.0121 33.3783V50.8866L89.195 58.4159C90.5127 59.1756 91.5824 58.3694 91.5824 56.6124V45.4656C91.5824 43.7086 90.5127 41.6673 89.195 40.9077Z" fill="url(#paint10_linear_374_2969)"/>
<path d="M95.7941 44.5303C94.4763 43.7706 93.4066 44.582 93.4066 46.3338V57.4858C93.4066 59.2376 94.4763 61.2789 95.7941 62.0437L123.7 78.1929V60.6794L95.7941 44.5303Z" fill="#7C1DC9"/>
<path d="M104.698 68.9426L76.0121 52.4989V70.0071L104.698 86.4509C106.016 87.2105 107.086 86.4043 107.086 84.6473V73.5005C107.086 71.7693 106.016 69.7022 104.698 68.9426Z" fill="#7C1DC9"/>
<path d="M111.297 72.5652C109.98 71.8056 108.91 72.6169 108.91 74.3688V85.5207C108.91 87.2726 109.98 89.3138 111.297 90.0786L123.7 97.3135V79.8L111.297 72.5652Z" fill="#6559D8"/>
<path d="M104.186 76.2085L89.3241 67.6042V65.4544L104.186 74.0587V76.2085Z" fill="#A73BFF"/>
<path d="M98.8482 75.9035L89.3241 70.4412V69.2113L98.8482 74.6788V75.9035Z" fill="#A73BFF"/>
<path opacity="0.7" d="M88.1511 68.8031C88.1511 71.7797 86.0479 72.9786 83.4537 71.4852C80.8595 69.9917 78.7562 66.3536 78.7562 63.377C78.7562 60.4004 80.8595 59.2015 83.4537 60.7001C86.0479 62.1988 88.1511 65.8265 88.1511 68.8031Z" fill="#DC3DAA"/>
<path d="M84.9574 67.4646C84.6838 67.2259 84.4501 66.945 84.2649 66.6326C84.1512 66.4414 84.1512 66.2347 84.2649 66.1675C84.4212 66.0762 84.5457 65.9391 84.6215 65.7748C84.7404 65.8058 84.8902 65.7748 84.8902 65.5939C84.8912 65.4287 84.8282 65.2694 84.7145 65.1495C84.7227 64.752 84.6232 64.3596 84.4267 64.014C84.2302 63.6683 83.944 63.3822 83.5983 63.1858C82.7611 62.7052 82.5131 63.1858 82.4872 63.8576C82.3839 63.8576 82.3115 63.9351 82.3115 64.1056C82.3336 64.3053 82.4294 64.4896 82.5803 64.6224C82.669 64.9034 82.7886 65.1738 82.9368 65.4286C83.0454 65.6198 83.0505 65.8368 82.9368 65.8937C82.7187 65.9934 82.4705 66.0045 82.2444 65.9247C81.8929 65.8161 81.6294 66.028 81.6294 66.4414V67.1908C81.6347 67.2706 81.6585 67.348 81.6988 67.4171C81.7392 67.4861 81.795 67.5449 81.8619 67.5887L85.3398 69.5989C85.469 69.6713 85.5724 69.5989 85.5724 69.4697V68.7152C85.5582 68.4763 85.4965 68.2427 85.3909 68.0279C85.2854 67.8132 85.138 67.6217 84.9574 67.4646Z" fill="white"/>
<path style="mix-blend-mode:multiply" d="M104.698 68.9426L76.0121 52.4989V70.0071L104.698 86.4509C106.016 87.2105 107.086 86.4043 107.086 84.6473V73.5005C107.086 71.7693 106.016 69.7022 104.698 68.9426Z" fill="url(#paint11_linear_374_2969)"/>
<path d="M115.333 33.2233L120.119 35.9829C120.3 36.0914 120.449 35.9829 120.449 35.7968C120.443 35.6827 120.41 35.5717 120.352 35.4728C120.295 35.374 120.215 35.2903 120.119 35.2284L115.333 32.4636C115.153 32.3603 115.008 32.4636 115.008 32.6548C115.014 32.7685 115.046 32.8793 115.103 32.978C115.159 33.0768 115.238 33.1608 115.333 33.2233ZM120.119 36.9286L115.333 34.169C115.153 34.0656 115.008 34.169 115.008 34.355C115.013 34.4688 115.045 34.5797 115.102 34.6785C115.159 34.7774 115.238 34.8613 115.333 34.9235L120.119 37.6882C120.3 37.7916 120.449 37.6882 120.449 37.497C120.442 37.3832 120.408 37.2726 120.351 37.174C120.293 37.0753 120.214 36.9913 120.119 36.9286ZM120.119 38.6339L115.333 35.8743C115.153 35.7658 115.008 35.8743 115.008 36.0604C115.014 36.1741 115.046 36.2848 115.103 36.3836C115.159 36.4823 115.238 36.5664 115.333 36.6288L120.119 39.3884C120.3 39.4969 120.449 39.3884 120.449 39.2024C120.443 39.0883 120.409 38.9774 120.352 38.8787C120.294 38.7799 120.215 38.6961 120.119 38.6339Z" fill="white"/>
<path d="M86.0323 16.7072C86.0323 17.224 85.6757 17.4152 85.2365 17.1568C85.0056 17.0071 84.8132 16.8051 84.675 16.5672C84.5367 16.3293 84.4564 16.0621 84.4407 15.7874C84.4407 15.2706 84.7972 15.0794 85.2365 15.3326C85.4681 15.4828 85.6609 15.6857 85.7992 15.9246C85.9375 16.1634 86.0173 16.4316 86.0323 16.7072Z" fill="white"/>
<path d="M83.6293 15.3068C83.6293 15.8236 83.2728 16.0148 82.8335 15.7616C82.6027 15.6145 82.4096 15.4155 82.2696 15.1803C82.1296 14.9452 82.0466 14.6806 82.0273 14.4076C82.0273 13.8908 82.3839 13.6996 82.8232 13.958C83.0533 14.1045 83.246 14.3028 83.386 14.5369C83.5259 14.7711 83.6093 15.0347 83.6293 15.3068Z" fill="white"/>
<path d="M81.2263 13.8908C81.2263 14.4076 80.8697 14.5988 80.4305 14.3456C80.1989 14.1954 80.0061 13.9925 79.8678 13.7537C79.7295 13.5148 79.6496 13.2466 79.6346 12.971C79.6346 12.4542 79.9912 12.263 80.4305 12.5162C80.6612 12.6674 80.8533 12.8704 80.9915 13.1091C81.1297 13.3478 81.2101 13.6155 81.2263 13.8908Z" fill="white"/>
<g style="mix-blend-mode:multiply">
<path d="M118.269 28.283L81.4382 7.01775C78.4151 5.27106 75.9656 6.67151 75.9656 10.1184V114.041C75.9656 117.509 78.4151 121.731 81.4382 123.478L118.269 144.738C121.287 146.484 123.736 145.089 123.736 141.637V37.7192C123.736 34.2517 121.302 30.0245 118.269 28.283ZM123.261 141.622C123.31 142.532 123.052 143.433 122.527 144.18C122.312 144.45 122.037 144.666 121.724 144.811C121.411 144.956 121.068 145.027 120.723 145.017C119.937 144.983 119.174 144.746 118.506 144.329L81.6759 123.064C78.7872 121.4 76.441 117.349 76.441 114.041V10.1339C76.441 8.04096 77.4125 6.74386 78.9784 6.74386C79.7658 6.77833 80.5311 7.01503 81.2005 7.43117L118.031 28.6912C120.914 30.3604 123.261 34.4067 123.261 37.7192V141.622Z" fill="#BCBEC0"/>
</g>
<path d="M122.015 67.1649L107.153 58.5607V56.4109L122.015 65.0152V67.1649Z" fill="#A73BFF"/>
<path d="M116.677 66.8601L107.153 61.3978V60.1678L116.677 65.6353V66.8601Z" fill="#A73BFF"/>
<path d="M93.3447 22.676L100.218 33.4248L107.096 30.6188C106.886 30.2979 106.607 30.0278 106.28 29.8281L94.1508 22.8C94.0321 22.7208 93.8983 22.6671 93.7577 22.6422C93.6172 22.6173 93.4731 22.6217 93.3344 22.6553L93.3447 22.676Z" fill="url(#paint12_linear_374_2969)"/>
<path d="M107.117 30.6239L100.218 34.5617L98.2643 31.1975L93.3446 33.2026V33.1716L97.9232 30.5878L93.3187 22.676C93.1449 22.7501 93.0002 22.8792 92.9068 23.0435C92.8135 23.2078 92.7767 23.3982 92.802 23.5855V31.8022C92.8268 32.2683 92.9615 32.7219 93.195 33.126C93.4285 33.5301 93.7542 33.8734 94.1456 34.1277L106.279 41.1351C107.024 41.564 107.628 41.2229 107.628 40.3651V32.1329C107.606 31.5912 107.429 31.0673 107.117 30.6239ZM107.117 41.1403L102.181 33.4455L102.548 33.2336L107.127 41.1299L107.117 41.1403Z" fill="url(#paint13_linear_374_2969)"/>
<path d="M116.336 79.0042C113.752 77.5262 111.685 78.7148 111.685 81.6553C111.685 84.5957 113.752 88.1924 116.336 89.6756C118.92 91.1587 120.987 89.965 120.987 87.0245C120.987 84.0841 118.899 80.4667 116.336 79.0042ZM116.336 88.6162C115.253 87.9127 114.352 86.964 113.705 85.8471C113.057 84.7302 112.682 83.4765 112.61 82.1875C112.61 79.8311 114.279 78.875 116.336 80.0636C117.418 80.7671 118.32 81.7158 118.967 82.8327C119.614 83.9496 119.989 85.2033 120.062 86.4923C120.062 88.8229 118.393 89.7841 116.336 88.5955V88.6162ZM116.796 81.1798C116.785 81.0216 116.738 80.868 116.658 80.7308C116.578 80.5937 116.468 80.4768 116.336 80.3892C116.083 80.2393 115.876 80.3582 115.876 80.6527V84.6629L119.137 86.5439C119.39 86.6938 119.597 86.5749 119.597 86.2804C119.586 86.1221 119.539 85.9685 119.459 85.8314C119.379 85.6943 119.269 85.5774 119.137 85.4897L116.796 84.1358V81.1798Z" fill="url(#paint14_linear_374_2969)"/>
<path d="M84.3011 50.1683L82.3839 50.2199C82.0635 50.2199 81.6862 49.7032 81.7482 49.3259L82.1152 47.0883C82.1334 46.907 82.0897 46.7248 81.9911 46.5715L80.4408 43.9412C80.1773 43.5019 80.322 43.0781 80.6837 43.2228L82.8231 44.1065C82.8787 44.1385 82.9446 44.1472 83.0066 44.1307C83.0686 44.1143 83.1215 44.074 83.1539 44.0187L84.1099 42.3443C84.2701 42.0653 84.7352 42.3443 84.8954 42.7991L85.8566 45.5793C85.9196 45.7617 86.0324 45.9228 86.1822 46.0444L88.3268 47.6412C88.6833 47.9048 88.8435 48.4939 88.5696 48.6335L87.0193 49.4758C86.916 49.5275 86.8695 49.667 86.8901 49.8479L87.257 52.5041C87.3191 52.9537 86.947 53.0467 86.6214 52.6694L84.7094 50.406C84.661 50.3408 84.5998 50.2861 84.5296 50.2452C84.4595 50.2043 84.3817 50.1782 84.3011 50.1683Z" fill="url(#paint15_linear_374_2969)"/>
<path opacity="0.7" d="M105.98 59.7596C105.98 62.7362 103.876 63.9351 101.282 62.4416C98.688 60.9482 96.5847 57.3101 96.5847 54.3335C96.5847 51.3569 98.688 50.158 101.282 51.6566C103.876 53.1552 105.98 56.783 105.98 59.7596Z" fill="#DC3DAA"/>
<path d="M106.124 111.68L89.3241 101.995V99.8456L106.124 109.525V111.68Z" fill="#9122EB"/>
<path d="M100.786 111.375L89.3241 104.832V103.603L100.786 110.145V111.375Z" fill="#9122EB"/>
<path d="M88.1511 103.194C88.1511 106.171 86.0479 107.37 83.4537 105.876C80.8595 104.383 78.7562 100.745 78.7562 97.7682C78.7562 94.7916 80.8595 93.5927 83.4537 95.0913C86.0479 96.59 88.1511 100.218 88.1511 103.194Z" fill="#9122EB"/>
<path opacity="0.8" d="M84.9574 101.856C84.6838 101.617 84.45 101.336 84.2649 101.024C84.1512 100.833 84.1512 100.626 84.2649 100.559C84.4135 100.473 84.5338 100.345 84.6111 100.192C84.73 100.223 84.8799 100.192 84.8799 100.011C84.8808 99.8457 84.8178 99.6865 84.7042 99.5666C84.7123 99.169 84.6128 98.7767 84.4164 98.431C84.2199 98.0854 83.9336 97.7992 83.5879 97.6028C82.7507 97.1222 82.5027 97.6028 82.4769 98.2746C82.3735 98.2746 82.3012 98.3522 82.3012 98.5227C82.3292 98.7132 82.4246 98.8873 82.5699 99.0136C82.6586 99.2947 82.7782 99.565 82.9265 99.8198C83.035 100.011 83.0401 100.228 82.9265 100.285C82.7084 100.385 82.4601 100.396 82.234 100.316C81.8826 100.207 81.619 100.419 81.619 100.833V101.582C81.6243 101.662 81.6481 101.739 81.6885 101.808C81.7288 101.877 81.7847 101.936 81.8516 101.98L85.3295 103.99C85.4587 104.062 85.562 103.99 85.562 103.861V103.106C85.5492 102.868 85.4891 102.635 85.3853 102.42C85.2815 102.206 85.136 102.014 84.9574 101.856Z" fill="white"/>
<path d="M106.124 95.9699L89.3241 86.2855V84.1358L106.124 93.8149V95.9699Z" fill="#9122EB"/>
<path d="M100.786 95.6649L89.3241 89.1226V87.8926L100.786 94.435V95.6649Z" fill="#9122EB"/>
<path d="M88.1511 87.4844C88.1511 90.461 86.0479 91.6599 83.4537 90.1664C80.8595 88.673 78.7562 85.0349 78.7562 82.0583C78.7562 79.0817 80.8595 77.8827 83.4537 79.3814C86.0479 80.88 88.1511 84.5078 88.1511 87.4844Z" fill="#9122EB"/>
<path d="M106.124 127.803L89.3241 118.119V115.969L106.124 125.648V127.803Z" fill="#9122EB"/>
<path d="M100.786 127.498L89.3241 120.956V119.726L100.786 126.268V127.498Z" fill="#9122EB"/>
<path d="M88.1511 119.312C88.1511 122.289 86.0479 123.488 83.4537 121.995C80.8595 120.501 78.7562 116.863 78.7562 113.886C78.7562 110.91 80.8595 109.711 83.4537 111.209C86.0479 112.708 88.1511 116.341 88.1511 119.312Z" fill="#9122EB"/>
<path opacity="0.8" d="M85.3502 120.914L81.8672 118.904V112.594L82.9421 113.215V118.439L85.3502 119.829V120.914Z" fill="white"/>
<path d="M99.3702 52.9072L99.7475 53.0777L100.176 53.2999L100.605 53.5325L100.977 53.7443C101.437 54.0035 101.857 54.3252 102.228 54.7004C102.563 55.0396 102.847 55.4261 103.07 55.8476C103.285 56.2537 103.445 56.6864 103.546 57.1344C103.645 57.5858 103.696 58.0467 103.696 58.509C103.699 58.8995 103.65 59.2888 103.551 59.6666C103.481 59.9698 103.316 60.243 103.081 60.4469C102.832 60.637 102.519 60.724 102.207 60.6898C101.732 60.6266 101.277 60.4589 100.874 60.1988L100.538 59.9973L100.109 59.7234L99.6803 59.4495C99.5408 59.3617 99.4426 59.2893 99.3702 59.2376V52.9072ZM101.065 54.8967L100.714 54.7055L100.45 54.5763V58.8139C100.484 58.8416 100.52 58.8659 100.559 58.8862C100.605 58.9224 100.662 58.9534 100.719 58.9896L100.884 59.0929L101.003 59.1704C101.23 59.3199 101.492 59.4072 101.763 59.4237C101.854 59.4227 101.943 59.4029 102.026 59.3655C102.109 59.3282 102.183 59.2741 102.243 59.2066C102.37 59.0416 102.455 58.8483 102.492 58.6433C102.539 58.3842 102.561 58.1212 102.559 57.8578C102.558 57.5948 102.537 57.3323 102.497 57.0724C102.454 56.7947 102.376 56.5238 102.264 56.2662C102.146 55.9947 101.992 55.7408 101.804 55.5117C101.598 55.2631 101.347 55.0547 101.065 54.8967Z" fill="white"/>
<path opacity="0.8" d="M82.7199 84.3269L82.2858 83.0867L82.2444 83.0608L82.3736 84.1254V87.4224L81.3401 86.8333V80.4666L82.1256 80.9214L84.1927 85.4948L84.6061 86.6989L84.6474 86.7248L84.5234 85.6912V82.3632L85.5569 82.9575V89.3396L84.7715 88.8849L82.7199 84.3269Z" fill="white"/>
<path opacity="0.2" d="M56.8191 158.773L90.1096 133.885L34.9493 110.228L1.65881 135.115L56.8191 158.773Z" fill="black"/>
<path d="M56.137 158.091L89.4223 133.203L34.2672 109.54L0.976685 134.433L56.137 158.091Z" fill="url(#paint16_linear_374_2969)"/>
<path opacity="0.2" d="M52.5506 158.639L88.9159 137.648L36.4066 107.334L0.0465088 128.325L52.5506 158.639Z" fill="black"/>
<path d="M51.977 157.797L87.9754 137.012L35.9932 107.003L0 127.788L51.977 157.797Z" fill="url(#paint17_linear_374_2969)"/>
<path d="M17.7666 131.679L13.3431 129.131C13.2991 129.108 13.2625 129.073 13.237 129.03C13.2115 128.987 13.1981 128.938 13.1984 128.888C13.1997 128.839 13.2137 128.79 13.239 128.748C13.2644 128.705 13.3002 128.67 13.3431 128.645L17.7976 126.062C17.8405 126.038 17.8885 126.026 17.9372 126.026C17.9859 126.026 18.0338 126.038 18.0767 126.062L22.5054 128.62C22.5477 128.645 22.5827 128.68 22.6072 128.723C22.6317 128.765 22.6447 128.813 22.645 128.862C22.6463 128.912 22.634 128.961 22.6094 129.004C22.5847 129.046 22.5488 129.082 22.5054 129.105L18.0509 131.689C18.0083 131.713 17.9602 131.726 17.9113 131.725C17.8598 131.723 17.8098 131.707 17.7666 131.679ZM17.9372 126.63L14.0459 128.878L17.9113 131.11L21.8026 128.862L17.9372 126.63Z" fill="#B086CC"/>
<path d="M33.089 120.165L33.8125 120.584L35.2646 119.741L34.5411 119.328L33.089 120.165ZM36.1896 120.165L31.7144 122.749L32.4379 123.168L36.9079 120.584L36.1896 120.165ZM27.3373 124.299L33.1717 120.93L32.4534 120.511L26.6138 123.886L27.3373 124.299ZM37.864 119.132L36.8304 119.772L37.5539 120.191L38.5874 119.55L37.864 119.132ZM33.9985 116.367L20.7433 124.02L22.0921 124.723L35.3473 117.07L33.9985 116.367ZM37.9363 117.333L35.1509 118.94L35.8692 119.359L38.6598 117.752L37.9363 117.333ZM25.9885 124.227L23.4047 125.72L24.1281 126.139L26.712 124.646L25.9885 124.227ZM31.0942 123.069L24.9498 126.614L25.6733 127.033L31.8125 123.488L31.0942 123.069Z" fill="#B086CC"/>
<path d="M19.1464 129.638L18.6606 125.586L17.7253 125.7L18.0612 128.465L12.9296 127.472L12.7539 128.397L19.1464 129.638Z" fill="url(#paint18_radial_374_2969)"/>
<path d="M26.0351 136.309L21.6115 133.751C21.5676 133.728 21.5309 133.693 21.5054 133.65C21.4799 133.607 21.4665 133.558 21.4668 133.508C21.4681 133.459 21.4821 133.41 21.5075 133.368C21.5328 133.325 21.5686 133.29 21.6115 133.265L26.0661 130.681C26.109 130.658 26.1569 130.646 26.2056 130.646C26.2543 130.646 26.3022 130.658 26.3451 130.681L30.7739 133.265C30.8161 133.29 30.8512 133.326 30.8756 133.368C30.9001 133.411 30.9131 133.459 30.9134 133.508C30.9142 133.557 30.9016 133.606 30.877 133.649C30.8525 133.692 30.8168 133.727 30.7739 133.751L26.3193 136.335C26.2768 136.359 26.2286 136.371 26.1798 136.371C26.1267 136.364 26.0765 136.343 26.0351 136.309ZM26.2056 131.26L22.3143 133.508L26.1798 135.741L30.0711 133.493L26.2056 131.26Z" fill="#B086CC"/>
<path d="M41.3573 124.795L42.0808 125.209L43.5329 124.372L42.8094 123.953L41.3573 124.795ZM44.4579 124.795L39.9827 127.379L40.7062 127.798L45.1762 125.214L44.4579 124.795ZM35.6056 128.93L41.44 125.56L40.7217 125.142L34.8821 128.516L35.6056 128.93ZM46.1323 123.762L45.0987 124.403L45.8222 124.816L46.8558 124.18L46.1323 123.762ZM42.2668 120.992L29.0116 128.645L30.3604 129.353L43.6156 121.7L42.2668 120.992ZM46.2046 121.964L43.4192 123.571L44.1375 123.984L46.9281 122.382L46.2046 121.964ZM34.2568 128.857L31.673 130.351L32.3965 130.769L34.9803 129.276L34.2568 128.857ZM39.3626 127.7L33.2181 131.245L33.9416 131.663L40.0809 128.113L39.3626 127.7Z" fill="#B086CC"/>
<path d="M27.4147 134.263L26.9289 130.216L25.9936 130.325L26.3295 133.095L21.1979 132.103L21.0222 133.028L27.4147 134.263Z" fill="url(#paint19_radial_374_2969)"/>
<path d="M34.4326 140.919L30.0091 138.361C29.9662 138.336 29.9304 138.301 29.9051 138.258C29.8797 138.216 29.8657 138.167 29.8644 138.118C29.8647 138.068 29.8783 138.019 29.9037 137.977C29.9291 137.934 29.9655 137.899 30.0091 137.875L34.4637 135.291C34.5057 135.265 34.554 135.252 34.6032 135.252C34.6524 135.252 34.7007 135.265 34.7427 135.291L39.1715 137.849C39.2148 137.873 39.2508 137.908 39.2754 137.951C39.3 137.994 39.3123 138.043 39.311 138.092C39.3107 138.141 39.2977 138.189 39.2732 138.232C39.2488 138.274 39.2137 138.31 39.1715 138.335L34.7169 140.919C34.6743 140.943 34.6262 140.955 34.5773 140.955C34.5268 140.956 34.4768 140.943 34.4326 140.919ZM34.6032 135.87L30.7119 138.118L34.5773 140.35L38.4686 138.102L34.6032 135.87Z" fill="#B086CC"/>
<path d="M49.7549 129.4L50.4784 129.818L51.9305 128.981L51.207 128.563L49.7549 129.4ZM52.8555 129.4L48.3803 131.984L49.1038 132.402L53.5738 129.818L52.8555 129.4ZM44.0032 133.534L49.8531 130.165L49.1348 129.746L43.2952 133.115L44.0032 133.534ZM54.5299 128.366L53.4963 129.002L54.2198 129.421L55.2533 128.78L54.5299 128.366ZM50.6644 125.596L37.4247 133.265L38.7735 133.968L52.0545 126.33L50.6644 125.596ZM54.6384 126.599L51.853 128.201L52.5713 128.614L55.3619 127.012L54.6384 126.599ZM42.6906 133.493L40.1067 134.986L40.8302 135.4L43.4141 133.906L42.6906 133.493ZM47.7963 132.33L41.6519 135.88L42.3754 136.294L48.4939 132.749L47.7963 132.33Z" fill="#B086CC"/>
<path d="M35.8124 138.872L35.3266 134.821L34.3913 134.934L34.722 137.704L29.5956 136.712L29.4199 137.632L35.8124 138.872Z" fill="url(#paint20_radial_374_2969)"/>
<path d="M42.701 145.544L38.2774 142.991C38.2345 142.966 38.1987 142.931 38.1734 142.888C38.148 142.846 38.134 142.798 38.1327 142.748C38.1324 142.698 38.1458 142.649 38.1713 142.607C38.1968 142.564 38.2335 142.529 38.2774 142.505L42.732 139.921C42.774 139.896 42.8223 139.882 42.8715 139.882C42.9207 139.882 42.969 139.896 43.011 139.921L47.4398 142.505C47.4831 142.529 47.5191 142.564 47.5437 142.607C47.5683 142.65 47.5806 142.699 47.5793 142.748C47.579 142.797 47.566 142.845 47.5415 142.888C47.5171 142.931 47.482 142.966 47.4398 142.991L42.9852 145.575C42.943 145.6 42.8949 145.615 42.8457 145.616C42.7916 145.606 42.7415 145.581 42.701 145.544ZM42.8715 140.5L38.9802 142.748L42.8457 144.981L46.737 142.733L42.8715 140.5Z" fill="#B086CC"/>
<path d="M58.0232 134.03L58.7467 134.449L60.1988 133.612L59.4753 133.193L58.0232 134.03ZM61.1238 134.03L56.6486 136.614L57.3721 137.027L61.8421 134.444L61.1238 134.03ZM52.2715 138.164L58.1214 134.816L57.4031 134.402L51.5635 137.772L52.2715 138.164ZM62.7982 132.997L61.7646 133.632L62.4881 134.051L63.5217 133.41L62.7982 132.997ZM58.9327 130.227L45.693 137.916L47.0418 138.619L60.3228 130.961L58.9327 130.227ZM62.8705 131.198L60.0851 132.8L60.8396 133.265L63.6302 131.658L62.8705 131.198ZM50.9382 138.123L48.3544 139.611L49.0778 140.03L51.6617 138.536L50.9382 138.123ZM56.044 136.96L49.8995 140.5L50.623 140.919L56.7623 137.399L56.044 136.96Z" fill="#B086CC"/>
<path d="M50.9693 150.091L46.5457 147.533C46.5028 147.509 46.467 147.473 46.4417 147.431C46.4163 147.388 46.4023 147.34 46.401 147.291C46.4013 147.241 46.4149 147.192 46.4403 147.149C46.4658 147.107 46.5021 147.072 46.5457 147.048L51.0003 144.464C51.0423 144.438 51.0906 144.425 51.1398 144.425C51.189 144.425 51.2373 144.438 51.2793 144.464L55.7081 147.022C55.7514 147.046 55.7874 147.081 55.812 147.124C55.8366 147.166 55.8489 147.215 55.8476 147.265C55.8473 147.314 55.8343 147.362 55.8098 147.404C55.7854 147.447 55.7503 147.483 55.7081 147.508L51.2535 150.091C51.211 150.115 51.1628 150.128 51.114 150.128C51.0634 150.129 51.0134 150.116 50.9693 150.091ZM51.1398 145.043L47.2485 147.291L51.114 149.523L55.0053 147.275L51.1398 145.043Z" fill="#B086CC"/>
<path d="M66.2916 138.573L67.0151 138.991L68.4672 138.154L67.7437 137.735L66.2916 138.573ZM69.3923 138.573L64.917 141.156L65.6405 141.575L70.1106 138.991L69.3923 138.573ZM60.5399 142.707L66.3743 139.337L65.656 138.919L59.8165 142.288L60.5399 142.707ZM71.0666 137.539L70.0331 138.175L70.7565 138.593L71.7901 137.952L71.0666 137.539ZM67.2166 134.816L53.9614 142.469L55.3102 143.172L68.5913 135.503L67.2166 134.816ZM71.1544 135.787L68.3691 137.389L69.0874 137.808L71.8779 136.206L71.1544 135.787ZM59.2067 142.681L56.6228 144.174L57.3463 144.588L59.9301 143.094L59.2067 142.681ZM64.3124 141.518L58.1679 145.068L58.8914 145.482L65.0307 141.937L64.3124 141.518Z" fill="#B086CC"/>
<path d="M49.9874 132.113L44.6646 123.643C44.6646 123.643 34.7788 133.782 35.311 134.738C35.8433 135.694 49.9874 132.113 49.9874 132.113Z" fill="url(#paint21_linear_374_2969)"/>
<path style="mix-blend-mode:multiply" opacity="0.4" d="M77.4694 157.921L44.0653 137.994C44.0653 137.994 43.781 137.839 43.6673 137.792C41.1829 136.51 38.6055 135.417 35.9571 134.521C35.4403 134.34 35.1613 134.495 35.2956 135.131C35.43 135.766 35.6884 136.164 36.4532 136.831C36.4532 136.831 41.3987 140.924 44.5924 143.032C44.7539 143.177 44.9267 143.308 45.1091 143.425H45.1453L78.689 163.579L77.4694 157.921Z" fill="url(#paint22_radial_374_2969)"/>
<path style="mix-blend-mode:multiply" opacity="0.3" d="M54.4161 145.296L39.4297 136.356L39.254 136.268C38.139 135.691 36.9815 135.2 35.7916 134.8C35.5539 134.717 35.6727 135.529 36.0138 135.834C36.0138 135.834 38.2308 137.668 39.6622 138.619C39.7391 138.683 39.8202 138.742 39.9051 138.795L54.9535 147.823L54.4161 145.296Z" fill="url(#paint23_radial_374_2969)"/>
<path style="mix-blend-mode:screen" d="M83.9033 105.587C84.3167 106.378 79.7691 109.587 73.7074 112.76C67.6456 115.933 62.4262 117.871 62.0128 117.085C61.5994 116.3 66.147 113.085 72.2087 109.912C78.2705 106.739 83.4899 104.801 83.9033 105.587Z" fill="url(#paint24_radial_374_2969)"/>
<path d="M78.7769 105.303L45.4915 123.09C44.9179 123.395 44.4335 123.844 44.0859 124.392L43.1971 125.793C43.122 125.91 43.0798 126.045 43.0748 126.184C43.0699 126.323 43.1024 126.461 43.169 126.583C43.2356 126.705 43.3337 126.807 43.4532 126.878C43.5727 126.949 43.7092 126.986 43.8482 126.987H46.029L80.384 108.502L78.7769 105.303Z" fill="url(#paint25_linear_374_2969)"/>
<path d="M80.384 108.527L46.0289 127.012L45.2331 128.682C45.1807 128.791 45.1549 128.911 45.1577 129.032C45.1605 129.153 45.1919 129.272 45.2493 129.379C45.3067 129.486 45.3885 129.577 45.4881 129.647C45.5876 129.716 45.7021 129.761 45.8222 129.777L47.9617 130.077L81.5105 112.109L80.384 108.527Z" fill="url(#paint26_linear_374_2969)"/>
<path d="M81.5107 112.109L83.3194 114.326L50.3751 131.979C50.1247 132.112 49.8462 132.185 49.5623 132.19C49.2785 132.195 48.9974 132.134 48.7421 132.01L47.936 131.622C47.841 131.597 47.7532 131.551 47.6798 131.486C47.6064 131.421 47.5495 131.339 47.5136 131.248C47.4778 131.157 47.4642 131.058 47.4738 130.961C47.4835 130.863 47.5161 130.769 47.569 130.687L47.9566 130.077L81.5107 112.109Z" fill="url(#paint27_linear_374_2969)"/>
<path d="M90.239 110.775L85.3141 101.634L78.8234 105.112H78.7873C77.3197 105.907 77.237 108.595 78.5909 111.122C79.9449 113.649 82.2445 115.049 83.7173 114.258H83.7535L90.239 110.775Z" fill="url(#paint28_linear_374_2969)"/>
<path d="M90.221 110.774C91.6908 109.981 91.7792 107.292 90.4185 104.767C89.0577 102.242 86.7632 100.838 85.2934 101.63C83.8236 102.422 83.7352 105.111 85.0959 107.636C86.4566 110.161 88.7512 111.566 90.221 110.774Z" fill="url(#paint29_linear_374_2969)"/>
<path style="mix-blend-mode:color-dodge" d="M85.3089 107.608C83.9446 105.081 84.0376 102.393 85.5053 101.597L85.6086 101.556C85.4394 101.59 85.2758 101.647 85.1229 101.727C83.6552 102.517 83.5725 105.21 84.9265 107.732C86.2804 110.253 88.4767 111.597 89.9495 110.915C88.4974 111.225 86.5285 109.871 85.3089 107.608Z" fill="url(#paint30_radial_374_2969)"/>
<path d="M94.2646 108.274L89.6653 99.7371L85.7482 101.804H85.7172C84.3426 102.543 84.2599 105.055 85.5311 107.411C86.8024 109.768 88.9418 111.08 90.3165 110.341H90.3475L94.2646 108.274Z" fill="url(#paint31_linear_374_2969)"/>
<path d="M94.249 108.285C92.8744 109.024 90.7298 107.711 89.4585 105.354C88.1872 102.998 88.2751 100.486 89.6445 99.7474C91.014 99.0085 93.1638 100.316 94.435 102.678C95.7063 105.039 95.6184 107.546 94.249 108.285Z" fill="url(#paint32_linear_374_2969)"/>
<path style="mix-blend-mode:color-dodge" d="M89.6498 105.261C88.4923 103.112 88.4613 100.843 89.5 99.8922L89.4121 99.9335C88.0375 100.672 87.9548 103.184 89.2261 105.54C90.4973 107.897 92.642 109.21 94.0114 108.471C94.133 108.406 94.2444 108.324 94.3421 108.228C92.9675 108.869 90.8901 107.571 89.6498 105.261Z" fill="url(#paint33_radial_374_2969)"/>
<path d="M37.4505 131.482C37.7117 132.614 38.2219 133.673 38.944 134.583C36.9751 134.903 35.4765 135.033 35.3266 134.717C35.1767 134.402 36.0914 133.1 37.4505 131.482Z" fill="url(#paint34_radial_374_2969)"/>
<path style="mix-blend-mode:multiply" d="M145.57 166.876C160.719 166.876 173 162.508 173 157.12C173 151.731 160.719 147.363 145.57 147.363C130.42 147.363 118.139 151.731 118.139 157.12C118.139 162.508 130.42 166.876 145.57 166.876Z" fill="url(#paint35_radial_374_2969)"/>
<path d="M165.228 141.084C165.228 126.837 155.161 109.473 142.748 102.326C136.759 98.869 131.317 98.4142 127.292 100.466L124.92 101.742L126.537 104.522C125.725 106.957 125.332 109.512 125.374 112.078C125.374 126.325 135.441 143.689 147.859 150.836C150.109 152.185 152.574 153.139 155.146 153.657L156.794 156.494L158.014 155.864C162.458 153.714 165.228 148.577 165.228 141.084Z" fill="url(#paint36_linear_374_2969)"/>
<path d="M156.738 156.554C165.462 151.454 165.373 135.067 156.537 119.953C147.702 104.839 133.467 96.7221 124.742 101.822C116.017 106.923 116.107 123.31 124.942 138.423C133.778 153.537 148.013 161.655 156.738 156.554Z" fill="url(#paint37_linear_374_2969)"/>
<path d="M161.951 142.386C161.951 128.377 152.055 111.308 139.844 104.259C133.958 100.859 128.609 100.414 124.651 102.43L112.708 108.925L114.3 111.659C113.503 114.047 113.117 116.553 113.158 119.07C113.158 133.079 123.054 150.148 135.26 157.197C137.473 158.522 139.895 159.46 142.422 159.972L144.04 162.721L154.851 156.903C159.212 154.81 161.951 149.756 161.951 142.386Z" fill="url(#paint38_linear_374_2969)"/>
<path d="M150.102 157.843L146.572 159.445L149.507 165.894C149.766 166.463 150.763 166.561 151.74 166.117C152.717 165.672 153.29 164.856 153.032 164.292C153.032 164.272 150.102 157.843 150.102 157.843Z" fill="url(#paint39_linear_374_2969)"/>
<path style="mix-blend-mode:multiply" d="M150.102 157.843L146.572 159.445L149.507 165.894C149.766 166.463 150.763 166.561 151.74 166.117C152.717 165.672 153.29 164.856 153.032 164.292C153.032 164.272 150.102 157.843 150.102 157.843Z" fill="url(#paint40_radial_374_2969)"/>
<path style="mix-blend-mode:color-dodge" opacity="0.8" d="M150.195 163.528C150.877 165.021 151.089 166.173 150.768 166.318C150.448 166.463 149.735 165.548 149.042 164.055C148.35 162.561 148.071 161.238 148.391 161.094C148.712 160.949 149.518 162.039 150.195 163.528Z" fill="url(#paint41_radial_374_2969)"/>
<path d="M128.377 153.027L125.736 150.195L120.568 155.027C120.114 155.45 120.336 156.427 121.085 157.213C121.834 157.998 122.775 158.282 123.23 157.859L128.377 153.027Z" fill="url(#paint42_linear_374_2969)"/>
<path style="mix-blend-mode:multiply" d="M154.143 146.376C154.143 132.366 144.247 115.292 132.041 108.243C126.149 104.843 120.785 104.398 116.842 106.393L112.946 108.46L114.537 111.194C113.741 113.58 113.355 116.084 113.395 118.599C113.395 132.609 123.292 149.683 135.498 156.732C137.713 158.055 140.137 158.993 142.665 159.507L144.288 162.292L147.053 160.908C151.404 158.794 154.143 153.74 154.143 146.376Z" fill="url(#paint43_radial_374_2969)"/>
<path d="M153.373 147.099C153.373 132.852 143.306 115.488 130.888 108.341C124.899 104.884 119.462 104.429 115.432 106.481L113.034 107.757L114.651 110.538C113.846 112.967 113.455 115.514 113.494 118.072C113.494 132.325 123.56 149.688 135.973 156.83C138.225 158.176 140.689 159.13 143.26 159.652L144.908 162.484L146.133 161.853C150.588 159.734 153.373 154.593 153.373 147.099Z" fill="url(#paint44_linear_374_2969)"/>
<path d="M143.051 163.237C151.742 158.184 151.692 141.882 142.938 126.826C134.185 111.771 120.043 103.662 111.352 108.715C102.66 113.768 102.711 130.069 111.464 145.125C120.218 160.181 134.359 168.29 143.051 163.237Z" fill="url(#paint45_linear_374_2969)"/>
<path d="M142.515 158.557C149.961 154.204 149.886 140.221 142.347 127.325C134.808 114.428 122.66 107.503 115.214 111.855C107.768 116.208 107.844 130.191 115.383 143.088C122.922 155.984 135.069 162.91 142.515 158.557Z" fill="url(#paint46_radial_374_2969)"/>
<path style="mix-blend-mode:color-dodge" d="M129.601 109.308C125.105 106.724 120.914 105.809 117.4 106.388C120.759 106.037 124.682 106.987 128.868 109.406C141.27 116.574 151.352 133.937 151.352 148.164C151.352 157.254 147.254 162.876 141.069 163.9C147.657 163.238 152.086 157.554 152.086 148.086C152.086 133.839 142.019 116.475 129.601 109.308Z" fill="url(#paint47_radial_374_2969)"/>
<path d="M129.648 156.83C119.054 150.712 110.465 135.896 110.465 123.757C110.465 117.669 112.615 113.421 116.098 111.427C112.16 113.184 109.68 117.628 109.68 124.149C109.68 136.304 118.274 151.12 128.868 157.223C134.159 160.277 138.95 160.587 142.417 158.618C139.027 160.138 134.552 159.662 129.648 156.83Z" fill="url(#paint48_linear_374_2969)"/>
<path d="M129.917 135.808C129.917 136.474 129.446 136.743 128.883 136.407C128.582 136.207 128.331 135.939 128.152 135.625C127.973 135.311 127.869 134.96 127.85 134.599C127.85 133.932 128.32 133.663 128.883 133.999C129.184 134.199 129.435 134.467 129.614 134.781C129.794 135.095 129.897 135.447 129.917 135.808Z" fill="#231F20"/>
<path d="M129.173 118.279C129.007 118.16 128.872 118.006 128.776 117.826C128.68 117.647 128.627 117.448 128.62 117.245V115.385C128.62 114.977 128.868 114.791 129.173 114.966C129.341 115.088 129.479 115.246 129.575 115.43C129.671 115.614 129.723 115.818 129.726 116.026V117.886C129.726 118.279 129.477 118.465 129.173 118.279Z" fill="#6D6E71"/>
<path d="M129.173 155.621C129.004 155.5 128.866 155.341 128.77 155.157C128.674 154.973 128.623 154.769 128.62 154.562V152.701C128.62 152.293 128.868 152.107 129.173 152.283C129.341 152.404 129.479 152.563 129.575 152.747C129.671 152.931 129.723 153.134 129.726 153.342V155.202C129.726 155.611 129.477 155.797 129.173 155.621Z" fill="#6D6E71"/>
<path d="M114.362 126.733C114.362 127.085 114.145 127.25 113.881 127.095L111.928 125.968C111.783 125.863 111.665 125.726 111.582 125.567C111.5 125.409 111.455 125.233 111.452 125.054C111.452 124.702 111.664 124.537 111.928 124.692L113.881 125.824C114.027 125.927 114.147 126.063 114.23 126.221C114.314 126.379 114.359 126.555 114.362 126.733Z" fill="#6D6E71"/>
<path d="M146.893 145.518C146.893 145.869 146.681 146.035 146.417 145.88L144.459 144.748C144.313 144.645 144.194 144.508 144.112 144.35C144.029 144.192 143.985 144.017 143.983 143.838C143.983 143.487 144.195 143.322 144.459 143.477L146.417 144.634C146.559 144.735 146.676 144.867 146.758 145.021C146.841 145.174 146.887 145.344 146.893 145.518Z" fill="#6D6E71"/>
<path d="M121.767 116.289C121.504 116.315 121.163 116.015 121.007 115.623L120.108 113.313C119.953 112.92 120.046 112.584 120.31 112.558C120.579 112.558 120.914 112.837 121.069 113.23L121.969 115.54C122.124 115.933 122.031 116.269 121.767 116.289Z" fill="#6D6E71"/>
<path d="M138.035 158.014C137.766 158.014 137.43 157.734 137.275 157.342L136.376 155.032C136.221 154.639 136.314 154.303 136.578 154.282C136.841 154.257 137.182 154.556 137.337 154.949L138.237 157.259C138.387 157.652 138.299 157.993 138.035 158.014Z" fill="#6D6E71"/>
<path d="M116.346 136.366C116.496 136.759 116.408 137.1 116.139 137.12L114.589 137.255C114.32 137.255 113.985 136.976 113.83 136.583C113.674 136.19 113.767 135.854 114.031 135.828L115.581 135.699C115.855 135.684 116.191 135.984 116.346 136.366Z" fill="#6D6E71"/>
<path d="M144.521 133.978C144.67 134.371 144.583 134.707 144.319 134.733L142.769 134.862C142.5 134.888 142.164 134.588 142.009 134.195C141.854 133.803 141.947 133.467 142.211 133.441L143.761 133.307C144.04 133.265 144.366 133.586 144.521 133.978Z" fill="#6D6E71"/>
<path d="M116.346 119.385C116.191 119.597 115.855 119.509 115.586 119.178L114.036 117.245C113.911 117.118 113.826 116.957 113.79 116.782C113.754 116.607 113.77 116.425 113.835 116.258C113.99 116.041 114.351 116.134 114.594 116.46L116.145 118.398C116.269 118.526 116.355 118.687 116.391 118.862C116.426 119.037 116.411 119.218 116.346 119.385Z" fill="#6D6E71"/>
<path d="M144.521 154.314C144.366 154.531 144.03 154.438 143.761 154.112L142.211 152.174C142.086 152.047 142 151.887 141.964 151.713C141.929 151.539 141.944 151.358 142.009 151.192C142.164 150.975 142.526 151.068 142.769 151.394L144.319 153.326C144.443 153.455 144.527 153.616 144.563 153.791C144.599 153.965 144.584 154.147 144.521 154.314Z" fill="#6D6E71"/>
<path d="M121.767 145.73C121.892 145.858 121.977 146.019 122.013 146.194C122.049 146.369 122.033 146.55 121.969 146.717L121.069 147.988C120.914 148.2 120.579 148.112 120.31 147.781C120.185 147.654 120.1 147.493 120.064 147.318C120.028 147.143 120.044 146.961 120.108 146.794L121.007 145.523C121.162 145.311 121.504 145.399 121.767 145.73Z" fill="#6D6E71"/>
<path d="M138.035 122.79C138.159 122.919 138.244 123.08 138.279 123.255C138.315 123.429 138.3 123.611 138.237 123.777L137.322 125.049C137.167 125.266 136.805 125.173 136.562 124.842C136.438 124.714 136.352 124.553 136.316 124.378C136.281 124.203 136.296 124.021 136.361 123.855L137.26 122.589C137.431 122.372 137.766 122.46 138.035 122.79Z" fill="#6D6E71"/>
<path d="M129.374 136.263L128.361 135.673V119.421L129.374 120.005V136.263Z" fill="#231F20"/>
<path d="M129.049 134.986L128.739 135.425L142.449 152.422L142.759 151.988L129.049 134.986Z" fill="#231F20"/>
<path d="M129.395 135.508C129.395 135.839 129.157 135.973 128.878 135.808C128.727 135.707 128.601 135.572 128.512 135.415C128.422 135.257 128.37 135.08 128.361 134.898C128.361 134.568 128.594 134.433 128.878 134.604C129.029 134.703 129.155 134.837 129.244 134.994C129.334 135.151 129.386 135.327 129.395 135.508Z" fill="url(#paint49_linear_374_2969)"/>
<path style="mix-blend-mode:color-dodge" opacity="0.7" d="M119.199 149.833C116.574 151.668 115.132 154.138 115.979 155.352C116.827 156.567 119.648 156.076 122.274 154.246C124.899 152.417 126.341 149.942 125.488 148.727C124.635 147.513 121.819 148.004 119.199 149.833Z" fill="url(#paint50_radial_374_2969)"/>
<path style="mix-blend-mode:color-dodge" d="M141.178 118.732C143.564 117.391 144.744 114.961 143.813 113.304C142.882 111.647 140.193 111.39 137.806 112.731C135.42 114.071 134.241 116.502 135.172 118.159C136.103 119.816 138.792 120.073 141.178 118.732Z" fill="url(#paint51_radial_374_2969)"/>
<path style="mix-blend-mode:screen" d="M142.371 134.537C140.009 126.697 134.438 118.93 127.937 115.178C119.302 110.191 112.3 114.186 112.3 124.098C112.37 127.637 113.097 131.133 114.444 134.407C123.487 137.472 133.28 137.518 142.35 134.537H142.371Z" fill="url(#paint52_linear_374_2969)"/>
<path d="M132.904 133.57L132.351 132.619L130.113 133.891L130.258 134.139L116.403 142.04L116.667 142.495L130.521 134.593L130.666 134.841L132.904 133.57Z" fill="url(#paint53_linear_374_2969)"/>
<path style="mix-blend-mode:multiply" d="M161.032 131.436C157.807 134.438 150.536 131.865 144.789 125.684C139.043 119.504 137.002 112.067 140.226 109.065C143.451 106.062 150.727 108.641 156.474 114.822C162.22 121.002 164.261 128.439 161.032 131.436Z" fill="url(#paint54_radial_374_2969)"/>
<path d="M160.138 108.62C154.763 103.039 146.877 101.902 142.516 106.109C142.397 106.223 142.066 106.496 141.859 106.698C137.498 110.889 138.94 117.829 144.314 123.41C149.688 128.992 156.949 131.11 161.311 126.914C161.424 126.8 161.76 126.521 161.967 126.325C166.328 122.129 165.507 114.207 160.138 108.62Z" fill="url(#paint55_radial_374_2969)"/>
<path opacity="0.2" d="M160.138 108.62C154.763 103.039 146.877 101.902 142.516 106.109C142.397 106.223 142.066 106.496 141.859 106.698C137.498 110.889 138.94 117.829 144.314 123.41C149.688 128.992 156.949 131.11 161.311 126.914C161.424 126.8 161.76 126.521 161.967 126.325C166.328 122.129 165.507 114.207 160.138 108.62Z" fill="url(#paint56_linear_374_2969)"/>
<path style="mix-blend-mode:multiply" d="M122.528 107.616C130.211 106.373 135.971 102.47 135.393 98.8972C134.815 95.3247 128.118 93.4363 120.435 94.6793C112.752 95.9223 106.992 99.8261 107.57 103.399C108.148 106.971 114.845 108.859 122.528 107.616Z" fill="url(#paint57_radial_374_2969)"/>
<path d="M118.108 90.0218C110.781 92.2026 106.352 98.9413 108.057 105.205C109.39 108.75 115.917 108.15 123.25 105.969C130.583 103.789 135.984 100.848 135.079 97.1843C132.945 91.0398 125.436 87.8462 118.108 90.0218Z" fill="url(#paint58_radial_374_2969)"/>
<path opacity="0.2" d="M118.108 90.0218C110.781 92.2026 106.352 98.9413 108.057 105.205C109.39 108.75 115.917 108.15 123.25 105.969C130.583 103.789 135.984 100.848 135.079 97.1843C132.945 91.0398 125.436 87.8462 118.108 90.0218Z" fill="url(#paint59_linear_374_2969)"/>
<path style="mix-blend-mode:color-dodge" opacity="0.8" d="M119.018 104.042C115.147 105.153 112.057 104.528 111.566 102.812C111.075 101.096 113.364 98.9258 117.251 97.8199C121.137 96.714 124.656 97.2049 125.152 98.9258C125.648 100.647 122.894 102.936 119.018 104.042Z" fill="url(#paint60_radial_374_2969)"/>
<path style="mix-blend-mode:multiply" opacity="0.5" d="M161.352 113.137C160.949 113.835 159.285 113.618 157.569 112.646C155.854 111.675 154.835 110.321 155.239 109.623C155.642 108.925 157.331 109.142 159.021 110.114C160.711 111.085 161.755 112.439 161.352 113.137Z" fill="url(#paint61_radial_374_2969)"/>
<path style="mix-blend-mode:multiply" opacity="0.5" d="M135.255 105.918C135.255 106.651 133.798 107.215 132.03 107.184C130.263 107.153 128.847 106.533 128.857 105.804C128.868 105.075 130.315 104.507 132.082 104.538C133.849 104.569 135.255 105.189 135.255 105.918Z" fill="url(#paint62_radial_374_2969)"/>
<path style="mix-blend-mode:multiply" opacity="0.5" d="M121.653 89.6238C121.896 90.2543 120.765 91.2827 119.121 91.9235C117.478 92.5643 115.948 92.5798 115.7 91.9493C115.452 91.3189 116.589 90.2957 118.232 89.6497C119.876 89.0037 121.405 88.9986 121.653 89.6238Z" fill="url(#paint63_radial_374_2969)"/>
<path d="M159.864 108.104C159.691 107.916 159.484 107.764 159.252 107.657C159.021 107.55 158.771 107.49 158.517 107.48C158.262 107.47 158.008 107.51 157.769 107.599C157.53 107.687 157.311 107.822 157.125 107.995C156.236 108.822 155.771 109.251 155.771 109.256C155.311 109.675 155.528 110.657 156.257 111.442C156.985 112.228 157.936 112.522 158.396 112.098L159.76 110.832C160.135 110.484 160.357 110.001 160.376 109.489C160.396 108.978 160.211 108.479 159.864 108.104Z" fill="url(#paint64_linear_374_2969)"/>
<path style="mix-blend-mode:color-dodge" opacity="0.8" d="M157.962 109.737C156.887 110.724 155.895 111.168 155.636 110.863C155.378 110.558 155.874 109.623 156.944 108.631C158.014 107.639 159.114 107.08 159.393 107.391C159.672 107.701 159.026 108.744 157.962 109.737Z" fill="url(#paint65_radial_374_2969)"/>
<path d="M117.028 87.841C116.8 87.8967 116.586 87.9968 116.397 88.1356C116.208 88.2743 116.048 88.4491 115.926 88.6497C115.805 88.8504 115.724 89.0731 115.689 89.3049C115.654 89.5368 115.665 89.7734 115.721 90.0011C116.021 91.0347 116.181 91.5514 116.181 91.5514C116.331 92.0682 117.214 91.9804 118.196 91.6961C119.178 91.4119 119.891 91.0553 119.747 90.5282C119.747 90.5282 119.586 89.9804 119.281 88.9521C119.129 88.507 118.806 88.1404 118.384 87.9323C117.962 87.7242 117.474 87.6913 117.028 87.841Z" fill="url(#paint66_linear_374_2969)"/>
<path style="mix-blend-mode:color-dodge" opacity="0.8" d="M117.819 90.2285C118.284 91.598 118.336 92.6367 118.036 92.7452C117.736 92.8537 117.137 91.9855 116.672 90.6213C116.207 89.257 116.088 88.0374 116.403 87.9495C116.718 87.8617 117.354 88.8642 117.819 90.2285Z" fill="url(#paint67_radial_374_2969)"/>
<path style="mix-blend-mode:color-dodge" opacity="0.8" d="M145.074 122.31C141.456 118.625 140.939 114.15 143.337 111.788C145.735 109.427 150.21 110.083 153.812 113.767C157.414 117.452 158.386 122.356 155.972 124.713C153.559 127.069 148.691 125.994 145.074 122.31Z" fill="url(#paint68_radial_374_2969)"/>
<g style="mix-blend-mode:multiply">
<path d="M129.172 105.83C129.172 106.388 129.953 106.863 130.914 106.863C131.875 106.863 132.65 106.409 132.65 105.83C132.65 105.251 131.875 104.796 130.914 104.796C129.953 104.796 129.172 105.272 129.172 105.83Z" fill="#8770B8"/>
</g>
<path d="M132.428 103.194H129.395V105.876C129.395 106.362 130.077 106.76 130.914 106.76C131.751 106.76 132.428 106.362 132.428 105.876V103.194Z" fill="url(#paint69_linear_374_2969)"/>
<g style="mix-blend-mode:multiply" opacity="0.5">
<path d="M132.428 101.954H129.395V104.202C129.395 104.61 130.077 104.941 130.914 104.941C131.751 104.941 132.428 104.61 132.428 104.202V101.954Z" fill="#B086CC"/>
</g>
<path d="M133.281 102.166H128.537V103.127C128.537 103.892 129.596 104.507 130.904 104.507C132.211 104.507 133.27 103.892 133.27 103.127L133.281 102.166Z" fill="url(#paint70_linear_374_2969)"/>
<path d="M128.537 102.176C128.537 102.936 129.596 103.556 130.904 103.556C132.211 103.556 133.27 102.936 133.27 102.176C133.27 101.417 132.237 100.797 130.904 100.797C129.57 100.797 128.537 101.417 128.537 102.176Z" fill="url(#paint71_linear_374_2969)"/>
<path style="mix-blend-mode:color-dodge" d="M130.914 103.551C129.617 103.551 128.568 102.946 128.547 102.197C128.547 102.962 129.607 103.577 130.914 103.577C132.221 103.577 133.281 102.962 133.281 102.197C133.255 102.946 132.206 103.551 130.914 103.551Z" fill="url(#paint72_radial_374_2969)"/>
<defs>
<linearGradient id="paint0_linear_374_2969" x1="63.4856" y1="4.7388" x2="114.078" y2="92.3628" gradientUnits="userSpaceOnUse">
<stop offset="0.06" stop-color="#200041"/>
<stop offset="0.26" stop-color="#210243"/>
<stop offset="0.36" stop-color="#25084B"/>
<stop offset="0.43" stop-color="#2C1358"/>
<stop offset="0.47" stop-color="#311B61"/>
<stop offset="0.48" stop-color="#351F65"/>
<stop offset="0.5" stop-color="#422C73"/>
<stop offset="0.51" stop-color="#584188"/>
<stop offset="0.52" stop-color="#765FA7"/>
<stop offset="0.53" stop-color="#8770B8"/>
<stop offset="0.54" stop-color="#7E67AE"/>
<stop offset="0.56" stop-color="#5C468D"/>
<stop offset="0.59" stop-color="#442E75"/>
<stop offset="0.61" stop-color="#362066"/>
<stop offset="0.63" stop-color="#311B61"/>
<stop offset="0.67" stop-color="#2A1155"/>
<stop offset="0.75" stop-color="#230446"/>
<stop offset="0.81" stop-color="#200041"/>
<stop offset="1" stop-color="#200041"/>
</linearGradient>
<radialGradient id="paint1_radial_374_2969" cx="0" cy="0" r="1" gradientUnits="userSpaceOnUse" gradientTransform="translate(142.107 40.3392) scale(94.9415 94.9415)">
<stop stop-color="#711F56"/>
<stop offset="0.16" stop-color="#6C1E52"/>
<stop offset="0.36" stop-color="#5C1946"/>
<stop offset="0.58" stop-color="#431233"/>
<stop offset="0.82" stop-color="#200918"/>
<stop offset="1"/>
</radialGradient>
<radialGradient id="paint2_radial_374_2969" cx="0" cy="0" r="1" gradientUnits="userSpaceOnUse" gradientTransform="translate(126.222 33.554) scale(55.9355 55.9355)">
<stop stop-color="#AF8AFC"/>
<stop offset="1" stop-color="#10054D"/>
</radialGradient>
<linearGradient id="paint3_linear_374_2969" x1="130.733" y1="85.5465" x2="-23.8903" y2="37.1404" gradientUnits="userSpaceOnUse">
<stop offset="0.19" stop-color="#3D065F"/>
<stop offset="0.93" stop-color="#3D065F"/>
</linearGradient>
<linearGradient id="paint4_linear_374_2969" x1="132.749" y1="145.389" x2="54.225" y2="-20.5314" gradientUnits="userSpaceOnUse">
<stop stop-color="#311B61"/>
<stop offset="0.2" stop-color="#290F52"/>
<stop offset="0.49" stop-color="#200041"/>
<stop offset="1" stop-color="#0F001F"/>
</linearGradient>
<linearGradient id="paint5_linear_374_2969" x1="75.1957" y1="75.8777" x2="124.506" y2="75.8777" gradientUnits="userSpaceOnUse">
<stop stop-color="#311B61"/>
<stop offset="0.2" stop-color="#290F52"/>
<stop offset="0.49" stop-color="#200041"/>
<stop offset="1" stop-color="#0F001F"/>
</linearGradient>
<linearGradient id="paint6_linear_374_2969" x1="69.6248" y1="18.2369" x2="144.65" y2="161.3" gradientUnits="userSpaceOnUse">
<stop offset="0.01" stop-color="#9F19AB"/>
<stop offset="0.43" stop-color="#5F27BD"/>
<stop offset="0.9" stop-color="#3D065F"/>
</linearGradient>
<linearGradient id="paint7_linear_374_2969" x1="110.072" y1="53.5563" x2="114.464" y2="61.1996" gradientUnits="userSpaceOnUse">
<stop stop-color="#311B61"/>
<stop offset="0.2" stop-color="#290F52"/>
<stop offset="0.49" stop-color="#200041"/>
<stop offset="1" stop-color="#0F001F"/>
</linearGradient>
<linearGradient id="paint8_linear_374_2969" x1="131.648" y1="59.8371" x2="125.56" y2="59.5735" gradientUnits="userSpaceOnUse">
<stop stop-color="#3D065F"/>
<stop offset="1" stop-color="#5F27BD"/>
</linearGradient>
<radialGradient id="paint9_radial_374_2969" cx="0" cy="0" r="1" gradientUnits="userSpaceOnUse" gradientTransform="translate(128.589 57.2429) scale(3.5709 3.5709)">
<stop stop-color="#711F56"/>
<stop offset="0.16" stop-color="#6C1E52"/>
<stop offset="0.36" stop-color="#5C1946"/>
<stop offset="0.58" stop-color="#431233"/>
<stop offset="0.82" stop-color="#200918"/>
<stop offset="1"/>
</radialGradient>
<linearGradient id="paint10_linear_374_2969" x1="78.2807" y1="46.0392" x2="70.9529" y2="46.0392" gradientUnits="userSpaceOnUse">
<stop stop-color="white"/>
<stop offset="0.04" stop-color="#F7F7F7"/>
<stop offset="0.99" stop-color="#45108A"/>
</linearGradient>
<linearGradient id="paint11_linear_374_2969" x1="80.539" y1="69.6196" x2="65.9143" y2="69.6196" gradientUnits="userSpaceOnUse">
<stop stop-color="white"/>
<stop offset="0.04" stop-color="#F7F7F7"/>
<stop offset="0.99" stop-color="#45108A"/>
</linearGradient>
<linearGradient id="paint12_linear_374_2969" x1="111.065" y1="41.2281" x2="94.3524" y2="20.3815" gradientUnits="userSpaceOnUse">
<stop offset="0.04" stop-color="#FFA98C"/>
<stop offset="0.32" stop-color="#FFB892"/>
<stop offset="0.86" stop-color="#FEE1A3"/>
<stop offset="1" stop-color="#FEECA8"/>
</linearGradient>
<linearGradient id="paint13_linear_374_2969" x1="108.977" y1="42.8973" x2="92.2697" y2="22.0558" gradientUnits="userSpaceOnUse">
<stop offset="0.04" stop-color="#FFA98C"/>
<stop offset="0.32" stop-color="#FFB892"/>
<stop offset="0.86" stop-color="#FEE1A3"/>
<stop offset="1" stop-color="#FEECA8"/>
</linearGradient>
<linearGradient id="paint14_linear_374_2969" x1="117.502" y1="75.262" x2="112.065" y2="81.5056" gradientUnits="userSpaceOnUse">
<stop offset="0.04" stop-color="#FFA98C"/>
<stop offset="0.32" stop-color="#FFB892"/>
<stop offset="0.86" stop-color="#FEE1A3"/>
<stop offset="1" stop-color="#FEECA8"/>
</linearGradient>
<linearGradient id="paint15_linear_374_2969" x1="87.3552" y1="53.0829" x2="78.9577" y2="36.5461" gradientUnits="userSpaceOnUse">
<stop offset="0.04" stop-color="#FFA98C"/>
<stop offset="0.32" stop-color="#FFB892"/>
<stop offset="0.86" stop-color="#FEE1A3"/>
<stop offset="1" stop-color="#FEECA8"/>
</linearGradient>
<linearGradient id="paint16_linear_374_2969" x1="62.0745" y1="123.872" x2="47.6977" y2="157.001" gradientUnits="userSpaceOnUse">
<stop stop-color="#E0CCEC"/>
<stop offset="0.85" stop-color="#FAF7FC"/>
<stop offset="1" stop-color="white"/>
</linearGradient>
<linearGradient id="paint17_linear_374_2969" x1="58.0162" y1="122.656" x2="39.8944" y2="153.9" gradientUnits="userSpaceOnUse">
<stop stop-color="#E0CCEC"/>
<stop offset="0.85" stop-color="#FAF7FC"/>
<stop offset="1" stop-color="white"/>
</linearGradient>
<radialGradient id="paint18_radial_374_2969" cx="0" cy="0" r="1" gradientUnits="userSpaceOnUse" gradientTransform="translate(15.0174 131.694) rotate(180) scale(8.74379 8.74379)">
<stop offset="0.1" stop-color="#8493BA"/>
<stop offset="0.21" stop-color="#606C90"/>
<stop offset="0.33" stop-color="#444D6E"/>
<stop offset="0.43" stop-color="#303756"/>
<stop offset="0.53" stop-color="#232A47"/>
<stop offset="0.62" stop-color="#1F2542"/>
<stop offset="0.71" stop-color="#242A49"/>
<stop offset="0.83" stop-color="#34395B"/>
<stop offset="0.98" stop-color="#4D517A"/>
</radialGradient>
<radialGradient id="paint19_radial_374_2969" cx="0" cy="0" r="1" gradientUnits="userSpaceOnUse" gradientTransform="translate(23.2857 136.325) rotate(180) scale(8.74379 8.7438)">
<stop offset="0.1" stop-color="#8493BA"/>
<stop offset="0.21" stop-color="#606C90"/>
<stop offset="0.33" stop-color="#444D6E"/>
<stop offset="0.43" stop-color="#303756"/>
<stop offset="0.53" stop-color="#232A47"/>
<stop offset="0.62" stop-color="#1F2542"/>
<stop offset="0.71" stop-color="#242A49"/>
<stop offset="0.83" stop-color="#34395B"/>
<stop offset="0.98" stop-color="#4D517A"/>
</radialGradient>
<radialGradient id="paint20_radial_374_2969" cx="0" cy="0" r="1" gradientUnits="userSpaceOnUse" gradientTransform="translate(31.6834 140.934) rotate(180) scale(8.7438 8.74379)">
<stop offset="0.1" stop-color="#8493BA"/>
<stop offset="0.21" stop-color="#606C90"/>
<stop offset="0.33" stop-color="#444D6E"/>
<stop offset="0.43" stop-color="#303756"/>
<stop offset="0.53" stop-color="#232A47"/>
<stop offset="0.62" stop-color="#1F2542"/>
<stop offset="0.71" stop-color="#242A49"/>
<stop offset="0.83" stop-color="#34395B"/>
<stop offset="0.98" stop-color="#4D517A"/>
</radialGradient>
<linearGradient id="paint21_linear_374_2969" x1="39.0048" y1="126.725" x2="43.6652" y2="135.373" gradientUnits="userSpaceOnUse">
<stop offset="0.04" stop-color="#F7D9CF"/>
<stop offset="0.46" stop-color="#FFE1C2"/>
<stop offset="0.87" stop-color="#F7CFC1"/>
</linearGradient>
<radialGradient id="paint22_radial_374_2969" cx="0" cy="0" r="1" gradientUnits="userSpaceOnUse" gradientTransform="translate(35.6873 131.427) rotate(42.5805) scale(17.9176 6.81223)">
<stop stop-color="#B086CC"/>
<stop offset="1" stop-color="white"/>
</radialGradient>
<radialGradient id="paint23_radial_374_2969" cx="0" cy="0" r="1" gradientUnits="userSpaceOnUse" gradientTransform="translate(34.9564 132.458) rotate(42.5805) scale(7.98761 3.03687)">
<stop stop-color="#583C94"/>
<stop offset="1" stop-color="white"/>
</radialGradient>
<radialGradient id="paint24_radial_374_2969" cx="0" cy="0" r="1" gradientUnits="userSpaceOnUse" gradientTransform="translate(70.286 128.999) rotate(-27.8973) scale(12.3757 1.5832)">
<stop stop-color="white"/>
<stop offset="0.13" stop-color="#FF63CE"/>
<stop offset="1"/>
</radialGradient>
<linearGradient id="paint25_linear_374_2969" x1="58.385" y1="110.977" x2="61.7027" y2="117.354" gradientUnits="userSpaceOnUse">
<stop offset="0.04" stop-color="#FFA98C"/>
<stop offset="0.32" stop-color="#FFB892"/>
<stop offset="0.86" stop-color="#FEE1A3"/>
<stop offset="1" stop-color="#FEECA8"/>
</linearGradient>
<linearGradient id="paint26_linear_374_2969" x1="60.5968" y1="114.884" x2="65.718" y2="124.273" gradientUnits="userSpaceOnUse">
<stop offset="0.04" stop-color="#FFA98C"/>
<stop offset="0.32" stop-color="#FFB892"/>
<stop offset="0.86" stop-color="#FEE1A3"/>
<stop offset="1" stop-color="#FEECA8"/>
</linearGradient>
<linearGradient id="paint27_linear_374_2969" x1="65.9248" y1="123.7" x2="61.1343" y2="115.013" gradientUnits="userSpaceOnUse">
<stop offset="0.04" stop-color="#FFA98C"/>
<stop offset="0.32" stop-color="#FFB892"/>
<stop offset="0.86" stop-color="#FEE1A3"/>
<stop offset="1" stop-color="#FEECA8"/>
</linearGradient>
<linearGradient id="paint28_linear_374_2969" x1="80.704" y1="104.136" x2="85.5581" y2="113.143" gradientUnits="userSpaceOnUse">
<stop stop-color="#BEC5D8"/>
<stop offset="0.21" stop-color="#EBEDF3"/>
<stop offset="0.24" stop-color="#E2E4EC"/>
<stop offset="0.5" stop-color="#9097B3"/>
<stop offset="0.62" stop-color="#70789C"/>
<stop offset="0.68" stop-color="#767EA3"/>
<stop offset="0.77" stop-color="#888EB5"/>
<stop offset="0.82" stop-color="#949AC2"/>
<stop offset="1" stop-color="#8B90B5"/>
</linearGradient>
<linearGradient id="paint29_linear_374_2969" x1="88.3856" y1="95.9487" x2="87.0988" y2="114.883" gradientUnits="userSpaceOnUse">
<stop stop-color="#D6DAE6"/>
<stop offset="0.01" stop-color="#D4D8E6"/>
<stop offset="0.28" stop-color="#B4B8E3"/>
<stop offset="0.4" stop-color="#9A9FC8"/>
<stop offset="0.53" stop-color="#838AB0"/>
<stop offset="0.65" stop-color="#757DA1"/>
<stop offset="0.76" stop-color="#70789C"/>
<stop offset="0.85" stop-color="#777EA2"/>
<stop offset="0.99" stop-color="#898EB3"/>
<stop offset="1" stop-color="#8B90B5"/>
</linearGradient>
<radialGradient id="paint30_radial_374_2969" cx="0" cy="0" r="1" gradientUnits="userSpaceOnUse" gradientTransform="translate(84.8696 105.303) scale(3.97915)">
<stop stop-color="#B4299A"/>
<stop offset="0.12" stop-color="#8A2076"/>
<stop offset="0.26" stop-color="#601652"/>
<stop offset="0.4" stop-color="#3E0E35"/>
<stop offset="0.55" stop-color="#23081E"/>
<stop offset="0.69" stop-color="#0F030D"/>
<stop offset="0.84" stop-color="#040103"/>
<stop offset="1"/>
</radialGradient>
<linearGradient id="paint31_linear_374_2969" x1="86.4313" y1="101.496" x2="90.9642" y2="109.907" gradientUnits="userSpaceOnUse">
<stop offset="0.01" stop-color="#ED5EB6"/>
<stop offset="0.13" stop-color="#F783C5"/>
<stop offset="0.25" stop-color="#FFA3D2"/>
<stop offset="0.62" stop-color="#DC5199"/>
<stop offset="0.72" stop-color="#DF589E"/>
<stop offset="0.81" stop-color="#E463A6"/>
<stop offset="1" stop-color="#DC3D8F"/>
</linearGradient>
<linearGradient id="paint32_linear_374_2969" x1="87.0193" y1="102.807" x2="97.5667" y2="105.391" gradientUnits="userSpaceOnUse">
<stop offset="0.06" stop-color="#FFA3D2"/>
<stop offset="0.81" stop-color="#E463A6"/>
<stop offset="1" stop-color="#DC3D8F"/>
</linearGradient>
<radialGradient id="paint33_radial_374_2969" cx="0" cy="0" r="1" gradientUnits="userSpaceOnUse" gradientTransform="translate(89.1331 103.773) scale(3.76727 3.76727)">
<stop stop-color="#B4299A"/>
<stop offset="0.12" stop-color="#8A2076"/>
<stop offset="0.26" stop-color="#601652"/>
<stop offset="0.4" stop-color="#3E0E35"/>
<stop offset="0.55" stop-color="#23081E"/>
<stop offset="0.69" stop-color="#0F030D"/>
<stop offset="0.84" stop-color="#040103"/>
<stop offset="1"/>
</radialGradient>
<radialGradient id="paint34_radial_374_2969" cx="0" cy="0" r="1" gradientUnits="userSpaceOnUse" gradientTransform="translate(37.2438 129.917) rotate(180) scale(5.1729 5.1729)">
<stop offset="0.1" stop-color="#8493BA"/>
<stop offset="0.21" stop-color="#606C90"/>
<stop offset="0.33" stop-color="#444D6E"/>
<stop offset="0.43" stop-color="#303756"/>
<stop offset="0.53" stop-color="#232A47"/>
<stop offset="0.62" stop-color="#1F2542"/>
<stop offset="0.71" stop-color="#242A49"/>
<stop offset="0.83" stop-color="#34395B"/>
<stop offset="0.98" stop-color="#4D517A"/>
</radialGradient>
<radialGradient id="paint35_radial_374_2969" cx="0" cy="0" r="1" gradientUnits="userSpaceOnUse" gradientTransform="translate(149.249 160.271) scale(27.5026 9.7176)">
<stop stop-color="#5F5C5D"/>
<stop offset="1" stop-color="white"/>
</radialGradient>
<linearGradient id="paint36_linear_374_2969" x1="129.121" y1="99.2514" x2="163.264" y2="156.877" gradientUnits="userSpaceOnUse">
<stop stop-color="#C211A1"/>
<stop offset="0.05" stop-color="#C518A5"/>
<stop offset="0.13" stop-color="#CE2DAF"/>
<stop offset="0.14" stop-color="#CF30B1"/>
<stop offset="0.23" stop-color="#FF63CE"/>
<stop offset="0.28" stop-color="#EB48BF"/>
<stop offset="0.38" stop-color="#C211A1"/>
<stop offset="0.54" stop-color="#A919AB"/>
<stop offset="0.64" stop-color="#AF1FAD"/>
<stop offset="0.78" stop-color="#C030B2"/>
<stop offset="0.82" stop-color="#C737B4"/>
<stop offset="0.87" stop-color="#B92EAB"/>
<stop offset="0.96" stop-color="#941694"/>
<stop offset="1" stop-color="#840C8A"/>
</linearGradient>
<linearGradient id="paint37_linear_374_2969" x1="126.654" y1="153.262" x2="151.862" y2="110.174" gradientUnits="userSpaceOnUse">
<stop offset="0.04" stop-color="#9F19AB"/>
<stop offset="0.24" stop-color="#AE25B1"/>
<stop offset="0.65" stop-color="#D744BF"/>
<stop offset="1" stop-color="#FF63CE"/>
</linearGradient>
<linearGradient id="paint38_linear_374_2969" x1="121.524" y1="103.675" x2="154.401" y2="159.166" gradientUnits="userSpaceOnUse">
<stop stop-color="#C211A1"/>
<stop offset="0.05" stop-color="#C518A5"/>
<stop offset="0.13" stop-color="#CE2DAF"/>
<stop offset="0.14" stop-color="#CF30B1"/>
<stop offset="0.23" stop-color="#FF63CE"/>
<stop offset="0.28" stop-color="#EB48BF"/>
<stop offset="0.38" stop-color="#C211A1"/>
<stop offset="0.54" stop-color="#A919AB"/>
<stop offset="0.64" stop-color="#AF1FAD"/>
<stop offset="0.78" stop-color="#C030B2"/>
<stop offset="0.82" stop-color="#C737B4"/>
<stop offset="0.87" stop-color="#B92EAB"/>
<stop offset="0.96" stop-color="#941694"/>
<stop offset="1" stop-color="#840C8A"/>
</linearGradient>
<linearGradient id="paint39_linear_374_2969" x1="149.895" y1="167.688" x2="153.366" y2="166.125" gradientUnits="userSpaceOnUse">
<stop offset="0.01" stop-color="#45108A"/>
<stop offset="0.06" stop-color="#4F1793"/>
<stop offset="0.14" stop-color="#6A2BAA"/>
<stop offset="0.22" stop-color="#8F46C9"/>
<stop offset="0.27" stop-color="#8B3CC9"/>
<stop offset="0.34" stop-color="#7F22C9"/>
<stop offset="0.36" stop-color="#7C1DC9"/>
<stop offset="0.41" stop-color="#6B19B6"/>
<stop offset="0.48" stop-color="#56149E"/>
<stop offset="0.55" stop-color="#49118F"/>
<stop offset="0.61" stop-color="#45108A"/>
<stop offset="0.71" stop-color="#4E1295"/>
<stop offset="0.88" stop-color="#6818B2"/>
<stop offset="1" stop-color="#7C1DC9"/>
</linearGradient>
<radialGradient id="paint40_radial_374_2969" cx="0" cy="0" r="1" gradientUnits="userSpaceOnUse" gradientTransform="translate(146.789 157.734) scale(7.33301 7.33301)">
<stop offset="0.19" stop-color="#8770B8"/>
<stop offset="1" stop-color="white"/>
</radialGradient>
<radialGradient id="paint41_radial_374_2969" cx="0" cy="0" r="1" gradientUnits="userSpaceOnUse" gradientTransform="translate(153.65 163.879) rotate(-24.7023) scale(0.625711 2.92527)">
<stop stop-color="white"/>
<stop offset="0.02" stop-color="#F7F7F7"/>
<stop offset="0.13" stop-color="#BEBEBE"/>
<stop offset="0.25" stop-color="#8B8B8B"/>
<stop offset="0.37" stop-color="#606060"/>
<stop offset="0.49" stop-color="#3E3E3E"/>
<stop offset="0.62" stop-color="#232323"/>
<stop offset="0.74" stop-color="#0F0F0F"/>
<stop offset="0.87" stop-color="#040404"/>
<stop offset="1"/>
</radialGradient>
<linearGradient id="paint42_linear_374_2969" x1="122.773" y1="152.901" x2="125.373" y2="155.691" gradientUnits="userSpaceOnUse">
<stop offset="0.01" stop-color="#45108A"/>
<stop offset="0.06" stop-color="#4F1793"/>
<stop offset="0.14" stop-color="#6A2BAA"/>
<stop offset="0.22" stop-color="#8F46C9"/>
<stop offset="0.27" stop-color="#8B3CC9"/>
<stop offset="0.34" stop-color="#7F22C9"/>
<stop offset="0.36" stop-color="#7C1DC9"/>
<stop offset="0.41" stop-color="#6B19B6"/>
<stop offset="0.48" stop-color="#56149E"/>
<stop offset="0.55" stop-color="#49118F"/>
<stop offset="0.61" stop-color="#45108A"/>
<stop offset="0.71" stop-color="#4E1295"/>
<stop offset="0.88" stop-color="#6818B2"/>
<stop offset="1" stop-color="#7C1DC9"/>
</linearGradient>
<radialGradient id="paint43_radial_374_2969" cx="0" cy="0" r="1" gradientUnits="userSpaceOnUse" gradientTransform="translate(126.129 137.193) scale(31.8022 31.8022)">
<stop offset="0.19" stop-color="#8770B8"/>
<stop offset="1" stop-color="white"/>
</radialGradient>
<linearGradient id="paint44_linear_374_2969" x1="117.251" y1="105.267" x2="150.882" y2="162.034" gradientUnits="userSpaceOnUse">
<stop stop-color="#C211A1"/>
<stop offset="0.05" stop-color="#C518A5"/>
<stop offset="0.13" stop-color="#CE2DAF"/>
<stop offset="0.14" stop-color="#CF30B1"/>
<stop offset="0.23" stop-color="#FF63CE"/>
<stop offset="0.28" stop-color="#EB48BF"/>
<stop offset="0.38" stop-color="#C211A1"/>
<stop offset="0.54" stop-color="#A919AB"/>
<stop offset="0.64" stop-color="#AF1FAD"/>
<stop offset="0.78" stop-color="#C030B2"/>
<stop offset="0.82" stop-color="#C737B4"/>
<stop offset="0.87" stop-color="#B92EAB"/>
<stop offset="0.96" stop-color="#941694"/>
<stop offset="1" stop-color="#840C8A"/>
</linearGradient>
<linearGradient id="paint45_linear_374_2969" x1="113.132" y1="159.89" x2="138.316" y2="117.081" gradientUnits="userSpaceOnUse">
<stop offset="0.04" stop-color="#9F19AB"/>
<stop offset="0.24" stop-color="#AE25B1"/>
<stop offset="0.65" stop-color="#D744BF"/>
<stop offset="1" stop-color="#FF63CE"/>
</linearGradient>
<radialGradient id="paint46_radial_374_2969" cx="0" cy="0" r="1" gradientUnits="userSpaceOnUse" gradientTransform="translate(131.969 136.702) rotate(29.8035) scale(22.2303 19.0975)">
<stop stop-color="white"/>
<stop offset="0.27" stop-color="#FBFBFC"/>
<stop offset="0.54" stop-color="#F0EFF1"/>
<stop offset="0.81" stop-color="#DDDBE1"/>
<stop offset="0.91" stop-color="#D4D1D8"/>
<stop offset="0.99" stop-color="#B5B2B8"/>
</radialGradient>
<radialGradient id="paint47_radial_374_2969" cx="0" cy="0" r="1" gradientUnits="userSpaceOnUse" gradientTransform="translate(137.968 119.679) scale(23.8025 23.8026)">
<stop stop-color="white"/>
<stop offset="0.07" stop-color="#D8D8D8"/>
<stop offset="0.16" stop-color="#A6A6A6"/>
<stop offset="0.26" stop-color="#797979"/>
<stop offset="0.37" stop-color="#545454"/>
<stop offset="0.47" stop-color="#353535"/>
<stop offset="0.59" stop-color="#1E1E1E"/>
<stop offset="0.7" stop-color="#0D0D0D"/>
<stop offset="0.84" stop-color="#030303"/>
<stop offset="1"/>
</radialGradient>
<linearGradient id="paint48_linear_374_2969" x1="134.661" y1="159.838" x2="107.509" y2="113.054" gradientUnits="userSpaceOnUse">
<stop stop-color="#C211A1"/>
<stop offset="0.04" stop-color="#C718A5"/>
<stop offset="0.11" stop-color="#D72DB0"/>
<stop offset="0.19" stop-color="#EF4EC2"/>
<stop offset="0.23" stop-color="#FF63CE"/>
<stop offset="0.28" stop-color="#EB48BF"/>
<stop offset="0.38" stop-color="#C211A1"/>
<stop offset="0.54" stop-color="#A919AB"/>
<stop offset="0.73" stop-color="#AC18AA"/>
<stop offset="0.9" stop-color="#B715A5"/>
<stop offset="1" stop-color="#C211A1"/>
</linearGradient>
<linearGradient id="paint49_linear_374_2969" x1="129.482" y1="134.277" x2="130.534" y2="134.277" gradientUnits="userSpaceOnUse">
<stop offset="0.04" stop-color="#9F19AB"/>
<stop offset="0.24" stop-color="#AE25B1"/>
<stop offset="0.65" stop-color="#D744BF"/>
<stop offset="1" stop-color="#FF63CE"/>
</linearGradient>
<radialGradient id="paint50_radial_374_2969" cx="0" cy="0" r="1" gradientUnits="userSpaceOnUse" gradientTransform="translate(87.2145 191.174) rotate(-125.754) scale(2.69041 5.76638)">
<stop stop-color="#732058"/>
<stop offset="0.08" stop-color="#601B49"/>
<stop offset="0.26" stop-color="#3D112F"/>
<stop offset="0.44" stop-color="#220A1A"/>
<stop offset="0.62" stop-color="#0F040C"/>
<stop offset="0.81" stop-color="#040103"/>
<stop offset="1"/>
</radialGradient>
<radialGradient id="paint51_radial_374_2969" cx="0" cy="0" r="1" gradientUnits="userSpaceOnUse" gradientTransform="translate(169.349 156.808) rotate(-29.33) scale(5.00339 3.40657)">
<stop stop-color="#DC3DAA"/>
<stop offset="0.11" stop-color="#B5328C"/>
<stop offset="0.28" stop-color="#7F2362"/>
<stop offset="0.45" stop-color="#51173F"/>
<stop offset="0.61" stop-color="#2E0D23"/>
<stop offset="0.76" stop-color="#150610"/>
<stop offset="0.89" stop-color="#050104"/>
<stop offset="1"/>
</radialGradient>
<linearGradient id="paint52_linear_374_2969" x1="114.295" y1="103.747" x2="128.485" y2="134.221" gradientUnits="userSpaceOnUse">
<stop stop-color="white"/>
<stop offset="1"/>
</linearGradient>
<linearGradient id="paint53_linear_374_2969" x1="117.482" y1="132.233" x2="134.054" y2="132.233" gradientUnits="userSpaceOnUse">
<stop offset="0.04" stop-color="#9F19AB"/>
<stop offset="0.24" stop-color="#AE25B1"/>
<stop offset="0.65" stop-color="#D744BF"/>
<stop offset="1" stop-color="#FF63CE"/>
</linearGradient>
<radialGradient id="paint54_radial_374_2969" cx="0" cy="0" r="1" gradientUnits="userSpaceOnUse" gradientTransform="translate(146.264 115.081) rotate(47.317) scale(15.2983 7.95991)">
<stop offset="0.19" stop-color="#5F5C5D"/>
<stop offset="1" stop-color="white"/>
</radialGradient>
<radialGradient id="paint55_radial_374_2969" cx="0" cy="0" r="1" gradientUnits="userSpaceOnUse" gradientTransform="translate(151.799 111.712) rotate(9.24) scale(16.1491 16.1491)">
<stop offset="0.01" stop-color="white"/>
<stop offset="0.21" stop-color="#E6D7F0"/>
<stop offset="0.37" stop-color="#D7BDE7"/>
<stop offset="0.46" stop-color="#D1B4E3"/>
<stop offset="0.6" stop-color="#C3A4DC"/>
<stop offset="0.74" stop-color="#B290D3"/>
<stop offset="1" stop-color="#AE8BD0"/>
</radialGradient>
<linearGradient id="paint56_linear_374_2969" x1="144.97" y1="104.827" x2="159.616" y2="127.565" gradientUnits="userSpaceOnUse">
<stop offset="0.01" stop-color="#C1A1D5"/>
<stop offset="0.05" stop-color="#C8ABDA"/>
<stop offset="0.11" stop-color="#DAC6E6"/>
<stop offset="0.2" stop-color="#F7F2F9"/>
<stop offset="0.22" stop-color="white"/>
<stop offset="0.25" stop-color="#F9F5FB"/>
<stop offset="0.3" stop-color="#E9DBF2"/>
<stop offset="0.36" stop-color="#D1B4E3"/>
<stop offset="0.43" stop-color="#B395D6"/>
<stop offset="0.49" stop-color="#9C7DCB"/>
<stop offset="0.56" stop-color="#8E6EC5"/>
<stop offset="0.61" stop-color="#8969C3"/>
<stop offset="0.76" stop-color="#9471C6"/>
<stop offset="1" stop-color="#B086CC"/>
</linearGradient>
<radialGradient id="paint57_radial_374_2969" cx="0" cy="0" r="1" gradientUnits="userSpaceOnUse" gradientTransform="translate(119.392 105.939) rotate(-9.19) scale(14.0446 6.52953)">
<stop offset="0.19" stop-color="#5F5C5D"/>
<stop offset="1" stop-color="white"/>
</radialGradient>
<radialGradient id="paint58_radial_374_2969" cx="0" cy="0" r="1" gradientUnits="userSpaceOnUse" gradientTransform="translate(119.151 99.5092) rotate(-16.2602) scale(19.7614 16.9395)">
<stop offset="0.01" stop-color="white"/>
<stop offset="0.21" stop-color="#E6D7F0"/>
<stop offset="0.37" stop-color="#D7BDE7"/>
<stop offset="0.46" stop-color="#D1B4E3"/>
<stop offset="0.6" stop-color="#C3A4DC"/>
<stop offset="0.74" stop-color="#B290D3"/>
<stop offset="1" stop-color="#AE8BD0"/>
</radialGradient>
<linearGradient id="paint59_linear_374_2969" x1="110.568" y1="102.894" x2="137.535" y2="94.6724" gradientUnits="userSpaceOnUse">
<stop offset="0.01" stop-color="#C1A1D5"/>
<stop offset="0.05" stop-color="#C8ABDA"/>
<stop offset="0.11" stop-color="#DAC6E6"/>
<stop offset="0.2" stop-color="#F7F2F9"/>
<stop offset="0.22" stop-color="white"/>
<stop offset="0.25" stop-color="#F9F5FB"/>
<stop offset="0.3" stop-color="#E9DBF2"/>
<stop offset="0.36" stop-color="#D1B4E3"/>
<stop offset="0.43" stop-color="#B395D6"/>
<stop offset="0.49" stop-color="#9C7DCB"/>
<stop offset="0.56" stop-color="#8E6EC5"/>
<stop offset="0.61" stop-color="#8969C3"/>
<stop offset="0.76" stop-color="#9471C6"/>
<stop offset="1" stop-color="#B086CC"/>
</linearGradient>
<radialGradient id="paint60_radial_374_2969" cx="0" cy="0" r="1" gradientUnits="userSpaceOnUse" gradientTransform="translate(131.441 98.4006) rotate(74.1975) scale(3.16243 7.16082)">
<stop stop-color="white"/>
<stop offset="0.02" stop-color="#F7F7F7"/>
<stop offset="0.13" stop-color="#BEBEBE"/>
<stop offset="0.25" stop-color="#8B8B8B"/>
<stop offset="0.37" stop-color="#606060"/>
<stop offset="0.49" stop-color="#3E3E3E"/>
<stop offset="0.62" stop-color="#232323"/>
<stop offset="0.74" stop-color="#0F0F0F"/>
<stop offset="0.87" stop-color="#040404"/>
<stop offset="1"/>
</radialGradient>
<radialGradient id="paint61_radial_374_2969" cx="0" cy="0" r="1" gradientUnits="userSpaceOnUse" gradientTransform="translate(158.925 110.475) rotate(29.7448) scale(3.53974 1.46354)">
<stop offset="0.19" stop-color="#8770B8"/>
<stop offset="1" stop-color="white"/>
</radialGradient>
<radialGradient id="paint62_radial_374_2969" cx="0" cy="0" r="1" gradientUnits="userSpaceOnUse" gradientTransform="translate(135.114 106.421) rotate(0.888234) scale(3.20691 1.31763)">
<stop offset="0.19" stop-color="#8770B8"/>
<stop offset="1" stop-color="white"/>
</radialGradient>
<radialGradient id="paint63_radial_374_2969" cx="0" cy="0" r="1" gradientUnits="userSpaceOnUse" gradientTransform="translate(117.409 82.0007) rotate(-21.3886) scale(3.19678 1.22528)">
<stop offset="0.19" stop-color="#8770B8"/>
<stop offset="1" stop-color="white"/>
</radialGradient>
<linearGradient id="paint64_linear_374_2969" x1="166.526" y1="113.297" x2="169.123" y2="116.085" gradientUnits="userSpaceOnUse">
<stop offset="0.01" stop-color="#45108A"/>
<stop offset="0.06" stop-color="#4F1793"/>
<stop offset="0.14" stop-color="#6A2BAA"/>
<stop offset="0.22" stop-color="#8F46C9"/>
<stop offset="0.27" stop-color="#8B3CC9"/>
<stop offset="0.34" stop-color="#7F22C9"/>
<stop offset="0.36" stop-color="#7C1DC9"/>
<stop offset="0.41" stop-color="#6B19B6"/>
<stop offset="0.48" stop-color="#56149E"/>
<stop offset="0.55" stop-color="#49118F"/>
<stop offset="0.61" stop-color="#45108A"/>
<stop offset="0.71" stop-color="#4E1295"/>
<stop offset="0.88" stop-color="#6818B2"/>
<stop offset="1" stop-color="#7C1DC9"/>
</linearGradient>
<radialGradient id="paint65_radial_374_2969" cx="0" cy="0" r="1" gradientUnits="userSpaceOnUse" gradientTransform="translate(175.742 114.883) rotate(47.2311) scale(0.732114 2.59581)">
<stop stop-color="white"/>
<stop offset="0.02" stop-color="#F7F7F7"/>
<stop offset="0.13" stop-color="#BEBEBE"/>
<stop offset="0.25" stop-color="#8B8B8B"/>
<stop offset="0.37" stop-color="#606060"/>
<stop offset="0.49" stop-color="#3E3E3E"/>
<stop offset="0.62" stop-color="#232323"/>
<stop offset="0.74" stop-color="#0F0F0F"/>
<stop offset="0.87" stop-color="#040404"/>
<stop offset="1"/>
</radialGradient>
<linearGradient id="paint66_linear_374_2969" x1="112.858" y1="85.8405" x2="116.365" y2="84.816" gradientUnits="userSpaceOnUse">
<stop offset="0.01" stop-color="#45108A"/>
<stop offset="0.06" stop-color="#4F1793"/>
<stop offset="0.14" stop-color="#6A2BAA"/>
<stop offset="0.22" stop-color="#8F46C9"/>
<stop offset="0.27" stop-color="#8B3CC9"/>
<stop offset="0.34" stop-color="#7F22C9"/>
<stop offset="0.36" stop-color="#7C1DC9"/>
<stop offset="0.41" stop-color="#6B19B6"/>
<stop offset="0.48" stop-color="#56149E"/>
<stop offset="0.55" stop-color="#49118F"/>
<stop offset="0.61" stop-color="#45108A"/>
<stop offset="0.71" stop-color="#4E1295"/>
<stop offset="0.88" stop-color="#6818B2"/>
<stop offset="1" stop-color="#7C1DC9"/>
</linearGradient>
<radialGradient id="paint67_radial_374_2969" cx="0" cy="0" r="1" gradientUnits="userSpaceOnUse" gradientTransform="translate(114.196 97.4283) rotate(-19.0935) scale(0.597167 2.57721)">
<stop stop-color="white"/>
<stop offset="0.02" stop-color="#F7F7F7"/>
<stop offset="0.13" stop-color="#BEBEBE"/>
<stop offset="0.25" stop-color="#8B8B8B"/>
<stop offset="0.37" stop-color="#606060"/>
<stop offset="0.49" stop-color="#3E3E3E"/>
<stop offset="0.62" stop-color="#232323"/>
<stop offset="0.74" stop-color="#0F0F0F"/>
<stop offset="0.87" stop-color="#040404"/>
<stop offset="1"/>
</radialGradient>
<radialGradient id="paint68_radial_374_2969" cx="0" cy="0" r="1" gradientUnits="userSpaceOnUse" gradientTransform="translate(157.594 130.144) rotate(135.988) scale(6.02847 9.14571)">
<stop stop-color="white"/>
<stop offset="0.02" stop-color="#F7F7F7"/>
<stop offset="0.13" stop-color="#BEBEBE"/>
<stop offset="0.25" stop-color="#8B8B8B"/>
<stop offset="0.37" stop-color="#606060"/>
<stop offset="0.49" stop-color="#3E3E3E"/>
<stop offset="0.62" stop-color="#232323"/>
<stop offset="0.74" stop-color="#0F0F0F"/>
<stop offset="0.87" stop-color="#040404"/>
<stop offset="1"/>
</radialGradient>
<linearGradient id="paint69_linear_374_2969" x1="129.41" y1="104.977" x2="132.397" y2="104.977" gradientUnits="userSpaceOnUse">
<stop offset="0.01" stop-color="#45108A"/>
<stop offset="0.06" stop-color="#4F1793"/>
<stop offset="0.14" stop-color="#6A2BAA"/>
<stop offset="0.22" stop-color="#8F46C9"/>
<stop offset="0.27" stop-color="#8B3CC9"/>
<stop offset="0.34" stop-color="#7F22C9"/>
<stop offset="0.36" stop-color="#7C1DC9"/>
<stop offset="0.41" stop-color="#6B19B6"/>
<stop offset="0.48" stop-color="#56149E"/>
<stop offset="0.55" stop-color="#49118F"/>
<stop offset="0.61" stop-color="#45108A"/>
<stop offset="0.71" stop-color="#4E1295"/>
<stop offset="0.88" stop-color="#6818B2"/>
<stop offset="1" stop-color="#7C1DC9"/>
</linearGradient>
<linearGradient id="paint70_linear_374_2969" x1="128.568" y1="103.344" x2="133.229" y2="103.344" gradientUnits="userSpaceOnUse">
<stop offset="0.01" stop-color="#45108A"/>
<stop offset="0.06" stop-color="#4F1793"/>
<stop offset="0.14" stop-color="#6A2BAA"/>
<stop offset="0.22" stop-color="#8F46C9"/>
<stop offset="0.27" stop-color="#8B3CC9"/>
<stop offset="0.34" stop-color="#7F22C9"/>
<stop offset="0.36" stop-color="#7C1DC9"/>
<stop offset="0.41" stop-color="#6B19B6"/>
<stop offset="0.48" stop-color="#56149E"/>
<stop offset="0.55" stop-color="#49118F"/>
<stop offset="0.61" stop-color="#45108A"/>
<stop offset="0.71" stop-color="#4E1295"/>
<stop offset="0.88" stop-color="#6818B2"/>
<stop offset="1" stop-color="#7C1DC9"/>
</linearGradient>
<linearGradient id="paint71_linear_374_2969" x1="133.694" y1="99.1945" x2="129.942" y2="103.215" gradientUnits="userSpaceOnUse">
<stop offset="0.1" stop-color="#45108A"/>
<stop offset="1" stop-color="#7C1DC9"/>
</linearGradient>
<radialGradient id="paint72_radial_374_2969" cx="0" cy="0" r="1" gradientUnits="userSpaceOnUse" gradientTransform="translate(130.154 103.365) scale(1.74669 1.74669)">
<stop stop-color="white"/>
<stop offset="1"/>
</radialGradient>
</defs>
</svg>
