<svg width="449" height="262" viewBox="0 0 449 262" fill="none" xmlns="http://www.w3.org/2000/svg">
<g clip-path="url(#clip0_206_497)">
<path d="M132.007 64.0002L179.991 36.828C180.377 36.6692 180.711 36.4093 180.957 36.0768C181.202 35.7443 181.35 35.3521 181.384 34.9428V30.1887C181.344 30.5962 181.194 30.9859 180.949 31.3174C180.704 31.6489 180.374 31.9101 179.991 32.074L131.979 59.2598C130.963 59.7651 129.839 60.0284 128.7 60.0284C127.56 60.0284 126.437 59.7651 125.421 59.2598L77.7426 32.074C77.3645 31.9194 77.0357 31.6679 76.7907 31.3458C76.5457 31.0238 76.3935 30.643 76.3501 30.2434V34.9838C76.3906 35.3843 76.5416 35.7664 76.787 36.089C77.0324 36.4115 77.3627 36.6623 77.7426 36.8144L125.434 64.0002C126.451 64.5142 127.577 64.7824 128.721 64.7824C129.864 64.7824 130.991 64.5142 132.007 64.0002Z" fill="#F38FE4"/>
<path d="M131.979 59.2598C130.962 59.7651 129.839 60.0284 128.7 60.0284C127.56 60.0284 126.437 59.7651 125.42 59.2598L77.7424 32.074C75.9461 31.0494 75.96 29.3418 77.7424 28.3582L125.727 1.17239C126.741 0.667219 127.862 0.403931 128.999 0.403931C130.136 0.403931 131.257 0.667219 132.271 1.17239L179.949 28.3582C181.759 29.3828 181.732 31.0904 179.949 32.0877L131.979 59.2598Z" fill="url(#paint0_linear_206_497)"/>
<path d="M132.787 35.1204C131.552 34.4923 130.455 33.6338 129.556 32.5931C129.022 31.9646 128.693 31.1939 128.609 30.38C128.62 29.4642 128.704 28.5507 128.86 27.6477C129.082 26.514 129.035 25.3451 128.721 24.2324C128.212 23.1032 127.301 22.1948 126.158 21.6778C124.393 20.7077 122.388 20.2349 120.366 20.3117C118.42 20.2899 116.502 20.7604 114.796 21.6778C114.131 21.9606 113.544 22.3961 113.086 22.9476C112.628 23.4992 112.312 24.1507 112.164 24.8472C112.133 25.5098 112.24 26.1718 112.479 26.7921C112.719 27.4124 113.085 27.978 113.557 28.4537L107.722 29.6559C106.932 28.7595 106.382 27.6845 106.121 26.5275C105.853 25.2038 106.07 23.8297 106.734 22.6477C107.725 21.0142 109.175 19.6957 110.911 18.8499C113.971 17.1512 117.408 16.2132 120.923 16.1177C124.4 15.9786 127.847 16.8074 130.865 18.5084C132.14 19.1652 133.274 20.0555 134.207 21.1313C134.823 21.8593 135.227 22.7373 135.377 23.6723C135.492 24.6618 135.492 25.661 135.377 26.6505C135.281 27.4622 135.234 28.2787 135.237 29.0958C135.303 29.7742 135.586 30.4148 136.045 30.9264C136.808 31.7794 137.723 32.4878 138.746 33.0166L140.905 34.2324L136.087 36.9647L132.787 35.1204ZM144.79 41.6368C143.783 41.7003 142.779 41.4824 141.893 41.0084C141.566 40.8749 141.287 40.6464 141.096 40.3534C140.904 40.0604 140.808 39.7169 140.821 39.369C140.901 38.9991 141.069 38.653 141.311 38.3586C141.553 38.0643 141.862 37.8301 142.214 37.6751C143.11 37.178 144.122 36.9147 145.152 36.91C146.122 36.876 147.083 37.0977 147.937 37.5521C148.763 38.0166 149.153 38.5494 149.106 39.1505C149.106 39.7516 148.605 40.3117 147.714 40.8171C146.82 41.3157 145.817 41.5968 144.79 41.6368Z" fill="white"/>
</g>
<g clip-path="url(#clip1_206_497)">
<path d="M205.079 254.981L250.241 228.973C250.604 228.821 250.919 228.572 251.15 228.254C251.381 227.936 251.52 227.56 251.552 227.169V222.618C251.514 223.008 251.373 223.381 251.143 223.698C250.912 224.016 250.601 224.266 250.241 224.423L205.053 250.443C204.097 250.927 203.039 251.179 201.967 251.179C200.894 251.179 199.837 250.927 198.88 250.443L154.007 224.423C153.651 224.275 153.342 224.034 153.111 223.726C152.881 223.417 152.737 223.053 152.697 222.67V227.208C152.735 227.591 152.877 227.957 153.108 228.266C153.339 228.574 153.65 228.814 154.007 228.96L198.894 254.981C199.85 255.473 200.91 255.729 201.986 255.729C203.063 255.729 204.123 255.473 205.079 254.981Z" fill="#D60000"/>
<path d="M205.053 250.443C204.096 250.927 203.039 251.179 201.967 251.179C200.894 251.179 199.837 250.927 198.88 250.443L154.007 224.423C152.316 223.442 152.329 221.807 154.007 220.866L199.169 194.845C200.123 194.362 201.178 194.11 202.248 194.11C203.319 194.11 204.374 194.362 205.328 194.845L250.202 220.866C251.905 221.847 251.879 223.481 250.202 224.436L205.053 250.443Z" fill="url(#paint1_linear_206_497)"/>
<path d="M205.813 227.338C204.652 226.737 203.619 225.916 202.773 224.919C202.27 224.318 201.96 223.58 201.882 222.801C201.892 221.925 201.971 221.05 202.117 220.186C202.327 219.101 202.282 217.982 201.986 216.917C201.508 215.836 200.65 214.967 199.575 214.472C197.913 213.543 196.026 213.091 194.123 213.164C192.292 213.144 190.487 213.594 188.881 214.472C188.255 214.743 187.703 215.159 187.272 215.687C186.841 216.215 186.543 216.839 186.404 217.506C186.374 218.14 186.475 218.773 186.7 219.367C186.926 219.961 187.271 220.502 187.714 220.957L182.223 222.108C181.48 221.25 180.962 220.221 180.716 219.114C180.464 217.847 180.668 216.532 181.293 215.4C182.226 213.837 183.591 212.575 185.224 211.765C188.104 210.139 191.34 209.242 194.647 209.15C197.92 209.017 201.164 209.81 204.005 211.438C205.204 212.067 206.272 212.919 207.15 213.949C207.73 214.646 208.111 215.486 208.251 216.381C208.359 217.328 208.359 218.284 208.251 219.231C208.161 220.008 208.117 220.79 208.12 221.572C208.182 222.221 208.448 222.835 208.88 223.324C209.598 224.141 210.459 224.819 211.422 225.325L213.454 226.489L208.919 229.104L205.813 227.338ZM217.11 233.576C216.163 233.636 215.218 233.428 214.384 232.974C214.076 232.846 213.814 232.628 213.633 232.347C213.453 232.067 213.363 231.738 213.375 231.405C213.45 231.051 213.608 230.72 213.836 230.438C214.064 230.156 214.355 229.932 214.686 229.784C215.53 229.308 216.482 229.056 217.451 229.051C218.364 229.019 219.269 229.231 220.072 229.666C220.85 230.111 221.217 230.62 221.173 231.196C221.173 231.771 220.701 232.307 219.862 232.791C219.021 233.268 218.077 233.537 217.11 233.576Z" fill="white"/>
</g>
<g clip-path="url(#clip2_206_497)">
<path d="M335.969 229.476L367.018 212.008C367.267 211.906 367.484 211.739 367.642 211.525C367.801 211.311 367.897 211.059 367.919 210.796V207.74C367.893 208.002 367.796 208.252 367.638 208.465C367.479 208.679 367.265 208.846 367.018 208.952L335.951 226.428C335.293 226.753 334.566 226.922 333.829 226.922C333.092 226.922 332.365 226.753 331.707 226.428L300.857 208.952C300.612 208.852 300.399 208.691 300.241 208.484C300.082 208.277 299.984 208.032 299.956 207.775V210.822C299.982 211.08 300.08 211.326 300.239 211.533C300.397 211.74 300.611 211.901 300.857 211.999L331.716 229.476C332.374 229.806 333.103 229.979 333.843 229.979C334.582 229.979 335.312 229.806 335.969 229.476Z" fill="#FFD900"/>
<path d="M335.951 226.428C335.293 226.753 334.566 226.923 333.829 226.923C333.092 226.923 332.365 226.753 331.707 226.428L300.857 208.952C299.694 208.293 299.703 207.195 300.857 206.563L331.905 189.087C332.561 188.762 333.287 188.593 334.023 188.593C334.759 188.593 335.484 188.762 336.14 189.087L366.99 206.563C368.162 207.222 368.144 208.32 366.99 208.961L335.951 226.428Z" fill="url(#paint2_linear_206_497)"/>
<path d="M336.474 210.91C335.675 210.506 334.965 209.955 334.383 209.286C334.038 208.882 333.825 208.386 333.771 207.863C333.778 207.274 333.832 206.687 333.933 206.106C334.077 205.378 334.046 204.626 333.843 203.911C333.514 203.185 332.924 202.601 332.185 202.269C331.042 201.645 329.745 201.341 328.437 201.39C327.178 201.376 325.937 201.679 324.833 202.269C324.402 202.45 324.023 202.73 323.726 203.085C323.43 203.439 323.225 203.858 323.13 204.306C323.109 204.732 323.179 205.158 323.334 205.556C323.489 205.955 323.726 206.319 324.031 206.625L320.255 207.397C319.744 206.821 319.388 206.13 319.219 205.386C319.046 204.535 319.186 203.652 319.616 202.892C320.257 201.842 321.196 200.994 322.319 200.451C324.299 199.359 326.523 198.756 328.797 198.694C331.047 198.605 333.277 199.138 335.23 200.231C336.055 200.653 336.789 201.226 337.393 201.917C337.791 202.385 338.053 202.95 338.149 203.551C338.224 204.187 338.224 204.829 338.149 205.465C338.087 205.987 338.057 206.512 338.059 207.037C338.102 207.473 338.285 207.885 338.582 208.214C339.075 208.762 339.668 209.218 340.33 209.558L341.726 210.339L338.609 212.096L336.474 210.91ZM344.24 215.099C343.589 215.14 342.939 215 342.366 214.695C342.154 214.61 341.974 214.463 341.85 214.274C341.726 214.086 341.664 213.865 341.672 213.642C341.724 213.404 341.833 213.181 341.989 212.992C342.146 212.803 342.346 212.652 342.573 212.553C343.154 212.233 343.808 212.064 344.474 212.061C345.102 212.039 345.724 212.181 346.276 212.474C346.811 212.772 347.063 213.115 347.033 213.501C347.033 213.887 346.709 214.248 346.132 214.572C345.554 214.893 344.905 215.074 344.24 215.099Z" fill="white"/>
</g>
<g clip-path="url(#clip3_206_497)">
<path d="M396.952 165.961L440.904 141.118C441.257 140.973 441.563 140.735 441.788 140.431C442.013 140.127 442.148 139.768 442.179 139.394V135.048C442.143 135.42 442.006 135.776 441.781 136.08C441.557 136.383 441.254 136.621 440.904 136.771L396.926 161.627C395.995 162.089 394.966 162.33 393.923 162.33C392.879 162.33 391.85 162.089 390.919 161.627L347.248 136.771C346.901 136.63 346.6 136.4 346.376 136.106C346.151 135.811 346.012 135.463 345.972 135.098V139.432C346.009 139.798 346.148 140.147 346.372 140.442C346.597 140.737 346.9 140.966 347.248 141.105L390.932 165.961C391.863 166.431 392.895 166.676 393.942 166.676C394.989 166.676 396.021 166.431 396.952 165.961Z" fill="#089970"/>
<path d="M396.927 161.627C395.996 162.089 394.967 162.33 393.923 162.33C392.879 162.33 391.85 162.089 390.919 161.627L347.248 136.771C345.602 135.835 345.615 134.273 347.248 133.374L391.2 108.518C392.129 108.057 393.155 107.816 394.197 107.816C395.239 107.816 396.266 108.057 397.194 108.518L440.866 133.374C442.524 134.311 442.498 135.872 440.866 136.784L396.927 161.627Z" fill="url(#paint3_linear_206_497)"/>
<path d="M397.666 139.557C396.536 138.982 395.531 138.197 394.707 137.246C394.218 136.671 393.916 135.967 393.84 135.222C393.85 134.385 393.927 133.55 394.069 132.724C394.273 131.688 394.23 130.619 393.942 129.602C393.476 128.569 392.642 127.739 391.595 127.266C389.978 126.379 388.142 125.947 386.289 126.017C384.507 125.997 382.75 126.427 381.187 127.266C380.578 127.525 380.041 127.923 379.621 128.427C379.202 128.931 378.912 129.527 378.777 130.164C378.748 130.77 378.846 131.375 379.065 131.942C379.285 132.509 379.621 133.026 380.052 133.461L374.708 134.56C373.985 133.741 373.481 132.758 373.241 131.7C372.996 130.49 373.194 129.234 373.803 128.153C374.711 126.66 376.039 125.454 377.629 124.681C380.432 123.128 383.58 122.27 386.799 122.183C389.985 122.056 393.142 122.813 395.906 124.368C397.074 124.969 398.113 125.783 398.967 126.767C399.532 127.432 399.902 128.235 400.039 129.09C400.144 129.994 400.144 130.908 400.039 131.813C399.951 132.555 399.908 133.301 399.911 134.048C399.972 134.669 400.23 135.254 400.651 135.722C401.349 136.502 402.188 137.15 403.125 137.633L405.102 138.745L400.689 141.243L397.666 139.557ZM408.661 145.514C407.739 145.572 406.819 145.373 406.008 144.94C405.707 144.818 405.453 144.609 405.277 144.341C405.101 144.073 405.014 143.759 405.026 143.441C405.099 143.103 405.253 142.786 405.474 142.517C405.696 142.248 405.979 142.034 406.301 141.892C407.122 141.438 408.049 141.197 408.992 141.193C409.881 141.162 410.762 141.364 411.543 141.78C412.3 142.205 412.657 142.692 412.615 143.241C412.615 143.791 412.155 144.303 411.339 144.765C410.52 145.221 409.602 145.478 408.661 145.514Z" fill="white"/>
</g>
<g clip-path="url(#clip4_206_497)">
<path d="M176.757 70.3937L176.714 86.0688L159.247 96.257L159.291 80.5819L176.757 70.3937Z" fill="#00559C"/>
<path d="M202.13 85.1024L202.087 100.778L176.714 86.0688L176.757 70.3937L202.13 85.1024Z" fill="#0081ED"/>
<path d="M209.186 80.9872L209.143 96.6561L202.087 100.778L202.13 85.1024L209.186 80.9872Z" fill="#00559C"/>
<path d="M181.534 93.4761L181.49 109.151L174.422 113.273L174.471 97.5975L181.534 93.4761Z" fill="#00559C"/>
<path d="M174.471 97.5975L174.422 113.273L152.179 100.378L152.222 84.7032L174.471 97.5975Z" fill="#0081ED"/>
<path d="M152.222 84.7032L152.179 100.378L128.874 113.977L128.917 98.3021L152.222 84.7032Z" fill="#00559C"/>
<path d="M128.917 98.3021L128.874 113.977L121.464 109.681L121.507 94.0061L128.917 98.3021Z" fill="#0081ED"/>
<path d="M209.187 80.9871L202.13 85.1023L176.757 70.3936L159.291 80.5818L181.534 93.4761L174.471 97.5975L152.222 84.7033L128.917 98.3021L121.507 94.0061L176.403 61.9824L209.187 80.9871Z" fill="#80C5FF"/>
<path d="M220.833 104.063L220.789 119.738L192.559 126.691L192.602 111.016L220.833 104.063Z" fill="#FFA600"/>
<path d="M183.546 113.185L183.503 128.86L163.192 133.867L163.235 118.192L183.546 113.185Z" fill="#FFA600"/>
<path d="M163.235 118.192L163.192 133.867L155.856 129.615L155.899 113.94L163.235 118.192Z" fill="#FFD500"/>
<path d="M204.801 125.506L204.758 141.175L183.503 128.86L183.546 113.185L204.801 125.506Z" fill="#FFD500"/>
<path d="M204.665 142.204L204.621 157.873L196.056 152.916L196.099 137.24L204.665 142.204Z" fill="#FFD500"/>
<path d="M237.684 94.8478L237.641 110.523L204.621 157.873L204.665 142.204L237.684 94.8478Z" fill="#FFA600"/>
<path d="M237.684 94.8478L204.665 142.235L196.106 137.247L204.801 125.512L183.559 113.185L163.247 118.173L155.912 113.921L237.243 94.5922L237.684 94.8478ZM192.602 111.016L208.652 120.318L220.827 104.063L192.596 111.016H192.602Z" fill="#FFED66"/>
<path d="M293.966 144.904L293.922 160.572C293.915 159.092 293.596 157.63 292.984 156.283C291.692 153.373 289.162 150.819 285.394 148.62C281.302 146.324 276.808 144.842 272.158 144.255C267.151 143.531 262.064 143.575 257.07 144.386C252.463 145.069 248.019 146.592 243.958 148.882C240.231 151.068 237.68 153.624 236.306 156.551C235.639 157.936 235.285 159.452 235.268 160.99L235.312 145.315C235.333 143.777 235.687 142.262 236.349 140.876C237.703 137.966 240.254 135.412 244.001 133.213C248.06 130.918 252.505 129.394 257.114 128.717C262.107 127.901 267.194 127.855 272.201 128.58C276.852 129.167 281.346 130.649 285.437 132.945C289.214 135.131 291.744 137.685 293.028 140.608C293.642 141.956 293.962 143.421 293.966 144.904Z" fill="#00559C"/>
<path d="M224.728 160.61L224.771 144.935C224.781 147.06 225.269 149.155 226.2 151.064C228.046 155.017 231.519 158.471 236.616 161.427C238.669 162.605 240.815 163.612 243.032 164.438L242.989 180.113C240.772 179.287 238.626 178.28 236.573 177.102C231.479 174.146 228.005 170.692 226.15 166.739C225.225 164.829 224.739 162.734 224.728 160.61Z" fill="#0081ED"/>
<path d="M304.307 145.197L304.264 160.872C304.242 162.901 303.807 164.904 302.984 166.758C301.254 170.761 297.881 174.223 292.866 177.146C288.69 179.525 284.179 181.257 279.487 182.283C274.394 183.443 269.18 183.979 263.958 183.879L264.002 168.204C269.223 168.304 274.438 167.768 279.53 166.608C284.224 165.588 288.736 163.855 292.91 161.47C297.92 158.561 301.293 155.1 303.028 151.089C303.85 149.233 304.286 147.228 304.307 145.197Z" fill="#00559C"/>
<path d="M267.872 178.835L267.828 194.51L242.989 180.113L243.032 164.438L267.872 178.835Z" fill="#0081ED"/>
<path d="M275.083 174.633L275.039 190.302L267.828 194.51L267.872 178.835L275.083 174.633Z" fill="#00559C"/>
<path d="M264.002 168.204L275.083 174.633L267.878 178.835L243.032 164.438C240.815 163.612 238.669 162.605 236.616 161.427C231.523 158.475 228.051 155.021 226.2 151.064C225.289 149.227 224.804 147.209 224.778 145.158C224.752 143.107 225.187 141.076 226.05 139.217C227.806 135.26 231.266 131.776 236.43 128.767C241.444 125.857 247.376 123.879 254.225 122.831C261.042 121.792 267.975 121.775 274.797 122.781C281.096 123.599 287.182 125.614 292.729 128.717C297.773 131.627 301.183 135.089 302.959 139.105C303.835 140.983 304.294 143.029 304.306 145.102C304.318 147.175 303.882 149.226 303.028 151.114C301.301 155.108 297.928 158.569 292.909 161.495C288.736 163.88 284.224 165.613 279.53 166.633C274.436 167.785 269.222 168.312 264.002 168.204ZM257.033 161.738C262.014 162.474 267.078 162.43 272.046 161.607C276.694 160.908 281.175 159.361 285.27 157.043C288.996 154.857 291.547 152.303 292.922 149.38C293.592 148.019 293.949 146.524 293.967 145.006C293.985 143.488 293.664 141.985 293.027 140.608C291.736 137.698 289.205 135.143 285.437 132.945C281.346 130.649 276.851 129.167 272.201 128.58C267.194 127.855 262.106 127.901 257.113 128.717C252.504 129.396 248.059 130.922 244.001 133.219C240.274 135.401 237.724 137.956 236.349 140.882C235.68 142.248 235.327 143.748 235.315 145.27C235.303 146.792 235.633 148.297 236.281 149.673C237.597 152.608 240.14 155.169 243.908 157.355C247.967 159.633 252.422 161.114 257.033 161.72V161.738Z" fill="#80C5FF"/>
</g>
<g clip-path="url(#clip5_206_497)">
<path d="M52.055 85.6859L8.77915 58.8327C8.10787 58.4362 7.36472 58.1792 6.59349 58.077C5.82226 57.9747 5.03855 58.0293 4.28853 58.2373C3.53851 58.4454 2.83735 58.8029 2.22637 59.2886C1.61539 59.7743 1.10694 60.3784 0.730973 61.0655C0.343658 61.7691 0.103607 62.5454 0.0256814 63.3464C-0.052244 64.1474 0.0336141 64.956 0.277941 65.7222C0.522268 66.4884 0.919862 67.1958 1.44611 67.8007C1.97236 68.4055 2.61607 68.895 3.33739 69.2387L45.8736 89.6659L52.055 85.6859Z" fill="#DADADA"/>
<path d="M93.8105 113.422C100.057 109.767 103.174 105.029 103.162 100.238V95.322C103.162 100.09 100.057 104.863 93.8105 108.506C81.389 115.737 61.3243 115.737 48.9908 108.506C42.8622 104.911 39.792 100.214 39.7803 95.5056V100.421C39.7803 105.13 42.8563 109.827 48.9849 113.422C61.3243 120.653 81.389 120.659 93.8105 113.422Z" fill="#DADADA"/>
<path d="M93.8046 108.5C106.214 101.28 106.267 89.5474 93.9396 82.3159C81.612 75.0843 61.5414 75.0843 49.1316 82.3159C36.7218 89.5474 36.6455 101.268 48.9731 108.506C61.3008 115.743 81.3772 115.743 93.8046 108.5ZM51.9376 83.9564C62.7918 77.637 80.3264 77.6311 91.116 83.9564C101.906 90.2818 101.847 100.54 90.9927 106.847C80.1386 113.155 62.5864 113.173 51.7909 106.847C40.9954 100.522 41.0717 90.2877 51.9376 83.9564Z" fill="#999999"/>
<path d="M90.9926 106.859C80.1326 113.185 62.5863 113.185 51.7967 106.859C41.007 100.534 41.0716 90.2758 51.9317 83.9564C62.7917 77.6369 80.3322 77.6369 91.1159 83.9564C101.9 90.2758 101.853 100.54 90.9926 106.859Z" fill="url(#paint4_linear_206_497)"/>
<path d="M52.6243 86.8762C63.4785 80.5509 81.019 80.5509 91.8086 86.8762C95.5245 89.0558 97.9196 91.7032 99.0643 94.4928C98.7297 90.649 96.088 86.8644 91.0748 83.9268C80.2911 77.6014 62.7506 77.6014 51.8964 83.9268C44.7758 88.0726 42.3278 93.9064 44.5057 99.2131C44.1183 94.783 46.8069 90.264 52.6243 86.8762Z" fill="#333333"/>
<g style="mix-blend-mode:screen">
<path d="M85.6801 101.286C78.0487 105.716 65.7739 105.716 58.2189 101.286C50.6638 96.8559 50.699 89.6718 58.3128 85.2357C65.9266 80.7997 78.2131 80.8056 85.7682 85.2357C93.3232 89.6658 93.288 96.8559 85.6801 101.286Z" fill="#7AA8F0"/>
</g>
</g>
<g clip-path="url(#clip6_206_497)">
<path d="M290.305 92.6488L351.596 58.1013C352.089 57.8993 352.516 57.5689 352.829 57.1462C353.143 56.7235 353.332 56.2247 353.375 55.7044V49.6599C353.324 50.178 353.133 50.6735 352.82 51.095C352.507 51.5164 352.085 51.8485 351.596 52.0568L290.27 86.6217C288.972 87.2641 287.537 87.5989 286.081 87.5989C284.626 87.5989 283.191 87.2641 281.893 86.6217L220.993 52.0568C220.51 51.8603 220.09 51.5406 219.777 51.1311C219.464 50.7216 219.27 50.2374 219.214 49.7294V55.7565C219.266 56.2657 219.459 56.7515 219.772 57.1616C220.086 57.5717 220.508 57.8906 220.993 58.084L281.91 92.6488C283.208 93.3023 284.648 93.6433 286.108 93.6433C287.568 93.6433 289.007 93.3023 290.305 92.6488Z" fill="#007AA8"/>
<path d="M290.27 86.6217C288.972 87.2642 287.537 87.599 286.081 87.599C284.626 87.599 283.191 87.2642 281.893 86.6217L220.993 52.0569C218.699 50.7542 218.716 48.5831 220.993 47.3325L282.284 12.7677C283.579 12.1254 285.011 11.7906 286.464 11.7906C287.916 11.7906 289.348 12.1254 290.643 12.7677L351.543 47.3325C353.855 48.6352 353.82 50.8063 351.543 52.0743L290.27 86.6217Z" fill="url(#paint5_linear_206_497)"/>
<path d="M291.301 55.9302C289.725 55.1316 288.323 54.0401 287.175 52.7169C286.493 51.9178 286.072 50.9379 285.965 49.9031C285.98 48.7388 286.087 47.5773 286.286 46.4292C286.57 44.9878 286.509 43.5016 286.108 42.0869C285.458 40.6511 284.295 39.4962 282.835 38.8389C280.58 37.6054 278.019 37.0044 275.436 37.1019C272.951 37.0743 270.501 37.6725 268.322 38.8389C267.472 39.1984 266.723 39.7521 266.138 40.4534C265.553 41.1547 265.149 41.983 264.96 42.8685C264.92 43.711 265.057 44.5526 265.363 45.3413C265.668 46.1301 266.137 46.8491 266.739 47.454L259.286 48.9825C258.277 47.8428 257.574 46.4759 257.241 45.0049C256.898 43.322 257.175 41.5749 258.023 40.0721C259.29 37.9952 261.142 36.3187 263.359 35.2434C267.268 33.0837 271.658 31.891 276.147 31.7696C280.589 31.5928 284.992 32.6465 288.847 34.8092C290.475 35.6442 291.924 36.7763 293.115 38.1441C293.903 39.0697 294.419 40.186 294.609 41.3748C294.757 42.6329 294.757 43.9032 294.609 45.1613C294.487 46.1933 294.428 47.2315 294.432 48.2704C294.516 49.1329 294.877 49.9474 295.463 50.5978C296.437 51.6823 297.607 52.583 298.914 53.2553L301.671 54.8012L295.517 58.275L291.301 55.9302ZM306.633 64.2153C305.347 64.296 304.064 64.019 302.933 63.4163C302.515 63.2467 302.159 62.9561 301.914 62.5836C301.67 62.211 301.547 61.7743 301.564 61.332C301.666 60.8617 301.88 60.4216 302.189 60.0474C302.498 59.6731 302.893 59.3754 303.342 59.1782C304.488 58.5463 305.78 58.2115 307.095 58.2056C308.334 58.1623 309.563 58.4442 310.653 59.0219C311.708 59.6125 312.206 60.2899 312.147 61.0541C312.147 61.8184 311.506 62.5305 310.368 63.1732C309.226 63.8071 307.945 64.1644 306.633 64.2153Z" fill="white"/>
</g>
<g clip-path="url(#clip7_206_497)">
<path d="M87.7032 226.65L145.768 193.655C146.235 193.462 146.639 193.147 146.936 192.743C147.234 192.34 147.412 191.863 147.453 191.366V185.593C147.405 186.088 147.224 186.561 146.927 186.964C146.631 187.366 146.231 187.684 145.768 187.883L87.6695 220.894C86.4396 221.508 85.0801 221.827 83.7013 221.827C82.3225 221.827 80.963 221.508 79.7331 220.894L22.0388 187.883C21.5812 187.695 21.1834 187.39 20.8869 186.998C20.5905 186.607 20.4063 186.145 20.3538 185.66V191.416C20.4028 191.902 20.5856 192.366 20.8825 192.758C21.1794 193.15 21.5791 193.454 22.0388 193.639L79.75 226.65C80.9796 227.274 82.3431 227.6 83.7266 227.6C85.1101 227.6 86.4735 227.274 87.7032 226.65Z" fill="#B8512B"/>
<path d="M87.6694 220.894C86.4395 221.507 85.0801 221.827 83.7012 221.827C82.3224 221.827 80.963 221.507 79.7331 220.894L22.0387 187.883C19.8651 186.638 19.8819 184.565 22.0387 183.37L80.1038 150.359C81.3307 149.746 82.6874 149.426 84.0635 149.426C85.4396 149.426 86.7963 149.746 88.0233 150.359L145.718 183.37C147.908 184.615 147.874 186.688 145.718 187.899L87.6694 220.894Z" fill="url(#paint6_linear_206_497)"/>
<path d="M88.6468 191.582C87.1532 190.819 85.8253 189.777 84.7376 188.513C84.0918 187.75 83.6928 186.814 83.5918 185.826C83.6052 184.714 83.7067 183.604 83.8951 182.508C84.1645 181.131 84.1069 179.712 83.7266 178.361C83.1114 176.989 82.0089 175.886 80.6262 175.259C78.4895 174.081 76.0637 173.507 73.6166 173.6C71.2625 173.573 68.9412 174.145 66.8766 175.259C66.0714 175.602 65.3618 176.131 64.8076 176.801C64.2534 177.47 63.8708 178.261 63.692 179.107C63.6537 179.912 63.7834 180.716 64.0733 181.469C64.3631 182.222 64.8068 182.909 65.377 183.487L58.3168 184.946C57.3609 183.858 56.695 182.552 56.3791 181.148C56.0543 179.54 56.3169 177.872 57.1205 176.436C58.3202 174.453 60.0753 172.852 62.1755 171.825C65.8783 169.762 70.0377 168.623 74.2906 168.507C78.4988 168.338 82.6696 169.345 86.3215 171.41C87.8638 172.208 89.2366 173.289 90.3655 174.595C91.1114 175.479 91.6004 176.545 91.7809 177.681C91.9202 178.882 91.9202 180.095 91.7809 181.297C91.6651 182.282 91.6088 183.274 91.6124 184.266C91.6924 185.09 92.0344 185.868 92.5897 186.489C93.5125 187.525 94.6205 188.385 95.8586 189.027L98.4703 190.503L92.6402 193.821L88.6468 191.582ZM103.171 199.495C101.953 199.572 100.738 199.307 99.6667 198.731C99.2701 198.569 98.9333 198.292 98.7014 197.936C98.4695 197.58 98.3536 197.163 98.3692 196.741C98.466 196.292 98.669 195.871 98.9618 195.514C99.2546 195.156 99.6289 194.872 100.054 194.684C101.139 194.08 102.363 193.76 103.61 193.755C104.784 193.714 105.947 193.983 106.98 194.535C107.979 195.099 108.451 195.745 108.395 196.475C108.395 197.205 107.788 197.885 106.71 198.499C105.628 199.105 104.415 199.446 103.171 199.495Z" fill="white"/>
</g>
<defs>
<linearGradient id="paint0_linear_206_497" x1="107.749" y1="11.5349" x2="163.844" y2="43.1598" gradientUnits="userSpaceOnUse">
<stop stop-color="#D8B7F7"/>
<stop offset="1" stop-color="#90D0FD"/>
</linearGradient>
<linearGradient id="paint1_linear_206_497" x1="182.249" y1="204.764" x2="235.468" y2="234.267" gradientUnits="userSpaceOnUse">
<stop stop-color="#FF9712"/>
<stop offset="1" stop-color="#FF9999"/>
</linearGradient>
<linearGradient id="paint2_linear_206_497" x1="320.273" y1="195.748" x2="356.455" y2="216.28" gradientUnits="userSpaceOnUse">
<stop stop-color="#F3AE00"/>
<stop offset="1" stop-color="#F08700"/>
</linearGradient>
<linearGradient id="paint3_linear_206_497" x1="374.733" y1="117.993" x2="426.068" y2="146.988" gradientUnits="userSpaceOnUse">
<stop stop-color="#73BD1E"/>
<stop offset="1" stop-color="#ABDA32"/>
</linearGradient>
<linearGradient id="paint4_linear_206_497" x1="43.7485" y1="95.4108" x2="99.17" y2="95.4108" gradientUnits="userSpaceOnUse">
<stop stop-color="#95C9FF"/>
<stop offset="1" stop-color="#4D8BFF"/>
</linearGradient>
<linearGradient id="paint5_linear_206_497" x1="259.321" y1="25.9429" x2="330.811" y2="66.434" gradientUnits="userSpaceOnUse">
<stop stop-color="#1CC0F3"/>
<stop offset="1" stop-color="#1A92CD"/>
</linearGradient>
<linearGradient id="paint6_linear_206_497" x1="58.3495" y1="162.942" x2="126.342" y2="201.142" gradientUnits="userSpaceOnUse">
<stop stop-color="#F38FE4"/>
<stop offset="1" stop-color="#F4656A"/>
</linearGradient>
<clipPath id="clip0_206_497">
<rect width="119" height="70" fill="white" transform="translate(69.3738 0.393677)"/>
</clipPath>
<clipPath id="clip1_206_497">
<rect width="112" height="67" fill="white" transform="translate(146.131 194.1)"/>
</clipPath>
<clipPath id="clip2_206_497">
<rect width="77" height="45" fill="white" transform="translate(295.442 188.586)"/>
</clipPath>
<clipPath id="clip3_206_497">
<rect width="109" height="64" fill="white" transform="translate(339.582 107.806)"/>
</clipPath>
<clipPath id="clip4_206_497">
<rect width="222" height="139" fill="white" transform="translate(111.942 61.9824)"/>
</clipPath>
<clipPath id="clip5_206_497">
<rect width="106" height="64" fill="white" transform="translate(0.0090332 58.0391)"/>
</clipPath>
<clipPath id="clip6_206_497">
<rect width="152" height="89" fill="white" transform="translate(210.303 11.7776)"/>
</clipPath>
<clipPath id="clip7_206_497">
<rect width="144" height="85" fill="white" transform="translate(11.9119 149.414)"/>
</clipPath>
</defs>
</svg>
