<svg width="33" height="33" viewBox="0 0 33 33" fill="none" xmlns="http://www.w3.org/2000/svg">
<path d="M0.583008 16.2903C0.583008 25.1268 7.74645 32.2903 16.583 32.2903C25.4196 32.2903 32.583 25.1268 32.583 16.2903C32.583 7.45373 25.4196 0.290283 16.583 0.290283C7.74645 0.290283 0.583008 7.45373 0.583008 16.2903Z" fill="#F00073"/>
<path d="M16.5832 9.49023C18.7832 9.49023 19.0832 9.49023 19.9832 9.49023C20.7832 9.49023 21.1832 9.69023 21.4832 9.79023C21.8832 9.99023 22.1832 10.0902 22.4832 10.3902C22.7832 10.6902 22.9832 10.9902 23.0832 11.3902C23.1832 11.6902 23.2832 12.0902 23.3832 12.8902C23.3832 13.7902 23.3832 13.9902 23.3832 16.2902C23.3832 18.5902 23.3832 18.7902 23.3832 19.6902C23.3832 20.4902 23.1832 20.8902 23.0832 21.1902C22.8832 21.5902 22.7832 21.8902 22.4832 22.1902C22.1832 22.4902 21.8832 22.6902 21.4832 22.7902C21.1832 22.8902 20.7832 22.9902 19.9832 23.0902C19.0832 23.0902 18.8832 23.0902 16.5832 23.0902C14.2832 23.0902 14.0832 23.0902 13.1832 23.0902C12.3832 23.0902 11.9832 22.8902 11.6832 22.7902C11.2832 22.5902 10.9832 22.4902 10.6832 22.1902C10.3832 21.8902 10.1832 21.5902 10.0832 21.1902C9.9832 20.8902 9.8832 20.4902 9.7832 19.6902C9.7832 18.7902 9.7832 18.5902 9.7832 16.2902C9.7832 13.9902 9.7832 13.7902 9.7832 12.8902C9.7832 12.0902 9.9832 11.6902 10.0832 11.3902C10.2832 10.9902 10.3832 10.6902 10.6832 10.3902C10.9832 10.0902 11.2832 9.89023 11.6832 9.79023C11.9832 9.69023 12.3832 9.59023 13.1832 9.49023C14.0832 9.49023 14.3832 9.49023 16.5832 9.49023ZM16.5832 7.99023C14.2832 7.99023 14.0832 7.99023 13.1832 7.99023C12.2832 7.99023 11.6832 8.19023 11.1832 8.39023C10.6832 8.59023 10.1832 8.89023 9.6832 9.39023C9.1832 9.89023 8.9832 10.2902 8.6832 10.8902C8.4832 11.3902 8.3832 11.9902 8.2832 12.8902C8.2832 13.7902 8.2832 14.0902 8.2832 16.2902C8.2832 18.5902 8.2832 18.7902 8.2832 19.6902C8.2832 20.5902 8.4832 21.1902 8.6832 21.6902C8.8832 22.1902 9.1832 22.6902 9.6832 23.1902C10.1832 23.6902 10.5832 23.8902 11.1832 24.1902C11.6832 24.3902 12.2832 24.4902 13.1832 24.5902C14.0832 24.5902 14.3832 24.5902 16.5832 24.5902C18.7832 24.5902 19.0832 24.5902 19.9832 24.5902C20.8832 24.5902 21.4832 24.3902 21.9832 24.1902C22.4832 23.9902 22.9832 23.6902 23.4832 23.1902C23.9832 22.6902 24.1832 22.2902 24.4832 21.6902C24.6832 21.1902 24.7832 20.5902 24.8832 19.6902C24.8832 18.7902 24.8832 18.4902 24.8832 16.2902C24.8832 14.0902 24.8832 13.7902 24.8832 12.8902C24.8832 11.9902 24.6832 11.3902 24.4832 10.8902C24.2832 10.3902 23.9832 9.89023 23.4832 9.39023C22.9832 8.89023 22.5832 8.69023 21.9832 8.39023C21.4832 8.19023 20.8832 8.09023 19.9832 7.99023C19.0832 7.99023 18.8832 7.99023 16.5832 7.99023Z" fill="white"/>
<path d="M16.5832 11.9902C14.1832 11.9902 12.2832 13.8902 12.2832 16.2902C12.2832 18.6902 14.1832 20.5902 16.5832 20.5902C18.9832 20.5902 20.8832 18.6902 20.8832 16.2902C20.8832 13.8902 18.9832 11.9902 16.5832 11.9902ZM16.5832 19.0902C15.0832 19.0902 13.7832 17.8902 13.7832 16.2902C13.7832 14.7902 14.9832 13.4902 16.5832 13.4902C18.0832 13.4902 19.3832 14.6902 19.3832 16.2902C19.3832 17.7902 18.0832 19.0902 16.5832 19.0902Z" fill="white"/>
<path d="M20.9832 12.8902C21.5355 12.8902 21.9832 12.4425 21.9832 11.8902C21.9832 11.338 21.5355 10.8902 20.9832 10.8902C20.4309 10.8902 19.9832 11.338 19.9832 11.8902C19.9832 12.4425 20.4309 12.8902 20.9832 12.8902Z" fill="white"/>
</svg>
