<svg width="33" height="33" viewBox="0 0 33 33" fill="none" xmlns="http://www.w3.org/2000/svg">
<path d="M0.166016 16.2903C0.166016 25.1268 7.32946 32.2903 16.166 32.2903C25.0026 32.2903 32.166 25.1268 32.166 16.2903C32.166 7.45373 25.0026 0.290283 16.166 0.290283C7.32946 0.290283 0.166016 7.45373 0.166016 16.2903Z" fill="#2867B2"/>
<path d="M11.766 24.2903H8.36601V13.5903H11.766V24.2903ZM10.066 12.0903C8.96602 12.0903 8.16602 11.2903 8.16602 10.1903C8.16602 9.09028 9.06602 8.29028 10.066 8.29028C11.166 8.29028 11.966 9.09028 11.966 10.1903C11.966 11.2903 11.166 12.0903 10.066 12.0903ZM24.166 24.2903H20.766V18.4903C20.766 16.7903 20.066 16.2903 19.066 16.2903C18.066 16.2903 17.066 17.0903 17.066 18.5903V24.2903H13.666V13.5903H16.866V15.0903C17.166 14.3903 18.366 13.2903 20.066 13.2903C21.966 13.2903 23.966 14.3903 23.966 17.6903V24.2903H24.166Z" fill="white"/>
</svg>
