<svg width="32" height="33" viewBox="0 0 32 33" fill="none" xmlns="http://www.w3.org/2000/svg">
<path d="M0 16.2903C0 25.1268 7.16344 32.2903 16 32.2903C24.8366 32.2903 32 25.1268 32 16.2903C32 7.45373 24.8366 0.290283 16 0.290283C7.16344 0.290283 0 7.45373 0 16.2903Z" fill="#0088CC"/>
<path d="M8.09992 15.9986C12.3949 14.1273 15.2589 12.8937 16.6919 12.2977C20.7834 10.5959 21.6335 10.3002 22.1877 10.2904C22.3095 10.2883 22.582 10.3185 22.7586 10.4618C22.9076 10.5827 22.9486 10.7461 22.9683 10.8608C22.9879 10.9754 23.0123 11.2366 22.9929 11.4407C22.7712 13.7704 21.8118 19.4238 21.3237 22.033C21.1172 23.1371 20.7105 23.5072 20.3168 23.5435C19.4613 23.6222 18.8116 22.9781 17.9829 22.4349C16.6862 21.5849 15.9537 21.0557 14.695 20.2263C13.2404 19.2677 14.1834 18.7409 15.0124 17.8799C15.2293 17.6545 18.999 14.2257 19.0719 13.9147C19.0811 13.8758 19.0895 13.7308 19.0034 13.6542C18.9172 13.5777 18.7901 13.6038 18.6983 13.6247C18.5683 13.6542 16.4968 15.0234 12.4839 17.7322C11.8959 18.1359 11.3633 18.3327 10.8862 18.3223C10.3601 18.311 9.34822 18.0249 8.59598 17.7804C7.67333 17.4805 6.94002 17.3219 7.00388 16.8126C7.03714 16.5472 7.40248 16.2759 8.09992 15.9986Z" fill="white"/>
</svg>
