<svg width="33" height="33" viewBox="0 0 33 33" fill="none" xmlns="http://www.w3.org/2000/svg">
<path d="M0.416992 16.2903C0.416992 25.1268 7.58044 32.2903 16.417 32.2903C25.2535 32.2903 32.417 25.1268 32.417 16.2903C32.417 7.45373 25.2535 0.290283 16.417 0.290283C7.58044 0.290283 0.416992 7.45373 0.416992 16.2903Z" fill="#25D366"/>
<path fill-rule="evenodd" clip-rule="evenodd" d="M22.017 10.5903C20.517 9.09028 18.517 8.29028 16.417 8.29028C12.017 8.29028 8.41699 11.8903 8.41699 16.2903C8.41699 17.6903 8.817 19.0903 9.517 20.2903L8.41699 24.2903L12.617 23.1903C13.817 23.7903 15.117 24.1903 16.417 24.1903C20.817 24.1903 24.417 20.5903 24.417 16.1903C24.417 14.0903 23.517 12.0903 22.017 10.5903ZM16.417 22.8903C15.217 22.8903 14.017 22.5903 13.017 21.9903L12.817 21.8903L10.317 22.5903L11.017 20.1903L10.817 19.8903C10.117 18.7903 9.81699 17.5903 9.81699 16.3903C9.81699 12.7903 12.817 9.79028 16.417 9.79028C18.217 9.79028 19.817 10.4903 21.117 11.6903C22.417 12.9903 23.017 14.5903 23.017 16.3903C23.017 19.8903 20.117 22.8903 16.417 22.8903ZM20.017 17.8903C19.817 17.7903 18.817 17.2903 18.617 17.2903C18.417 17.1903 18.317 17.1903 18.217 17.3903C18.117 17.5903 17.717 17.9903 17.617 18.1903C17.517 18.2903 17.417 18.2903 17.217 18.2903C17.017 18.1903 16.417 17.9903 15.617 17.2903C15.017 16.7903 14.617 16.0903 14.517 15.8903C14.417 15.6903 14.517 15.5903 14.617 15.4903C14.717 15.3903 14.817 15.2903 14.917 15.1903C15.017 15.0903 15.017 14.9903 15.117 14.8903C15.217 14.7903 15.117 14.6903 15.117 14.5903C15.117 14.4903 14.717 13.4903 14.517 13.0903C14.417 12.7903 14.217 12.7903 14.117 12.7903C14.017 12.7903 13.917 12.7903 13.717 12.7903C13.617 12.7903 13.417 12.7903 13.217 12.9903C13.017 13.1903 12.517 13.6903 12.517 14.6903C12.517 15.6903 13.217 16.5903 13.317 16.7903C13.417 16.8903 14.717 18.9903 16.717 19.7903C18.417 20.4903 18.717 20.2903 19.117 20.2903C19.517 20.2903 20.317 19.7903 20.417 19.3903C20.617 18.8903 20.617 18.4903 20.517 18.4903C20.417 17.9903 20.217 17.9903 20.017 17.8903Z" fill="white"/>
</svg>
